<svg id="svg" version="1.1" xmlns="http://www.w3.org/2000/svg" xmlns:xlink="http://www.w3.org/1999/xlink" width="400" height="400" viewBox="0, 0, 400,400"><g id="svgg"><path id="path0" d="M149.300 40.185 C 147.897 40.526,146.961 41.510,146.616 43.004 C 146.478 43.603,146.408 56.739,146.405 82.650 L 146.400 121.400 127.450 121.404 C 109.553 121.409,108.455 121.429,107.698 121.773 C 106.856 122.156,106.142 122.901,84.198 146.300 C 78.215 152.680,70.750 160.631,67.610 163.969 C 64.469 167.307,61.746 170.322,61.558 170.669 C 61.238 171.261,61.216 176.987,61.208 264.311 L 61.200 357.322 61.773 358.225 C 62.118 358.769,62.655 359.282,63.123 359.514 C 64.271 360.084,335.886 360.127,336.926 359.557 C 337.787 359.086,338.549 358.131,338.796 357.216 C 339.198 355.722,338.969 171.423,338.564 170.700 C 338.379 170.370,330.790 162.180,321.700 152.500 C 312.609 142.820,302.591 132.149,299.436 128.786 C 296.281 125.424,293.340 122.409,292.900 122.086 L 292.100 121.500 272.850 121.446 L 253.600 121.392 253.600 82.290 C 253.600 39.766,253.669 42.442,252.540 41.234 C 251.391 40.003,255.887 40.103,200.400 40.069 C 172.625 40.053,149.630 40.105,149.300 40.185 M206.024 69.013 C 226.217 73.721,233.264 98.876,218.492 113.521 C 204.504 127.388,180.801 121.458,174.844 102.600 C 168.723 83.224,186.205 64.393,206.024 69.013 M212.200 85.515 C 211.762 85.703,208.416 88.896,203.256 94.050 L 195.013 102.285 191.932 99.244 C 188.005 95.368,186.940 94.846,184.877 95.783 C 183.222 96.534,182.376 98.608,182.978 100.434 C 183.367 101.611,192.865 110.904,193.982 111.199 C 195.002 111.469,196.046 111.324,196.900 110.794 C 198.393 109.867,216.928 90.920,217.167 90.077 C 218.037 87.005,215.075 84.285,212.200 85.515 M146.400 135.400 L 146.400 142.000 136.363 142.000 C 126.582 142.000,126.304 142.011,125.460 142.419 C 122.723 143.744,122.982 148.099,125.863 149.187 C 126.257 149.336,148.518 149.400,200.050 149.400 L 273.674 149.400 274.550 148.976 C 277.258 147.665,277.237 143.615,274.516 142.379 C 273.757 142.035,273.001 142.008,263.650 142.004 L 253.600 142.000 253.600 135.400 L 253.600 128.800 271.388 128.800 L 289.175 128.800 298.138 138.346 C 303.067 143.597,311.458 152.529,316.784 158.196 L 326.468 168.500 263.234 168.550 C 228.455 168.578,171.562 168.578,136.804 168.550 L 73.607 168.500 87.154 154.079 C 94.604 146.148,102.988 137.215,105.784 134.229 L 110.867 128.800 128.634 128.800 L 146.400 128.800 146.400 135.400 M331.550 264.350 L 331.500 352.500 200.100 352.500 L 68.700 352.500 68.650 264.350 L 68.600 176.200 200.100 176.200 L 331.600 176.200 331.550 264.350 M113.445 245.732 C 112.104 246.393,111.225 248.106,111.493 249.535 C 111.632 250.273,127.984 288.741,128.483 289.502 C 129.831 291.560,133.011 291.705,134.443 289.774 C 135.522 288.320,151.600 250.101,151.600 248.992 C 151.600 245.612,147.117 244.014,145.109 246.678 C 144.851 247.020,141.742 254.095,138.200 262.400 C 134.658 270.705,131.702 277.563,131.630 277.639 C 131.559 277.715,128.575 270.921,125.000 262.541 C 118.451 247.189,118.037 246.340,116.780 245.690 C 116.038 245.306,114.263 245.329,113.445 245.732 M164.917 245.624 C 161.630 246.395,158.615 249.284,157.543 252.692 C 156.908 254.709,156.843 281.461,157.468 283.500 C 158.620 287.260,161.523 290.021,165.248 290.899 C 167.112 291.338,187.311 291.333,189.179 290.893 C 193.289 289.924,196.611 286.361,197.192 282.300 C 197.535 279.900,197.454 255.391,197.098 253.700 C 196.270 249.775,193.128 246.476,189.400 245.617 C 188.268 245.356,166.031 245.363,164.917 245.624 M204.900 245.682 C 201.863 247.046,202.172 251.481,205.380 252.569 C 205.839 252.725,208.195 252.800,212.630 252.800 L 219.200 252.800 219.200 270.608 C 219.200 287.994,219.209 288.434,219.598 289.196 C 220.885 291.720,224.363 291.848,226.018 289.433 L 226.500 288.729 226.554 270.777 L 226.608 252.824 233.454 252.762 C 239.372 252.708,240.381 252.655,240.900 252.369 C 243.366 251.009,243.671 247.742,241.487 246.077 L 240.731 245.500 223.116 245.456 C 208.701 245.420,205.391 245.461,204.900 245.682 M250.600 245.625 C 249.895 245.906,249.225 246.576,248.778 247.448 C 248.406 248.172,248.396 248.826,248.447 268.462 L 248.500 288.729 249.063 289.580 C 250.195 291.290,248.999 291.191,268.456 291.196 C 286.794 291.200,286.368 291.222,287.471 290.242 C 288.888 288.984,288.888 286.016,287.471 284.758 C 286.378 283.787,286.610 283.800,270.706 283.800 L 255.800 283.800 255.800 277.906 L 255.800 272.013 266.982 271.956 L 278.163 271.900 278.932 271.288 C 281.018 269.628,281.091 266.805,279.088 265.277 L 278.332 264.700 267.116 264.600 L 255.900 264.500 255.847 258.656 L 255.794 252.812 270.847 252.756 L 285.900 252.700 286.700 252.241 C 289.229 250.789,289.164 247.065,286.586 245.750 C 285.784 245.342,251.609 245.222,250.600 245.625 M188.352 253.199 C 189.879 254.130,189.798 253.295,189.799 268.269 C 189.800 283.190,189.879 282.342,188.400 283.264 C 187.390 283.893,167.119 283.956,166.100 283.333 C 164.603 282.418,164.706 283.477,164.648 268.400 C 164.591 253.263,164.510 254.137,166.048 253.199 C 167.064 252.580,187.336 252.580,188.352 253.199 " stroke="none" fill="#3c747c" fill-rule="evenodd"></path><path id="path1" d="M0.000 200.000 L 0.000 400.000 200.000 400.000 L 400.000 400.000 400.000 200.000 L 400.000 0.000 200.000 0.000 L 0.000 0.000 0.000 200.000 M252.067 40.662 C 252.472 40.970,253.005 41.600,253.252 42.062 L 253.700 42.900 253.752 82.045 L 253.805 121.190 272.752 121.245 C 289.668 121.294,291.776 121.335,292.407 121.622 C 293.188 121.977,293.657 122.469,320.500 151.068 C 330.290 161.498,338.454 170.318,338.642 170.666 C 338.962 171.261,338.984 176.989,338.992 264.311 L 339.000 357.322 338.423 358.232 C 338.039 358.837,337.548 359.286,336.960 359.571 L 336.074 360.000 200.030 360.000 C 86.222 360.000,63.881 359.956,63.340 359.730 C 62.491 359.375,61.473 358.196,61.201 357.253 C 60.733 355.633,61.028 171.208,61.500 170.500 C 61.719 170.170,66.041 165.490,71.103 160.100 C 76.165 154.710,85.750 144.495,92.402 137.400 C 108.117 120.641,107.056 121.703,108.360 121.426 C 109.103 121.267,114.944 121.200,127.908 121.200 L 146.397 121.200 146.449 81.835 L 146.500 42.471 147.034 41.664 C 147.346 41.193,147.927 40.680,148.434 40.429 L 149.300 39.999 200.316 40.050 L 251.331 40.100 252.067 40.662 M196.981 68.600 C 178.938 70.682,168.414 90.190,176.540 106.491 C 186.148 125.765,213.989 125.770,223.496 106.500 C 232.737 87.767,217.660 66.215,196.981 68.600 M215.387 85.568 C 217.011 86.353,217.804 88.438,217.198 90.328 C 216.940 91.132,198.822 109.575,197.155 110.731 C 196.333 111.301,195.041 111.527,193.862 111.307 C 192.807 111.110,183.393 101.818,182.875 100.463 C 181.757 97.534,184.516 94.599,187.538 95.502 C 188.367 95.749,188.942 96.232,191.698 98.995 L 194.897 102.201 203.098 94.022 C 207.609 89.523,211.525 85.727,211.800 85.586 C 213.026 84.959,214.117 84.954,215.387 85.568 M105.272 134.939 C 102.207 138.205,93.862 147.093,86.727 154.689 L 73.754 168.500 136.861 168.550 C 171.569 168.578,228.396 168.578,263.143 168.550 L 326.319 168.500 316.259 157.800 C 310.726 151.915,302.397 143.033,297.750 138.063 L 289.300 129.025 271.550 129.013 L 253.800 129.000 253.800 135.393 L 253.800 141.786 263.850 141.843 L 273.900 141.900 274.802 142.430 C 277.563 144.054,277.077 148.499,274.046 149.347 C 273.339 149.545,126.671 149.548,125.965 149.350 C 123.304 148.604,122.529 144.733,124.665 142.858 C 125.837 141.829,126.135 141.802,136.650 141.801 L 146.400 141.800 146.400 135.400 L 146.400 129.000 128.622 129.000 L 110.844 129.000 105.272 134.939 M68.600 264.300 L 68.600 352.400 200.000 352.400 L 331.400 352.400 331.400 264.300 L 331.400 176.200 200.000 176.200 L 68.600 176.200 68.600 264.300 M116.708 245.576 C 118.100 246.208,118.400 246.813,125.012 262.290 C 128.561 270.600,131.519 277.398,131.583 277.396 C 131.647 277.394,134.580 270.632,138.100 262.369 C 145.005 246.161,144.963 246.247,146.256 245.621 C 148.813 244.384,151.800 246.260,151.800 249.104 C 151.800 249.860,135.354 288.741,134.567 289.847 C 133.206 291.758,129.978 291.696,128.525 289.731 C 127.438 288.261,111.400 250.051,111.400 248.932 C 111.400 246.214,114.207 244.440,116.708 245.576 M189.381 245.508 C 193.033 246.369,196.135 249.425,197.094 253.108 C 197.355 254.110,197.400 256.363,197.400 268.332 L 197.400 282.379 196.897 283.972 C 196.060 286.621,193.972 289.030,191.514 290.184 C 189.159 291.288,189.007 291.300,177.200 291.300 C 168.651 291.300,166.063 291.241,165.200 291.027 C 161.315 290.061,158.279 287.091,157.306 283.308 C 156.849 281.526,156.848 254.866,157.306 253.108 C 158.253 249.475,161.358 246.381,164.927 245.517 C 166.711 245.085,187.555 245.077,189.381 245.508 M241.361 245.850 C 243.864 247.507,243.511 251.338,240.749 252.492 C 240.137 252.748,238.899 252.800,233.406 252.800 L 226.800 252.800 226.800 269.990 C 226.800 281.735,226.730 287.505,226.580 288.206 C 225.854 291.591,221.542 292.420,219.637 289.540 L 219.100 288.729 219.046 270.765 L 218.992 252.800 212.186 252.800 C 204.809 252.800,204.840 252.804,203.761 251.668 C 201.878 249.686,202.433 246.720,204.900 245.576 C 205.662 245.223,206.519 245.208,223.115 245.253 L 240.529 245.300 241.361 245.850 M286.508 245.576 C 289.209 246.802,289.513 250.273,287.083 252.127 L 286.331 252.700 271.166 252.754 L 256.000 252.807 256.000 258.599 L 256.000 264.390 267.065 264.445 L 278.130 264.500 278.961 265.050 C 281.768 266.908,280.920 271.269,277.613 271.978 C 276.933 272.124,273.063 272.200,266.290 272.200 L 256.000 272.200 256.000 277.895 L 256.000 283.590 270.950 283.645 L 285.900 283.700 286.794 284.201 C 289.321 285.616,289.344 289.275,286.835 290.750 L 285.900 291.300 268.500 291.300 C 249.114 291.300,250.546 291.403,249.241 289.916 C 248.186 288.715,248.202 289.044,248.201 268.286 C 248.200 245.504,248.083 246.609,250.600 245.519 C 251.780 245.008,285.375 245.061,286.508 245.576 M166.670 253.015 C 164.552 253.640,164.569 253.508,164.640 268.800 L 164.700 281.700 165.146 282.325 C 166.083 283.639,165.857 283.616,177.441 283.555 L 187.900 283.500 188.573 283.020 C 189.832 282.122,189.800 282.507,189.800 268.270 C 189.800 253.775,189.841 254.194,188.354 253.296 C 187.626 252.855,168.068 252.602,166.670 253.015 " stroke="none" fill="#fbfbfb" fill-rule="evenodd"></path><path id="path2" d="M209.495 87.650 L 208.100 89.100 209.550 87.705 C 210.897 86.410,211.091 86.200,210.945 86.200 C 210.914 86.200,210.262 86.853,209.495 87.650 M119.865 128.950 C 124.796 128.980,132.806 128.980,137.665 128.950 C 142.524 128.920,138.490 128.896,128.700 128.896 C 118.910 128.896,114.934 128.920,119.865 128.950 M262.665 128.950 C 267.596 128.980,275.606 128.980,280.465 128.950 C 285.324 128.920,281.290 128.896,271.500 128.896 C 261.710 128.896,257.734 128.920,262.665 128.950 M131.736 141.950 C 134.396 141.981,138.806 141.981,141.536 141.950 C 144.266 141.918,142.090 141.893,136.700 141.893 C 131.310 141.893,129.076 141.918,131.736 141.950 M258.550 141.950 C 261.218 141.981,265.582 141.981,268.250 141.950 C 270.918 141.918,268.735 141.893,263.400 141.893 C 258.065 141.893,255.882 141.918,258.550 141.950 M61.099 264.200 C 61.099 314.855,61.122 335.577,61.150 310.250 C 61.178 284.922,61.178 243.477,61.150 218.150 C 61.122 192.822,61.099 213.545,61.099 264.200 M255.888 258.600 C 255.888 261.845,255.916 263.173,255.950 261.550 C 255.983 259.928,255.983 257.272,255.950 255.650 C 255.916 254.028,255.888 255.355,255.888 258.600 M255.895 277.950 L 255.900 283.700 270.500 283.702 L 285.100 283.704 270.553 283.651 L 256.006 283.597 255.948 277.899 L 255.891 272.200 255.895 277.950 M172.250 283.750 C 174.972 283.781,179.428 283.781,182.150 283.750 C 184.873 283.718,182.645 283.693,177.200 283.693 C 171.755 283.693,169.528 283.718,172.250 283.750 " stroke="none" fill="#9cbcbc" fill-rule="evenodd"></path><path id="path3" d="M253.699 82.400 L 253.700 121.300 272.300 121.302 L 290.900 121.303 272.351 121.251 L 253.801 121.198 253.750 82.349 L 253.698 43.500 253.699 82.400 M201.699 95.450 L 195.300 101.900 201.750 95.501 C 207.744 89.554,208.290 89.000,208.149 89.000 C 208.121 89.000,205.218 91.903,201.699 95.450 M206.899 101.050 L 197.500 110.500 206.950 101.101 C 215.734 92.364,216.490 91.600,216.349 91.600 C 216.321 91.600,212.069 95.853,206.899 101.050 M173.660 94.000 C 173.660 94.605,173.697 94.853,173.743 94.550 C 173.789 94.248,173.789 93.752,173.743 93.450 C 173.697 93.148,173.660 93.395,173.660 94.000 M118.365 121.350 C 123.571 121.380,132.031 121.380,137.165 121.350 C 142.299 121.320,138.040 121.296,127.700 121.296 C 117.360 121.296,113.159 121.320,118.365 121.350 M105.487 123.450 L 104.900 124.100 105.550 123.513 C 105.908 123.190,106.200 122.897,106.200 122.863 C 106.200 122.708,106.035 122.844,105.487 123.450 M101.989 127.150 L 101.300 127.900 102.050 127.211 C 102.748 126.569,102.892 126.400,102.739 126.400 C 102.706 126.400,102.368 126.738,101.989 127.150 M253.689 135.400 C 253.689 138.975,253.716 140.438,253.750 138.650 C 253.783 136.863,253.783 133.938,253.750 132.150 C 253.716 130.363,253.689 131.825,253.689 135.400 M104.687 135.450 L 104.100 136.100 104.750 135.513 C 105.108 135.190,105.400 134.897,105.400 134.863 C 105.400 134.708,105.235 134.844,104.687 135.450 M307.400 137.263 C 307.400 137.297,307.693 137.590,308.050 137.913 L 308.700 138.500 308.113 137.850 C 307.565 137.244,307.400 137.108,307.400 137.263 M310.400 140.463 C 310.400 140.497,310.693 140.790,311.050 141.113 L 311.700 141.700 311.113 141.050 C 310.565 140.444,310.400 140.308,310.400 140.463 M98.887 141.650 L 98.300 142.300 98.950 141.713 C 99.556 141.165,99.692 141.000,99.537 141.000 C 99.503 141.000,99.210 141.292,98.887 141.650 M95.687 145.050 L 95.100 145.700 95.750 145.113 C 96.356 144.565,96.492 144.400,96.337 144.400 C 96.303 144.400,96.010 144.692,95.687 145.050 M305.200 146.100 C 305.573 146.485,305.923 146.800,305.978 146.800 C 306.033 146.800,305.773 146.485,305.400 146.100 C 305.027 145.715,304.677 145.400,304.622 145.400 C 304.567 145.400,304.827 145.715,305.200 146.100 M316.600 147.063 C 316.600 147.097,316.893 147.390,317.250 147.713 L 317.900 148.300 317.313 147.650 C 316.765 147.044,316.600 146.908,316.600 147.063 M163.350 149.550 C 183.507 149.578,216.492 149.578,236.650 149.550 C 256.807 149.522,240.315 149.499,200.000 149.499 C 159.685 149.499,143.192 149.522,163.350 149.550 M319.600 150.263 C 319.600 150.297,319.893 150.590,320.250 150.913 L 320.900 151.500 320.313 150.850 C 319.765 150.244,319.600 150.108,319.600 150.263 M89.487 151.650 L 88.900 152.300 89.550 151.713 C 90.156 151.165,90.292 151.000,90.137 151.000 C 90.103 151.000,89.810 151.292,89.487 151.650 M77.687 153.050 L 77.100 153.700 77.750 153.113 C 78.356 152.565,78.492 152.400,78.337 152.400 C 78.303 152.400,78.010 152.692,77.687 153.050 M314.000 155.463 C 314.000 155.497,314.293 155.790,314.650 156.113 L 315.300 156.700 314.713 156.050 C 314.165 155.444,314.000 155.308,314.000 155.463 M74.687 156.250 L 74.100 156.900 74.750 156.313 C 75.356 155.765,75.492 155.600,75.337 155.600 C 75.303 155.600,75.010 155.893,74.687 156.250 M325.800 156.863 C 325.800 156.897,326.093 157.190,326.450 157.513 L 327.100 158.100 326.513 157.450 C 325.965 156.844,325.800 156.708,325.800 156.863 M83.287 158.250 L 82.700 158.900 83.350 158.313 C 83.956 157.765,84.092 157.600,83.937 157.600 C 83.903 157.600,83.610 157.893,83.287 158.250 M317.200 158.863 C 317.200 158.897,317.493 159.190,317.850 159.513 L 318.500 160.100 317.913 159.450 C 317.365 158.844,317.200 158.708,317.200 158.863 M80.087 161.650 L 79.500 162.300 80.150 161.713 C 80.756 161.165,80.892 161.000,80.737 161.000 C 80.703 161.000,80.410 161.293,80.087 161.650 M68.487 162.850 L 67.900 163.500 68.550 162.913 C 69.156 162.365,69.292 162.200,69.137 162.200 C 69.103 162.200,68.810 162.493,68.487 162.850 M332.000 163.463 C 332.000 163.497,332.293 163.790,332.650 164.113 L 333.300 164.700 332.713 164.050 C 332.165 163.444,332.000 163.308,332.000 163.463 M77.087 164.850 L 76.500 165.500 77.150 164.913 C 77.756 164.365,77.892 164.200,77.737 164.200 C 77.703 164.200,77.410 164.493,77.087 164.850 M323.400 165.463 C 323.400 165.497,323.693 165.790,324.050 166.113 L 324.700 166.700 324.113 166.050 C 323.565 165.444,323.400 165.308,323.400 165.463 M62.287 169.450 L 61.700 170.100 62.350 169.513 C 62.956 168.965,63.092 168.800,62.937 168.800 C 62.903 168.800,62.610 169.093,62.287 169.450 M159.989 248.350 L 159.300 249.100 160.050 248.411 C 160.748 247.769,160.892 247.600,160.739 247.600 C 160.706 247.600,160.368 247.938,159.989 248.350 M194.200 248.300 C 194.573 248.685,194.923 249.000,194.978 249.000 C 195.033 249.000,194.773 248.685,194.400 248.300 C 194.027 247.915,193.677 247.600,193.622 247.600 C 193.567 247.600,193.827 247.915,194.200 248.300 M248.296 268.300 C 248.296 279.190,248.320 283.616,248.350 278.135 C 248.380 272.654,248.380 263.744,248.350 258.335 C 248.320 252.926,248.296 257.410,248.296 268.300 M226.696 270.200 C 226.696 279.825,226.720 283.762,226.750 278.950 C 226.780 274.138,226.780 266.263,226.750 261.450 C 226.720 256.637,226.696 260.575,226.696 270.200 M261.264 272.150 C 264.214 272.181,268.984 272.181,271.864 272.150 C 274.744 272.119,272.330 272.093,266.500 272.093 C 260.670 272.093,258.314 272.119,261.264 272.150 M172.050 291.350 C 174.883 291.381,179.518 291.381,182.350 291.350 C 185.183 291.319,182.865 291.293,177.200 291.293 C 171.535 291.293,169.218 291.319,172.050 291.350 M260.165 291.350 C 264.821 291.380,272.381 291.380,276.965 291.350 C 281.549 291.320,277.740 291.296,268.500 291.296 C 259.260 291.296,255.509 291.320,260.165 291.350 " stroke="none" fill="#ccdcdc" fill-rule="evenodd"></path><path id="path4" d="M218.592 76.050 C 219.420 76.933,219.600 77.092,219.600 76.942 C 219.600 76.910,219.173 76.482,218.650 75.992 L 217.700 75.100 218.592 76.050 M181.287 76.050 L 180.700 76.700 181.350 76.113 C 181.708 75.790,182.000 75.497,182.000 75.463 C 182.000 75.308,181.835 75.444,181.287 76.050 M187.900 106.000 C 190.318 108.420,192.342 110.400,192.397 110.400 C 192.452 110.400,190.518 108.420,188.100 106.000 C 185.682 103.580,183.658 101.600,183.603 101.600 C 183.548 101.600,185.482 103.580,187.900 106.000 M181.400 113.500 C 181.997 114.105,182.531 114.600,182.586 114.600 C 182.641 114.600,182.197 114.105,181.600 113.500 C 181.003 112.895,180.469 112.400,180.414 112.400 C 180.359 112.400,180.803 112.895,181.400 113.500 M199.050 121.138 C 199.243 121.188,199.558 121.188,199.750 121.138 C 199.942 121.088,199.785 121.046,199.400 121.046 C 199.015 121.046,198.858 121.088,199.050 121.138 M200.550 121.141 C 200.798 121.189,201.203 121.189,201.450 121.141 C 201.697 121.093,201.495 121.054,201.000 121.054 C 200.505 121.054,200.303 121.093,200.550 121.141 M331.450 264.250 L 331.400 352.400 200.050 352.450 L 68.700 352.500 200.056 352.550 C 304.994 352.590,331.432 352.550,331.507 352.350 C 331.560 352.213,331.579 312.500,331.551 264.100 L 331.500 176.100 331.450 264.250 M114.650 245.338 C 114.843 245.388,115.158 245.388,115.350 245.338 C 115.543 245.288,115.385 245.246,115.000 245.246 C 114.615 245.246,114.458 245.288,114.650 245.338 M171.850 245.350 C 174.793 245.381,179.608 245.381,182.550 245.350 C 185.493 245.319,183.085 245.293,177.200 245.293 C 171.315 245.293,168.908 245.319,171.850 245.350 M214.350 245.350 C 218.998 245.380,226.603 245.380,231.250 245.350 C 235.898 245.320,232.095 245.296,222.800 245.296 C 213.505 245.296,209.703 245.320,214.350 245.350 M260.165 245.350 C 264.821 245.380,272.381 245.380,276.965 245.350 C 281.549 245.320,277.740 245.296,268.500 245.296 C 259.260 245.296,255.509 245.320,260.165 245.350 M219.096 270.200 C 219.096 279.825,219.120 283.762,219.150 278.950 C 219.180 274.138,219.180 266.263,219.150 261.450 C 219.120 256.637,219.096 260.575,219.096 270.200 M261.250 264.550 C 264.193 264.581,269.007 264.581,271.950 264.550 C 274.893 264.519,272.485 264.493,266.600 264.493 C 260.715 264.493,258.308 264.519,261.250 264.550 M159.600 287.663 C 159.600 287.697,159.893 287.990,160.250 288.313 L 160.900 288.900 160.313 288.250 C 159.765 287.644,159.600 287.508,159.600 287.663 M194.087 288.250 L 193.500 288.900 194.150 288.313 C 194.508 287.990,194.800 287.697,194.800 287.663 C 194.800 287.508,194.635 287.644,194.087 288.250 " stroke="none" fill="#91b4b4" fill-rule="evenodd"></path></g></svg>