<svg id="svg" version="1.1" xmlns="http://www.w3.org/2000/svg" xmlns:xlink="http://www.w3.org/1999/xlink" width="400" height="400" viewBox="0, 0, 400,400"><g id="svgg"><path id="path0" d="M101.100 40.139 C 97.545 40.616,94.612 43.230,93.699 46.736 C 93.438 47.737,93.400 53.318,93.400 90.442 L 93.400 132.999 68.450 149.623 C 54.727 158.766,43.199 166.529,42.831 166.873 C 41.893 167.752,41.139 168.899,40.579 170.300 L 40.100 171.500 40.041 252.100 C 40.002 306.327,40.050 333.536,40.190 335.256 C 41.249 348.360,51.129 358.467,64.171 359.790 C 67.074 360.084,332.926 360.084,335.829 359.790 C 347.672 358.589,356.681 350.455,359.435 338.480 L 359.890 336.500 359.948 254.712 C 360.010 168.161,360.048 171.676,359.021 169.483 C 357.974 167.246,358.142 167.367,331.750 149.768 L 306.600 132.998 306.597 90.549 C 306.594 44.763,306.640 46.838,305.582 44.765 C 304.673 42.982,302.758 41.348,300.621 40.529 L 299.500 40.100 200.600 40.079 C 146.205 40.068,101.430 40.095,101.100 40.139 M288.950 125.326 L 288.900 192.851 280.400 196.846 C 267.290 203.007,204.996 232.303,202.352 233.550 L 200.004 234.658 169.452 220.289 C 152.648 212.387,132.645 202.980,125.000 199.385 L 111.100 192.849 111.050 125.324 L 110.999 57.800 200.000 57.800 L 289.001 57.800 288.950 125.326 M174.000 93.687 C 149.663 97.204,139.579 124.079,152.609 150.700 C 161.935 169.753,188.274 197.699,198.900 199.815 C 208.061 201.639,238.876 169.830,248.287 148.835 C 253.015 138.287,254.421 126.522,252.056 117.300 C 246.374 95.147,220.285 86.149,201.663 99.921 C 199.959 101.181,199.996 101.174,199.038 100.413 C 192.481 95.197,182.362 92.479,174.000 93.687 M180.479 111.210 C 185.180 111.864,189.202 114.415,192.655 118.934 C 196.911 124.502,203.038 124.335,207.681 118.524 C 211.627 113.585,216.069 111.192,221.300 111.187 C 235.892 111.173,240.078 128.050,229.988 146.222 C 224.461 156.176,213.870 168.545,202.247 178.620 C 199.765 180.771,200.248 180.778,197.654 178.552 C 180.568 163.891,167.921 146.485,165.211 133.900 C 162.176 119.811,169.035 109.618,180.479 111.210 M93.327 184.340 C 93.238 184.429,67.393 172.273,67.146 172.026 C 67.053 171.933,72.900 167.929,80.139 163.127 L 93.300 154.395 93.351 169.330 C 93.379 177.544,93.368 184.298,93.327 184.340 M320.361 163.463 C 327.324 168.080,332.946 171.934,332.854 172.026 C 332.691 172.189,306.873 184.400,306.691 184.400 C 306.641 184.400,306.600 177.640,306.600 169.377 L 306.600 154.354 307.150 154.711 C 307.453 154.907,313.397 158.845,320.361 163.463 M80.400 197.896 C 92.445 203.582,113.910 213.707,128.100 220.396 C 206.651 257.429,197.510 253.239,199.800 253.255 C 202.147 253.272,202.171 253.261,228.646 240.774 C 242.426 234.275,269.135 221.687,288.000 212.802 C 306.865 203.916,326.706 194.566,332.092 192.023 C 337.478 189.480,341.955 187.400,342.042 187.400 C 342.455 187.400,342.221 334.692,341.805 336.029 C 341.043 338.481,339.019 340.668,336.600 341.652 L 335.500 342.100 200.000 342.100 L 64.500 342.100 63.400 341.652 C 60.981 340.668,58.957 338.481,58.195 336.029 C 57.611 334.149,57.566 187.285,58.150 187.456 C 58.343 187.513,68.355 192.211,80.400 197.896 " stroke="none" fill="#3c747c" fill-rule="evenodd"></path><path id="path1" d="M0.000 200.000 L 0.000 400.000 200.000 400.000 L 400.000 400.000 400.000 200.000 L 400.000 0.000 200.000 0.000 L 0.000 0.000 0.000 200.000 M300.503 40.401 C 303.309 41.366,305.317 43.400,306.346 46.317 C 306.670 47.236,306.696 50.098,306.750 90.152 L 306.807 133.004 331.454 149.428 C 360.728 168.936,358.467 167.238,359.585 170.554 L 360.000 171.787 359.999 253.744 C 359.998 325.330,359.961 335.932,359.701 337.534 C 357.871 348.815,349.034 357.701,337.670 359.689 C 334.967 360.162,65.033 360.162,62.330 359.689 C 51.427 357.782,43.157 349.879,40.473 338.800 C 40.125 337.365,40.107 333.736,40.053 254.549 L 39.997 171.797 40.414 170.559 C 40.856 169.246,41.857 167.592,42.674 166.825 C 42.945 166.570,54.402 158.869,68.134 149.712 L 93.100 133.064 93.204 90.182 C 93.300 50.492,93.333 47.228,93.648 46.338 C 94.741 43.245,96.948 41.088,99.805 40.321 C 101.810 39.782,298.932 39.861,300.503 40.401 M111.250 125.314 L 111.300 192.829 128.100 200.727 C 137.340 205.071,157.231 214.424,172.301 221.513 C 187.372 228.601,199.841 234.400,200.009 234.400 C 200.177 234.400,220.201 225.045,244.507 213.611 L 288.700 192.822 288.750 125.311 L 288.801 57.800 200.000 57.800 L 111.199 57.800 111.250 125.314 M183.300 93.608 C 188.402 94.350,193.972 96.658,198.497 99.904 L 200.044 101.014 201.072 100.229 C 216.400 88.515,237.657 91.900,247.990 107.700 C 254.793 118.102,255.118 132.870,248.873 147.776 C 240.607 167.505,210.132 200.000,199.895 200.000 C 191.631 200.000,167.420 176.168,155.604 156.401 C 149.939 146.924,147.071 137.915,146.667 128.328 C 145.763 106.881,162.899 90.640,183.300 93.608 M175.046 111.603 C 168.354 113.356,164.611 118.922,164.603 127.130 C 164.592 137.774,170.032 148.819,182.332 163.127 C 186.750 168.266,199.127 180.300,199.995 180.300 C 200.760 180.300,212.719 168.791,216.829 164.100 C 230.022 149.042,235.826 137.133,235.339 126.128 C 234.620 109.917,217.501 105.698,207.228 119.200 C 203.238 124.443,196.836 124.322,192.515 118.921 C 187.470 112.617,181.201 109.990,175.046 111.603 M80.061 163.282 L 67.022 171.949 80.040 178.079 C 87.199 181.451,93.090 184.177,93.130 184.137 C 93.170 184.097,93.180 177.438,93.151 169.340 L 93.100 154.616 80.061 163.282 M306.800 169.410 C 306.800 181.195,306.851 184.223,307.050 184.144 C 307.188 184.090,313.077 181.324,320.137 177.998 L 332.974 171.951 320.137 163.417 C 313.077 158.723,307.188 154.814,307.050 154.730 C 306.851 154.608,306.800 157.595,306.800 169.410 M57.850 261.247 C 57.900 329.497,57.929 335.171,58.236 336.030 C 59.229 338.807,61.233 340.788,64.000 341.727 C 65.729 342.313,334.278 342.312,336.000 341.725 C 338.686 340.811,340.641 338.919,341.662 336.247 L 342.100 335.100 342.152 261.247 L 342.204 187.393 341.552 187.677 C 341.193 187.833,335.815 190.364,329.600 193.302 C 323.385 196.241,304.575 205.104,287.800 212.999 C 271.025 220.894,256.220 227.869,254.900 228.500 C 234.934 238.035,203.112 252.873,202.129 253.104 C 198.729 253.906,199.969 254.384,175.518 242.860 C 130.516 221.652,101.625 208.030,80.800 198.201 C 68.865 192.569,58.807 187.833,58.448 187.677 L 57.796 187.393 57.850 261.247 " stroke="none" fill="#fbfbfb" fill-rule="evenodd"></path><path id="path2" d="M111.049 125.238 C 111.022 162.384,111.067 192.818,111.150 192.869 C 111.285 192.953,111.285 147.471,111.149 82.100 C 111.121 68.680,111.076 88.092,111.049 125.238 M288.800 125.340 C 288.745 162.542,288.768 192.912,288.850 192.830 C 288.933 192.747,288.978 162.309,288.950 125.190 L 288.900 57.700 288.800 125.340 M220.955 93.347 C 221.426 93.389,222.146 93.388,222.555 93.345 C 222.965 93.302,222.580 93.268,221.700 93.269 C 220.820 93.269,220.485 93.304,220.955 93.347 M243.200 102.100 C 243.573 102.485,243.923 102.800,243.978 102.800 C 244.033 102.800,243.773 102.485,243.400 102.100 C 243.027 101.715,242.677 101.400,242.622 101.400 C 242.567 101.400,242.827 101.715,243.200 102.100 M156.189 102.550 L 155.500 103.300 156.250 102.611 C 156.948 101.969,157.092 101.800,156.939 101.800 C 156.906 101.800,156.568 102.138,156.189 102.550 M146.650 126.300 C 146.653 126.740,146.694 126.896,146.741 126.648 C 146.789 126.399,146.787 126.039,146.737 125.848 C 146.687 125.656,146.648 125.860,146.650 126.300 M253.266 127.100 C 253.267 127.870,253.303 128.160,253.346 127.746 C 253.389 127.331,253.389 126.701,253.344 126.346 C 253.300 125.990,253.265 126.330,253.266 127.100 M189.200 170.700 C 190.572 172.075,191.739 173.200,191.794 173.200 C 191.849 173.200,190.772 172.075,189.400 170.700 C 188.028 169.325,186.861 168.200,186.806 168.200 C 186.751 168.200,187.828 169.325,189.200 170.700 M210.294 171.050 L 209.100 172.300 210.350 171.106 C 211.511 169.997,211.692 169.800,211.544 169.800 C 211.513 169.800,210.950 170.363,210.294 171.050 M223.292 183.050 L 222.300 184.100 223.350 183.108 C 223.928 182.562,224.400 182.089,224.400 182.058 C 224.400 181.908,224.215 182.074,223.292 183.050 M219.887 186.450 L 219.300 187.100 219.950 186.513 C 220.556 185.965,220.692 185.800,220.537 185.800 C 220.503 185.800,220.210 186.093,219.887 186.450 M40.046 334.800 C 40.046 335.185,40.088 335.343,40.138 335.150 C 40.188 334.957,40.188 334.643,40.138 334.450 C 40.088 334.257,40.046 334.415,40.046 334.800 M64.450 359.938 C 64.642 359.988,64.958 359.988,65.150 359.938 C 65.343 359.888,65.185 359.846,64.800 359.846 C 64.415 359.846,64.258 359.888,64.450 359.938 M334.850 359.938 C 335.043 359.988,335.358 359.988,335.550 359.938 C 335.743 359.888,335.585 359.846,335.200 359.846 C 334.815 359.846,334.658 359.888,334.850 359.938 " stroke="none" fill="#92b4b4" fill-rule="evenodd"></path><path id="path3" d="M93.200 90.840 C 93.145 114.127,93.168 133.112,93.250 133.030 C 93.333 132.947,93.378 113.894,93.350 90.690 L 93.300 48.500 93.200 90.840 M306.649 90.738 C 306.622 113.969,306.668 133.018,306.750 133.069 C 306.886 133.153,306.885 104.583,306.749 63.800 C 306.720 55.385,306.676 67.507,306.649 90.738 M176.952 93.341 C 177.201 93.389,177.561 93.387,177.752 93.337 C 177.944 93.287,177.740 93.248,177.300 93.250 C 176.860 93.253,176.704 93.294,176.952 93.341 M179.250 93.338 C 179.442 93.388,179.758 93.388,179.950 93.338 C 180.143 93.288,179.985 93.246,179.600 93.246 C 179.215 93.246,179.058 93.288,179.250 93.338 M189.800 115.863 C 189.800 115.897,190.093 116.190,190.450 116.513 L 191.100 117.100 190.513 116.450 C 189.965 115.844,189.800 115.708,189.800 115.863 M193.200 119.863 C 193.200 119.897,193.493 120.190,193.850 120.513 L 194.500 121.100 193.913 120.450 C 193.365 119.844,193.200 119.708,193.200 119.863 M164.454 126.600 C 164.454 127.095,164.493 127.297,164.541 127.050 C 164.589 126.803,164.589 126.397,164.541 126.150 C 164.493 125.903,164.454 126.105,164.454 126.600 M146.654 128.600 C 146.654 129.095,146.693 129.297,146.741 129.050 C 146.789 128.803,146.789 128.398,146.741 128.150 C 146.693 127.903,146.654 128.105,146.654 128.600 M93.295 169.400 C 93.295 177.705,93.320 181.103,93.350 176.950 C 93.380 172.798,93.380 166.003,93.350 161.850 C 93.320 157.698,93.295 161.095,93.295 169.400 M306.695 169.500 C 306.695 177.750,306.720 181.154,306.750 177.065 C 306.780 172.975,306.780 166.225,306.750 162.065 C 306.720 157.904,306.695 161.250,306.695 169.500 M42.487 167.050 L 41.900 167.700 42.550 167.113 C 43.156 166.565,43.292 166.400,43.137 166.400 C 43.103 166.400,42.810 166.692,42.487 167.050 M356.800 166.463 C 356.800 166.497,357.093 166.790,357.450 167.113 L 358.100 167.700 357.513 167.050 C 356.965 166.444,356.800 166.308,356.800 166.463 M225.287 181.050 L 224.700 181.700 225.350 181.113 C 225.956 180.565,226.092 180.400,225.937 180.400 C 225.903 180.400,225.610 180.692,225.287 181.050 M47.800 352.300 C 48.173 352.685,48.523 353.000,48.578 353.000 C 48.633 353.000,48.373 352.685,48.000 352.300 C 47.627 351.915,47.277 351.600,47.222 351.600 C 47.167 351.600,47.427 351.915,47.800 352.300 M352.087 352.250 L 351.500 352.900 352.150 352.313 C 352.756 351.765,352.892 351.600,352.737 351.600 C 352.703 351.600,352.410 351.893,352.087 352.250 " stroke="none" fill="#b6cbcc" fill-rule="evenodd"></path><path id="path4" d="" stroke="none" fill="#9fbcbc" fill-rule="evenodd"></path></g></svg>