<svg id="svg" version="1.1" xmlns="http://www.w3.org/2000/svg" xmlns:xlink="http://www.w3.org/1999/xlink" width="400" height="400" viewBox="0, 0, 400,400"><g id="svgg"><path id="path0" d="M196.700 41.322 C 191.564 41.862,186.908 43.152,182.900 45.146 C 178.200 47.484,176.985 48.386,169.147 55.354 L 166.837 57.408 162.068 56.017 C 155.659 54.146,154.383 53.837,151.642 53.495 C 135.880 51.529,120.537 59.079,112.818 72.600 C 112.158 73.755,110.614 77.130,109.385 80.100 C 108.156 83.070,107.135 85.519,107.116 85.543 C 107.097 85.566,104.521 85.995,101.391 86.497 C 88.980 88.485,82.122 91.690,75.548 98.574 C 67.405 107.102,64.292 116.806,65.279 130.588 C 65.455 133.057,65.600 135.400,65.600 135.795 C 65.600 136.507,65.564 136.537,61.050 139.606 C 49.595 147.393,44.528 154.199,42.127 165.023 C 39.791 175.556,41.443 183.774,48.252 195.500 C 49.529 197.700,50.626 199.635,50.688 199.800 C 50.755 199.974,49.830 201.775,48.481 204.100 C 41.408 216.284,39.759 224.299,42.127 234.977 C 44.518 245.757,49.641 252.638,61.050 260.394 L 65.600 263.487 65.597 264.294 C 65.595 264.737,65.462 266.945,65.300 269.200 C 64.284 283.358,67.306 292.837,75.586 301.469 C 82.231 308.396,88.881 311.495,101.412 313.505 C 104.530 314.006,107.097 314.434,107.116 314.457 C 107.135 314.481,108.120 316.840,109.305 319.700 C 115.444 334.516,123.716 342.282,136.900 345.607 C 144.958 347.639,150.900 347.257,162.072 343.987 L 166.843 342.590 168.272 343.863 C 173.119 348.184,174.242 349.167,175.500 350.191 C 188.874 361.081,208.355 361.660,222.647 351.591 C 224.105 350.564,229.512 345.941,232.618 343.066 L 233.136 342.587 238.318 344.101 C 252.647 348.287,262.381 347.609,272.824 341.696 C 281.241 336.930,285.964 331.104,290.732 319.607 C 291.897 316.798,292.868 314.478,292.890 314.452 C 292.912 314.425,295.173 314.046,297.915 313.609 C 309.412 311.775,313.973 310.059,320.200 305.224 C 331.174 296.703,335.851 285.170,334.722 269.412 C 334.545 266.943,334.400 264.599,334.400 264.202 C 334.400 263.491,334.450 263.447,337.939 261.090 C 348.882 253.699,353.528 248.286,356.666 239.269 C 360.784 227.438,359.341 217.573,351.519 204.100 C 350.170 201.775,349.245 199.974,349.312 199.800 C 349.374 199.635,350.471 197.700,351.748 195.500 C 358.535 183.812,360.201 175.522,357.873 165.023 C 355.471 154.196,350.352 147.328,338.896 139.566 L 334.400 136.520 334.403 135.710 C 334.405 135.265,334.538 133.055,334.700 130.800 C 335.787 115.657,332.001 105.201,322.300 96.548 C 315.789 90.741,309.962 88.309,297.995 86.403 C 295.209 85.960,292.911 85.575,292.888 85.548 C 292.865 85.522,291.972 83.385,290.905 80.800 C 285.926 68.739,281.272 63.021,272.414 58.084 C 262.066 52.316,252.520 51.740,237.958 56.004 C 233.178 57.404,233.138 57.412,232.721 57.029 C 222.348 47.532,218.071 44.760,210.484 42.621 C 206.707 41.557,200.253 40.948,196.700 41.322 M204.400 64.397 C 207.974 65.453,208.863 66.064,215.600 72.108 C 223.491 79.186,224.279 79.740,227.682 80.600 C 231.068 81.456,232.000 81.315,241.600 78.489 C 250.109 75.984,250.817 75.821,253.158 75.810 C 257.900 75.787,261.646 77.282,264.914 80.500 C 267.116 82.669,267.720 83.787,270.909 91.600 C 276.485 105.263,277.317 105.996,289.400 107.890 C 302.309 109.913,302.674 110.011,305.926 112.316 C 311.191 116.050,312.745 120.337,312.132 129.440 C 311.259 142.429,311.294 141.376,311.665 143.316 C 312.630 148.376,314.184 150.103,323.452 156.414 C 333.065 162.960,334.785 164.858,335.910 170.163 C 336.920 174.932,336.235 177.162,330.972 186.225 C 325.861 195.026,325.200 196.608,325.200 200.026 C 325.200 203.666,325.532 204.395,333.236 217.669 C 338.684 227.055,336.777 234.646,327.400 240.906 C 325.915 241.897,323.035 243.830,321.000 245.202 C 314.315 249.708,312.242 252.423,311.489 257.662 C 311.411 258.207,311.597 262.354,311.917 267.208 C 312.700 279.088,312.225 281.420,308.139 285.747 C 304.915 289.163,302.810 289.968,293.100 291.499 C 281.991 293.251,281.654 293.336,279.054 295.030 C 275.597 297.282,274.254 299.749,268.202 314.968 C 267.009 317.969,263.251 321.594,259.940 322.940 C 255.481 324.752,252.296 324.681,245.333 322.618 C 233.598 319.139,233.027 318.997,230.800 319.008 C 227.092 319.027,224.119 320.320,220.587 323.450 C 217.007 326.623,211.145 331.850,210.700 332.265 C 206.273 336.396,198.520 337.345,192.704 334.470 C 190.397 333.329,189.654 332.712,178.709 322.850 C 174.667 319.207,169.821 318.174,164.300 319.779 C 163.200 320.099,160.095 321.011,157.400 321.806 C 147.851 324.623,145.595 324.847,141.317 323.399 C 135.305 321.364,133.296 318.860,128.800 307.800 C 125.640 300.026,125.123 298.998,123.480 297.223 C 120.343 293.835,118.833 293.311,107.000 291.507 C 97.232 290.017,95.446 289.340,92.000 285.817 C 87.676 281.396,87.225 279.149,88.113 266.442 C 88.849 255.899,88.381 253.520,84.833 249.758 C 83.593 248.444,82.969 247.991,72.338 240.702 C 66.256 236.532,63.816 232.574,63.803 226.863 C 63.796 223.434,64.385 221.790,67.665 216.071 C 68.918 213.887,70.768 210.665,71.776 208.910 C 74.141 204.791,74.656 203.266,74.681 200.300 C 74.715 196.278,74.510 195.777,68.801 185.900 C 64.099 177.767,63.645 176.529,63.856 172.400 C 64.154 166.587,66.534 163.148,73.526 158.427 C 82.962 152.055,83.421 151.724,84.746 150.328 C 88.358 146.520,88.811 144.282,88.106 133.737 C 87.253 120.988,87.642 118.889,91.674 114.472 C 94.957 110.876,97.598 109.828,106.740 108.495 C 118.178 106.827,119.812 106.311,122.874 103.396 C 124.853 101.512,125.179 100.893,128.860 92.065 C 133.395 81.189,135.190 78.875,140.684 76.822 C 145.769 74.923,148.015 75.249,164.300 80.258 C 169.095 81.732,174.692 80.722,177.940 77.795 C 178.248 77.517,179.720 76.212,181.211 74.895 C 182.702 73.578,185.087 71.460,186.511 70.189 C 191.286 65.926,193.365 64.752,197.600 63.925 C 198.860 63.679,202.927 63.961,204.400 64.397 M155.600 120.904 C 128.115 124.312,112.447 153.665,124.963 178.300 C 139.691 207.291,181.242 206.978,195.837 177.766 C 209.755 149.909,186.518 117.070,155.600 120.904 M265.269 120.997 C 256.745 123.232,253.957 133.565,260.196 139.804 C 269.229 148.837,283.600 138.414,278.095 126.821 C 275.896 122.191,270.339 119.668,265.269 120.997 M164.400 143.699 C 174.651 146.166,180.366 158.359,175.650 167.700 C 169.110 180.653,150.887 180.457,144.818 167.369 C 138.862 154.525,150.571 140.372,164.400 143.699 M242.194 143.775 C 239.285 144.706,242.785 141.311,180.567 203.554 C 125.019 259.123,122.415 261.760,121.811 263.051 C 117.151 273.006,127.460 283.061,137.151 278.012 C 139.285 276.900,254.271 161.998,255.349 159.900 C 259.871 151.106,251.468 140.807,242.194 143.775 M237.600 200.134 C 211.592 201.553,193.795 227.573,202.057 252.100 C 212.305 282.521,252.181 289.077,271.395 263.500 C 290.097 238.606,273.993 202.837,242.900 200.207 C 240.587 200.011,239.995 200.003,237.600 200.134 M243.912 223.203 C 254.434 225.894,259.802 237.713,254.901 247.400 C 247.816 261.404,227.119 259.119,223.194 243.900 C 219.980 231.440,231.423 220.009,243.912 223.203 " stroke="none" fill="#3c747c" fill-rule="evenodd"></path><path id="path1" d="M0.000 200.000 L 0.000 400.000 200.000 400.000 L 400.000 400.000 400.000 200.000 L 400.000 0.000 200.000 0.000 L 0.000 0.000 0.000 200.000 M206.320 41.609 C 214.687 42.921,220.482 45.990,229.079 53.662 C 231.157 55.517,232.967 57.077,233.101 57.128 C 233.235 57.179,235.674 56.550,238.522 55.730 C 241.370 54.909,244.602 54.053,245.704 53.826 C 262.666 50.340,280.257 58.757,288.073 74.100 C 288.578 75.090,289.885 78.058,290.978 80.697 L 292.967 85.493 298.319 86.345 C 311.296 88.411,317.379 91.276,324.607 98.728 C 332.555 106.923,335.735 116.497,334.893 129.700 C 334.724 132.340,334.567 134.939,334.543 135.476 L 334.500 136.452 338.578 139.223 C 344.104 142.977,345.382 143.965,347.604 146.191 C 358.242 156.853,361.670 172.157,356.563 186.200 C 355.714 188.535,354.567 190.793,351.779 195.616 C 350.471 197.880,349.400 199.853,349.400 200.000 C 349.400 200.147,350.471 202.120,351.779 204.384 C 357.734 214.688,359.447 220.799,358.792 229.405 C 357.762 242.947,351.967 251.739,337.727 261.363 L 334.379 263.626 334.488 264.463 C 336.916 283.230,331.900 296.868,319.156 306.147 C 313.357 310.370,308.939 311.954,298.136 313.680 L 292.973 314.505 290.714 319.903 C 285.175 333.138,278.784 339.895,267.675 344.264 C 258.508 347.868,251.023 347.873,238.559 344.281 C 235.732 343.467,233.335 342.800,233.234 342.800 C 233.132 342.800,231.216 344.435,228.975 346.433 C 218.752 355.548,211.440 358.721,200.370 358.847 C 189.261 358.973,181.421 355.681,171.221 346.607 C 168.868 344.513,166.856 342.800,166.750 342.800 C 166.645 342.800,164.251 343.467,161.429 344.283 C 149.040 347.866,141.414 347.863,132.418 344.274 C 121.059 339.742,114.786 333.146,109.302 319.968 L 107.026 314.500 105.963 314.339 C 88.818 311.739,81.866 308.725,74.884 300.868 C 66.247 291.148,63.631 281.025,65.504 264.563 L 65.610 263.626 61.855 261.083 C 50.788 253.588,46.070 247.974,43.012 238.661 C 39.181 226.993,40.612 217.573,48.221 204.374 C 49.530 202.105,50.600 200.137,50.600 200.000 C 50.600 199.863,49.530 197.895,48.221 195.626 C 41.458 183.896,39.809 176.254,41.807 165.911 C 43.987 154.621,49.383 147.355,61.855 138.916 L 65.610 136.374 65.504 135.437 C 63.323 116.206,67.940 103.423,80.391 94.215 C 86.999 89.329,91.029 87.987,106.163 85.634 L 107.026 85.500 109.290 80.061 C 111.997 73.556,113.127 71.423,115.466 68.400 C 123.591 57.902,136.562 52.084,149.400 53.180 C 153.809 53.556,154.224 53.644,161.429 55.721 C 164.251 56.535,166.649 57.200,166.759 57.200 C 166.869 57.200,168.344 55.963,170.037 54.450 C 176.677 48.518,178.249 47.365,182.800 45.091 C 189.851 41.567,198.185 40.334,206.320 41.609 M196.000 64.413 C 192.336 65.366,191.201 66.143,183.625 72.878 C 176.820 78.929,176.916 78.852,175.100 79.706 C 171.429 81.433,168.390 81.547,163.600 80.138 C 149.105 75.874,148.033 75.630,145.100 75.912 C 139.976 76.405,135.018 79.496,132.609 83.700 C 132.294 84.250,130.673 87.985,129.007 92.000 C 123.278 105.811,122.858 106.149,108.700 108.310 C 97.032 110.092,94.738 110.970,91.347 114.955 C 87.867 119.045,87.436 121.347,88.137 132.100 C 89.145 147.560,88.824 148.237,76.600 156.486 C 66.783 163.111,64.677 165.618,64.016 171.462 C 63.524 175.818,64.161 177.641,69.307 186.609 C 74.700 196.007,74.815 196.287,74.814 200.000 C 74.813 203.747,74.659 204.116,68.974 214.000 C 64.393 221.965,63.941 223.135,63.951 227.000 C 63.965 232.745,66.404 236.563,72.881 240.979 C 82.876 247.795,83.838 248.487,84.885 249.619 C 87.212 252.132,88.421 255.027,88.555 258.400 C 88.624 260.155,88.042 270.773,87.697 274.053 C 87.270 278.118,89.042 282.701,92.280 285.900 C 95.421 289.004,97.772 289.987,104.500 291.014 C 106.700 291.349,108.995 291.701,109.600 291.796 C 110.205 291.890,111.915 292.157,113.400 292.389 C 122.142 293.753,123.927 295.541,128.995 308.000 C 133.481 319.028,135.379 321.345,141.600 323.386 C 146.162 324.883,146.879 324.767,163.900 319.781 C 168.738 318.364,172.742 318.740,176.357 320.952 C 177.456 321.625,180.108 323.912,186.393 329.610 C 191.889 334.593,194.885 336.000,200.000 336.000 C 205.644 336.000,207.485 335.013,216.000 327.425 C 226.511 318.058,228.306 317.474,237.900 320.310 C 251.044 324.194,250.434 324.045,253.300 324.066 C 259.540 324.113,265.303 320.714,267.787 315.522 C 268.109 314.850,269.556 311.420,271.004 307.900 C 276.108 295.494,277.865 293.748,286.600 292.396 C 298.966 290.481,300.209 290.265,301.657 289.770 C 307.381 287.814,311.535 282.721,312.193 276.850 C 312.321 275.711,312.240 273.495,311.887 268.500 C 310.755 252.486,311.068 251.805,323.388 243.483 C 333.991 236.320,336.054 233.598,336.027 226.816 C 336.012 222.851,335.816 222.374,330.207 212.601 C 323.111 200.240,323.132 199.540,330.986 186.000 C 336.640 176.253,337.235 173.520,335.004 167.556 C 333.520 163.591,332.013 162.285,318.015 152.833 C 311.830 148.657,310.872 145.336,311.862 131.500 C 312.398 124.017,312.361 122.720,311.544 120.167 C 310.022 115.412,305.912 111.428,301.100 110.042 C 299.758 109.656,298.543 109.441,291.200 108.292 C 282.630 106.950,282.003 106.799,279.720 105.515 C 275.931 103.384,275.011 101.943,270.708 91.400 C 267.582 83.743,266.890 82.496,264.509 80.242 C 261.420 77.319,257.795 75.932,253.300 75.954 C 250.537 75.968,250.844 75.896,240.200 79.002 C 231.114 81.654,229.357 81.745,225.046 79.790 C 223.018 78.871,223.014 78.867,213.083 69.991 C 209.651 66.924,209.138 66.543,207.174 65.604 C 203.757 63.971,199.458 63.512,196.000 64.413 M165.900 120.921 C 192.222 124.464,207.751 153.606,196.075 177.545 C 181.800 206.810,140.118 207.541,125.120 178.790 C 110.092 149.979,133.631 116.576,165.900 120.921 M270.700 120.834 C 276.633 122.063,280.799 129.016,279.078 134.814 C 276.533 143.384,266.320 146.122,260.099 139.901 C 251.984 131.786,259.378 118.488,270.700 120.834 M247.640 143.421 C 255.102 144.978,258.919 153.190,255.373 160.059 C 254.279 162.178,139.290 277.073,137.250 278.085 C 127.149 283.099,116.919 272.974,121.816 262.809 C 122.823 260.718,238.204 145.399,240.260 144.428 C 242.691 143.280,245.275 142.928,247.640 143.421 M156.800 143.703 C 145.972 145.916,140.233 157.887,145.200 167.900 C 151.105 179.803,168.160 180.360,174.885 168.871 C 182.254 156.283,171.113 140.779,156.800 143.703 M244.158 200.212 C 274.572 203.530,289.826 238.992,271.423 263.600 C 253.712 287.282,216.905 283.734,203.996 257.100 C 190.360 228.965,213.055 196.819,244.158 200.212 M236.303 223.132 C 224.500 225.661,218.992 238.990,225.589 249.058 C 231.765 258.484,245.850 259.207,252.826 250.456 C 262.717 238.050,251.701 219.833,236.303 223.132 " stroke="none" fill="#fbfbfb" fill-rule="evenodd"></path><path id="path2" d="M144.653 53.144 C 144.957 53.189,145.407 53.188,145.653 53.141 C 145.899 53.093,145.650 53.056,145.100 53.057 C 144.550 53.059,144.349 53.098,144.653 53.144 M147.352 53.141 C 147.601 53.189,147.961 53.187,148.152 53.137 C 148.344 53.087,148.140 53.048,147.700 53.050 C 147.260 53.053,147.104 53.094,147.352 53.141 M118.892 64.450 L 117.900 65.500 118.950 64.508 C 119.926 63.585,120.092 63.400,119.942 63.400 C 119.911 63.400,119.438 63.873,118.892 64.450 M280.992 64.450 C 281.820 65.333,282.000 65.492,282.000 65.342 C 282.000 65.310,281.572 64.882,281.050 64.392 L 280.100 63.500 280.992 64.450 M199.554 63.945 C 199.913 63.989,200.453 63.989,200.754 63.943 C 201.054 63.897,200.760 63.861,200.100 63.862 C 199.440 63.863,199.194 63.900,199.554 63.945 M264.900 80.600 C 265.330 81.040,265.726 81.400,265.781 81.400 C 265.836 81.400,265.530 81.040,265.100 80.600 C 264.670 80.160,264.274 79.800,264.219 79.800 C 264.164 79.800,264.470 80.160,264.900 80.600 M168.450 81.143 C 168.753 81.189,169.248 81.189,169.550 81.143 C 169.853 81.097,169.605 81.060,169.000 81.060 C 168.395 81.060,168.148 81.097,168.450 81.143 M230.450 81.143 C 230.753 81.189,231.248 81.189,231.550 81.143 C 231.853 81.097,231.605 81.060,231.000 81.060 C 230.395 81.060,230.148 81.097,230.450 81.143 M75.793 98.150 L 74.700 99.300 75.850 98.207 C 76.918 97.191,77.092 97.000,76.943 97.000 C 76.912 97.000,76.394 97.517,75.793 98.150 M307.800 114.100 C 308.173 114.485,308.523 114.800,308.578 114.800 C 308.633 114.800,308.373 114.485,308.000 114.100 C 307.627 113.715,307.277 113.400,307.222 113.400 C 307.167 113.400,307.427 113.715,307.800 114.100 M64.867 125.000 C 64.867 125.825,64.903 126.163,64.946 125.750 C 64.989 125.338,64.989 124.663,64.946 124.250 C 64.903 123.838,64.867 124.175,64.867 125.000 M335.064 125.000 C 335.064 125.715,335.100 126.008,335.145 125.650 C 335.189 125.293,335.189 124.708,335.145 124.350 C 335.100 123.993,335.064 124.285,335.064 125.000 M256.646 131.800 C 256.646 132.185,256.688 132.343,256.738 132.150 C 256.788 131.958,256.788 131.643,256.738 131.450 C 256.688 131.258,256.646 131.415,256.646 131.800 M160.053 143.344 C 160.357 143.389,160.807 143.388,161.053 143.341 C 161.299 143.293,161.050 143.256,160.500 143.257 C 159.950 143.259,159.749 143.298,160.053 143.344 M172.000 148.100 C 172.373 148.485,172.723 148.800,172.778 148.800 C 172.833 148.800,172.573 148.485,172.200 148.100 C 171.827 147.715,171.477 147.400,171.422 147.400 C 171.367 147.400,171.627 147.715,172.000 148.100 M120.446 159.000 C 120.446 159.385,120.488 159.543,120.538 159.350 C 120.588 159.158,120.588 158.843,120.538 158.650 C 120.488 158.458,120.446 158.615,120.446 159.000 M143.260 160.000 C 143.260 160.605,143.297 160.853,143.343 160.550 C 143.389 160.248,143.389 159.753,143.343 159.450 C 143.297 159.148,143.260 159.395,143.260 160.000 M68.189 162.550 L 67.500 163.300 68.250 162.611 C 68.948 161.969,69.092 161.800,68.939 161.800 C 68.906 161.800,68.568 162.138,68.189 162.550 M331.200 162.063 C 331.200 162.097,331.493 162.390,331.850 162.713 L 332.500 163.300 331.913 162.650 C 331.365 162.044,331.200 161.908,331.200 162.063 M41.060 173.000 C 41.060 173.605,41.097 173.853,41.143 173.550 C 41.189 173.248,41.189 172.753,41.143 172.450 C 41.097 172.148,41.060 172.395,41.060 173.000 M358.854 173.200 C 358.854 173.695,358.893 173.898,358.941 173.650 C 358.989 173.403,358.989 172.998,358.941 172.750 C 358.893 172.503,358.854 172.705,358.854 173.200 M132.300 188.600 C 132.953 189.260,133.532 189.800,133.587 189.800 C 133.642 189.800,133.153 189.260,132.500 188.600 C 131.847 187.940,131.268 187.400,131.213 187.400 C 131.158 187.400,131.647 187.940,132.300 188.600 M41.066 226.500 C 41.067 227.270,41.103 227.560,41.146 227.146 C 41.189 226.731,41.189 226.101,41.144 225.746 C 41.100 225.390,41.065 225.730,41.066 226.500 M358.860 226.800 C 358.860 227.405,358.897 227.653,358.943 227.350 C 358.989 227.048,358.989 226.553,358.943 226.250 C 358.897 225.947,358.860 226.195,358.860 226.800 M227.589 227.750 L 226.900 228.500 227.650 227.811 C 228.063 227.432,228.400 227.094,228.400 227.061 C 228.400 226.908,228.231 227.052,227.589 227.750 M251.200 227.263 C 251.200 227.297,251.493 227.590,251.850 227.913 L 252.500 228.500 251.913 227.850 C 251.365 227.244,251.200 227.108,251.200 227.263 M68.300 237.600 C 68.730 238.040,69.126 238.400,69.181 238.400 C 69.236 238.400,68.930 238.040,68.500 237.600 C 68.070 237.160,67.674 236.800,67.619 236.800 C 67.564 236.800,67.870 237.160,68.300 237.600 M331.487 237.650 L 330.900 238.300 331.550 237.713 C 332.156 237.165,332.292 237.000,332.137 237.000 C 332.103 237.000,331.810 237.293,331.487 237.650 M256.646 239.800 C 256.646 240.185,256.688 240.343,256.738 240.150 C 256.788 239.957,256.788 239.643,256.738 239.450 C 256.688 239.257,256.646 239.415,256.646 239.800 M51.200 252.663 C 51.200 252.697,51.492 252.990,51.850 253.313 L 52.500 253.900 51.913 253.250 C 51.365 252.644,51.200 252.508,51.200 252.663 M239.350 256.741 C 239.597 256.789,240.003 256.789,240.250 256.741 C 240.498 256.693,240.295 256.654,239.800 256.654 C 239.305 256.654,239.103 256.693,239.350 256.741 M267.593 267.950 L 266.500 269.100 267.650 268.007 C 268.282 267.406,268.800 266.888,268.800 266.857 C 268.800 266.708,268.609 266.882,267.593 267.950 M64.870 275.200 C 64.870 276.135,64.904 276.518,64.946 276.050 C 64.989 275.582,64.989 274.818,64.946 274.350 C 64.904 273.882,64.870 274.265,64.870 275.200 M335.069 275.300 C 335.069 276.180,335.104 276.515,335.147 276.045 C 335.189 275.574,335.188 274.854,335.145 274.445 C 335.102 274.035,335.068 274.420,335.069 275.300 M91.600 285.463 C 91.600 285.497,91.892 285.790,92.250 286.113 L 92.900 286.700 92.313 286.050 C 91.765 285.444,91.600 285.308,91.600 285.463 M307.589 286.150 L 306.900 286.900 307.650 286.211 C 308.063 285.832,308.400 285.494,308.400 285.461 C 308.400 285.308,308.231 285.452,307.589 286.150 M323.793 302.150 L 322.700 303.300 323.850 302.207 C 324.918 301.191,325.092 301.000,324.943 301.000 C 324.912 301.000,324.394 301.518,323.793 302.150 M76.100 302.200 C 76.642 302.750,77.130 303.200,77.185 303.200 C 77.240 303.200,76.842 302.750,76.300 302.200 C 75.758 301.650,75.270 301.200,75.215 301.200 C 75.160 301.200,75.558 301.650,76.100 302.200 M118.900 335.600 C 119.442 336.150,119.930 336.600,119.985 336.600 C 120.040 336.600,119.642 336.150,119.100 335.600 C 118.558 335.050,118.070 334.600,118.015 334.600 C 117.960 334.600,118.358 335.050,118.900 335.600 M280.989 335.550 L 280.300 336.300 281.050 335.611 C 281.463 335.232,281.800 334.894,281.800 334.861 C 281.800 334.708,281.631 334.852,280.989 335.550 M199.546 336.144 C 199.901 336.189,200.531 336.189,200.946 336.146 C 201.360 336.103,201.070 336.067,200.300 336.066 C 199.530 336.065,199.190 336.100,199.546 336.144 M144.653 346.944 C 144.957 346.989,145.407 346.988,145.653 346.941 C 145.899 346.893,145.650 346.856,145.100 346.857 C 144.550 346.859,144.349 346.898,144.653 346.944 M147.250 346.938 C 147.442 346.988,147.758 346.988,147.950 346.938 C 148.143 346.888,147.985 346.846,147.600 346.846 C 147.215 346.846,147.058 346.888,147.250 346.938 M198.550 358.945 C 198.908 358.989,199.493 358.989,199.850 358.945 C 200.208 358.900,199.915 358.864,199.200 358.864 C 198.485 358.864,198.192 358.900,198.550 358.945 " stroke="none" fill="#b6cbcd" fill-rule="evenodd"></path><path id="path3" d="M132.200 132.100 C 131.714 132.595,131.362 133.000,131.417 133.000 C 131.472 133.000,131.914 132.595,132.400 132.100 C 132.886 131.605,133.238 131.200,133.183 131.200 C 133.128 131.200,132.686 131.605,132.200 132.100 M259.600 139.463 C 259.600 139.497,259.893 139.790,260.250 140.113 L 260.900 140.700 260.313 140.050 C 259.765 139.444,259.600 139.308,259.600 139.463 M244.850 143.343 C 245.153 143.389,245.648 143.389,245.950 143.343 C 246.253 143.297,246.005 143.260,245.400 143.260 C 244.795 143.260,244.548 143.297,244.850 143.343 M180.400 203.550 L 123.100 260.900 180.450 203.600 C 211.993 172.085,237.800 146.278,237.800 146.250 C 237.800 146.110,233.675 150.228,180.400 203.550 M84.389 150.750 L 83.700 151.500 84.450 150.811 C 85.148 150.169,85.292 150.000,85.139 150.000 C 85.106 150.000,84.768 150.338,84.389 150.750 M315.500 150.800 C 315.930 151.240,316.326 151.600,316.381 151.600 C 316.436 151.600,316.130 151.240,315.700 150.800 C 315.270 150.360,314.874 150.000,314.819 150.000 C 314.764 150.000,315.070 150.360,315.500 150.800 M177.246 161.200 C 177.246 161.585,177.288 161.743,177.338 161.550 C 177.388 161.358,177.388 161.043,177.338 160.850 C 177.288 160.658,177.246 160.815,177.246 161.200 M196.600 219.350 L 139.300 276.700 196.650 219.400 C 228.193 187.885,254.000 162.078,254.000 162.050 C 254.000 161.910,249.875 166.028,196.600 219.350 M160.752 177.341 C 161.001 177.389,161.361 177.387,161.552 177.337 C 161.744 177.287,161.540 177.248,161.100 177.250 C 160.660 177.253,160.504 177.294,160.752 177.341 M237.650 200.138 C 237.843 200.188,238.157 200.188,238.350 200.138 C 238.543 200.088,238.385 200.046,238.000 200.046 C 237.615 200.046,237.457 200.088,237.650 200.138 M240.050 222.738 C 240.243 222.788,240.558 222.788,240.750 222.738 C 240.943 222.688,240.785 222.646,240.400 222.646 C 240.015 222.646,239.857 222.688,240.050 222.738 M222.646 240.600 C 222.646 240.985,222.688 241.143,222.738 240.950 C 222.788 240.757,222.788 240.443,222.738 240.250 C 222.688 240.058,222.646 240.215,222.646 240.600 M84.400 249.300 C 84.773 249.685,85.123 250.000,85.178 250.000 C 85.233 250.000,84.973 249.685,84.600 249.300 C 84.227 248.915,83.877 248.600,83.822 248.600 C 83.767 248.600,84.027 248.915,84.400 249.300 M315.389 249.350 L 314.700 250.100 315.450 249.411 C 315.863 249.032,316.200 248.694,316.200 248.661 C 316.200 248.508,316.031 248.652,315.389 249.350 " stroke="none" fill="#93b4b4" fill-rule="evenodd"></path><path id="path4" d="M252.350 53.145 C 252.707 53.189,253.293 53.189,253.650 53.145 C 254.007 53.100,253.715 53.064,253.000 53.064 C 252.285 53.064,251.993 53.100,252.350 53.145 M252.146 346.944 C 252.501 346.989,253.131 346.989,253.546 346.946 C 253.960 346.903,253.670 346.867,252.900 346.866 C 252.130 346.865,251.790 346.900,252.146 346.944 " stroke="none" fill="#a0bcbc" fill-rule="evenodd"></path></g></svg>