<svg id="svg" version="1.1" xmlns="http://www.w3.org/2000/svg" xmlns:xlink="http://www.w3.org/1999/xlink" width="400" height="400" viewBox="0, 0, 400,400"><g id="svgg"><path id="path0" d="M198.300 40.376 C 195.905 41.242,196.271 40.942,180.800 54.710 C 171.619 62.880,166.725 67.248,159.302 73.900 C 156.356 76.540,152.765 79.725,151.323 80.979 C 149.880 82.232,146.675 85.026,144.200 87.187 C 141.725 89.348,136.694 93.723,133.020 96.908 C 129.346 100.094,124.126 104.626,121.420 106.980 C 118.714 109.334,109.885 116.982,101.800 123.974 C 93.715 130.966,85.435 138.130,83.400 139.894 C 81.365 141.658,77.274 145.170,74.308 147.700 C 65.160 155.505,63.755 156.760,62.040 158.661 C 57.286 163.927,54.402 170.471,53.383 178.300 C 52.982 181.385,53.118 327.921,53.525 331.200 C 55.544 347.446,66.578 357.944,83.371 359.596 C 86.227 359.877,313.747 359.879,316.629 359.598 C 333.671 357.937,344.798 347.055,346.588 330.300 C 346.972 326.708,346.897 180.277,346.510 177.629 C 345.412 170.114,342.544 163.753,337.965 158.676 C 336.321 156.852,336.258 156.797,326.300 148.277 C 322.340 144.889,317.701 140.898,315.991 139.409 C 314.281 137.919,310.326 134.495,307.200 131.800 C 304.075 129.105,299.759 125.368,297.609 123.496 C 295.459 121.624,292.395 118.972,290.800 117.602 C 289.205 116.232,286.455 113.849,284.689 112.306 C 281.376 109.412,276.265 104.963,271.200 100.564 C 269.605 99.179,266.041 96.078,263.279 93.673 C 260.518 91.268,255.598 87.005,252.346 84.200 C 249.095 81.395,246.449 78.997,246.467 78.872 C 246.500 78.646,241.957 74.587,225.700 60.318 C 221.080 56.262,214.571 50.549,211.236 47.622 C 202.585 40.029,201.281 39.298,198.300 40.376 M202.714 62.851 C 208.473 67.805,211.156 70.222,211.971 71.189 C 212.442 71.747,214.913 74.029,217.463 76.260 C 224.631 82.531,237.708 93.914,242.094 97.700 C 249.427 104.031,282.892 133.044,290.416 139.594 C 293.010 141.852,297.375 145.644,300.116 148.020 C 302.857 150.396,307.310 154.266,310.010 156.620 C 312.711 158.974,317.144 162.835,319.862 165.200 L 324.803 169.500 324.251 169.984 C 323.948 170.250,306.240 185.412,284.900 203.678 C 249.594 233.898,241.013 241.262,234.830 246.648 C 233.691 247.640,232.643 248.462,232.501 248.476 C 232.358 248.489,228.073 244.900,222.977 240.500 C 204.019 224.130,204.734 224.704,202.459 224.002 C 199.631 223.128,197.011 223.694,194.206 225.783 C 193.401 226.384,188.317 230.740,176.332 241.100 C 171.624 245.170,167.689 248.530,167.587 248.566 C 167.486 248.602,165.861 247.297,163.976 245.666 C 162.091 244.035,159.100 241.453,157.330 239.929 C 155.560 238.404,153.524 236.635,152.806 235.998 C 151.591 234.919,125.627 212.572,90.319 182.215 L 75.337 169.334 75.930 168.817 C 76.256 168.533,78.543 166.542,81.012 164.392 C 85.693 160.317,92.662 154.233,110.000 139.088 C 115.665 134.139,123.450 127.344,127.300 123.988 C 131.150 120.632,139.964 112.940,146.887 106.893 C 165.687 90.475,176.788 80.793,181.700 76.531 C 184.120 74.431,187.320 71.630,188.811 70.307 C 190.303 68.983,193.132 66.505,195.100 64.800 C 197.067 63.095,198.952 61.455,199.288 61.156 C 200.077 60.454,199.727 60.281,202.714 62.851 M195.700 109.324 C 163.206 112.682,144.321 146.377,158.497 175.700 C 168.178 195.724,191.446 205.908,213.100 199.600 C 216.454 198.623,222.805 195.761,224.549 194.439 L 224.999 194.099 222.484 189.900 C 221.101 187.590,219.837 185.495,219.676 185.243 L 219.382 184.787 218.141 185.509 C 194.082 199.505,164.837 182.742,164.912 155.000 C 164.998 123.012,204.363 108.047,226.604 131.547 C 236.073 141.553,238.360 158.450,231.378 166.823 C 228.862 169.839,224.594 170.712,222.596 168.618 C 221.263 167.221,221.319 168.006,221.250 149.750 L 221.187 133.200 215.793 133.200 L 210.400 133.200 210.400 134.500 C 210.400 135.215,210.367 135.800,210.328 135.800 C 210.288 135.800,209.592 135.527,208.782 135.193 C 188.980 127.027,169.839 147.578,179.581 166.544 C 185.340 177.756,201.265 181.874,212.054 174.941 C 213.486 174.021,213.211 173.960,214.773 175.552 C 222.020 182.937,234.663 180.520,241.194 170.500 C 251.385 154.866,245.660 131.196,228.624 118.526 C 219.491 111.734,206.772 108.179,195.700 109.324 M203.795 145.065 C 206.344 145.963,208.271 147.487,209.877 149.878 L 210.400 150.656 210.400 155.994 L 210.400 161.331 209.788 162.255 C 205.084 169.357,193.231 168.853,189.306 161.386 C 184.372 151.995,193.686 141.503,203.795 145.065 M72.898 186.616 C 75.215 188.602,98.033 208.108,103.800 213.032 C 109.257 217.692,120.000 226.946,128.716 234.494 C 132.777 238.011,139.745 244.030,144.200 247.868 C 156.245 258.247,156.224 258.229,156.160 258.414 C 156.127 258.508,153.985 260.401,151.400 262.622 C 148.815 264.842,143.505 269.422,139.600 272.800 C 121.127 288.780,116.862 292.462,110.995 297.493 C 98.711 308.028,94.518 311.767,93.768 312.853 C 89.104 319.612,97.106 327.422,103.979 322.820 C 104.806 322.267,128.499 301.856,177.897 259.143 C 197.733 241.991,199.322 240.663,199.685 240.917 C 200.013 241.147,200.128 241.148,200.389 240.924 C 200.659 240.691,202.253 242.000,212.600 250.951 C 219.145 256.612,231.250 267.074,239.500 274.199 C 247.750 281.324,263.609 295.027,274.743 304.651 C 285.877 314.275,295.439 322.440,295.993 322.796 C 303.594 327.673,311.594 318.538,305.464 311.982 C 304.934 311.415,300.900 307.831,296.500 304.018 C 286.329 295.205,269.984 281.080,260.700 273.083 C 248.500 262.574,243.902 258.571,243.840 258.403 C 243.787 258.259,245.781 256.489,253.300 250.008 C 256.891 246.913,264.975 239.942,267.700 237.590 C 269.020 236.451,271.180 234.583,272.500 233.438 C 284.456 223.070,288.922 219.245,303.021 207.296 C 310.715 200.775,323.647 189.800,329.019 185.231 L 329.805 184.563 329.752 257.031 L 329.700 329.500 329.226 331.200 C 327.588 337.076,324.324 340.393,318.638 341.965 L 316.700 342.500 201.000 342.558 C 82.903 342.618,83.949 342.624,81.050 341.885 C 75.862 340.563,72.263 336.825,70.759 331.200 L 70.305 329.500 70.250 256.924 C 70.198 187.793,70.212 184.360,70.546 184.624 C 70.738 184.776,71.797 185.672,72.898 186.616 " stroke="none" fill="#3c747c" fill-rule="evenodd"></path><path id="path1" d="M0.000 200.000 L 0.000 400.000 200.000 400.000 L 400.000 400.000 400.000 200.000 L 400.000 0.000 200.000 0.000 L 0.000 0.000 0.000 200.000 M203.020 40.842 C 204.282 41.467,206.501 43.330,218.100 53.508 C 243.564 75.852,246.774 78.700,246.737 78.913 C 246.717 79.030,249.220 81.315,252.300 83.992 C 255.380 86.668,259.925 90.621,262.400 92.775 C 264.875 94.930,269.285 98.761,272.200 101.288 C 275.115 103.816,278.269 106.563,279.210 107.392 C 280.150 108.221,283.206 110.880,286.000 113.300 C 288.795 115.720,293.470 119.772,296.391 122.305 C 305.266 130.003,310.385 134.431,312.059 135.861 C 312.936 136.610,315.284 138.640,317.277 140.373 C 322.226 144.676,332.033 153.081,333.500 154.278 C 341.403 160.724,345.748 168.900,346.799 179.300 C 347.222 183.482,346.971 329.626,346.537 332.093 C 343.791 347.702,334.109 357.165,318.454 359.543 C 315.317 360.019,85.869 360.108,82.300 359.635 C 65.260 357.372,54.760 346.499,53.202 329.500 C 52.915 326.367,52.925 181.473,53.212 178.842 C 54.374 168.217,58.537 160.870,67.800 153.100 C 70.456 150.872,81.867 141.104,84.400 138.891 C 85.555 137.881,93.205 131.259,101.400 124.175 C 109.595 117.091,118.415 109.454,121.000 107.204 C 129.353 99.933,136.202 93.982,140.600 90.171 C 150.813 81.323,155.257 77.401,166.482 67.331 C 167.812 66.137,169.625 64.517,170.512 63.731 C 171.398 62.944,176.528 58.383,181.912 53.595 C 187.295 48.808,192.554 44.141,193.598 43.224 C 197.390 39.894,199.848 39.272,203.020 40.842 M198.783 61.755 C 197.546 62.801,191.958 67.672,185.987 72.909 C 183.849 74.784,178.593 79.374,174.308 83.109 C 164.680 91.500,165.037 91.188,147.488 106.514 C 139.562 113.436,130.028 121.755,126.301 125.000 C 122.575 128.245,112.317 137.200,103.506 144.900 C 94.695 152.600,84.813 161.231,81.545 164.081 C 76.706 168.300,75.646 169.314,75.835 169.542 C 75.963 169.696,80.799 173.890,86.582 178.861 C 116.787 204.828,149.470 232.957,153.800 236.713 C 168.054 249.080,167.471 248.597,167.795 248.317 C 194.933 224.873,194.365 225.350,196.190 224.442 C 197.651 223.714,197.724 223.700,200.000 223.700 C 203.922 223.700,202.705 222.829,221.575 239.148 L 232.450 248.553 237.775 243.952 C 246.080 236.776,254.222 229.797,290.200 199.016 C 308.625 183.253,323.905 170.159,324.155 169.918 L 324.610 169.481 319.655 165.168 C 316.930 162.796,311.055 157.677,306.600 153.793 C 302.145 149.910,297.330 145.725,295.900 144.495 C 294.470 143.264,291.815 140.964,290.000 139.384 C 288.185 137.804,282.650 132.996,277.700 128.699 C 272.750 124.403,266.323 118.820,263.417 116.294 C 260.511 113.767,256.770 110.530,255.104 109.100 C 250.366 105.033,230.413 87.725,224.100 82.206 C 214.251 73.595,212.349 71.894,211.802 71.202 C 210.936 70.109,200.396 60.792,200.039 60.805 C 199.963 60.808,199.397 61.235,198.783 61.755 M206.800 109.499 C 233.811 113.336,252.326 139.514,244.767 163.178 C 239.818 178.670,223.995 185.213,214.717 175.603 L 213.380 174.218 212.340 174.882 C 198.393 183.783,179.532 175.499,177.090 159.400 C 174.349 141.317,192.332 128.195,209.850 135.497 C 210.163 135.627,210.200 135.502,210.200 134.321 L 210.200 133.000 215.795 133.000 L 221.389 133.000 221.445 149.850 C 221.500 166.666,221.501 166.702,221.931 167.500 C 224.147 171.618,230.379 169.624,233.168 163.904 C 237.789 154.428,234.750 140.186,226.221 131.342 C 203.925 108.226,164.983 123.397,164.983 155.200 C 164.983 182.477,194.450 199.385,217.851 185.536 L 219.403 184.618 219.681 185.059 C 220.772 186.784,225.027 193.896,225.060 194.048 C 225.289 195.127,214.600 199.594,209.182 200.684 C 171.418 208.280,141.365 169.073,158.527 134.600 C 165.818 119.955,179.340 110.882,196.500 109.121 C 198.169 108.950,204.594 109.185,206.800 109.499 M196.469 144.981 C 185.143 148.222,185.351 164.188,196.754 166.823 C 201.879 168.007,206.888 166.233,209.624 162.264 L 210.200 161.428 210.200 156.010 L 210.200 150.592 209.668 149.746 C 207.115 145.690,201.312 143.595,196.469 144.981 M70.350 245.350 C 70.421 330.786,70.412 329.523,70.960 331.489 C 72.613 337.417,76.501 340.946,82.638 342.093 C 84.131 342.372,96.166 342.398,200.700 342.352 L 317.100 342.300 318.700 341.851 C 324.152 340.322,327.454 337.001,329.029 331.462 C 329.578 329.531,329.578 329.524,329.650 244.367 C 329.694 191.476,329.667 184.859,329.400 185.061 C 329.235 185.186,328.470 185.835,327.700 186.505 C 326.930 187.174,323.645 189.962,320.400 192.700 C 317.155 195.438,313.600 198.452,312.500 199.398 C 310.174 201.398,298.207 211.538,296.093 213.300 C 293.928 215.105,288.386 219.838,285.900 222.006 C 283.812 223.826,271.794 234.209,266.806 238.500 C 265.528 239.600,262.866 241.894,260.891 243.598 C 258.916 245.302,254.285 249.298,250.600 252.477 C 246.915 255.656,243.877 258.274,243.850 258.295 C 243.796 258.337,248.663 262.564,262.497 274.488 C 267.339 278.661,275.935 286.083,281.600 290.980 C 307.872 313.693,306.063 312.045,307.079 314.191 C 309.792 319.914,303.778 326.148,297.782 323.828 C 295.944 323.117,295.083 322.405,273.808 304.000 C 207.554 246.686,200.720 240.829,200.341 241.032 C 200.089 241.166,199.885 241.153,199.687 240.989 C 199.330 240.693,202.839 237.734,174.301 262.400 C 117.501 311.495,104.905 322.334,103.947 322.945 C 96.329 327.800,88.336 318.676,94.349 311.988 C 95.237 311.000,102.373 304.727,111.200 297.173 C 113.455 295.244,122.095 287.791,130.400 280.611 C 138.705 273.432,147.913 265.484,150.862 262.950 C 153.810 260.416,156.150 258.280,156.062 258.203 C 155.973 258.126,154.595 256.949,153.000 255.586 C 148.876 252.062,140.027 244.427,128.900 234.793 C 118.385 225.688,107.534 216.368,88.400 200.007 C 81.525 194.128,74.664 188.256,73.153 186.959 C 71.642 185.662,70.382 184.600,70.353 184.600 C 70.324 184.600,70.323 211.937,70.350 245.350 " stroke="none" fill="#fbfbfb" fill-rule="evenodd"></path><path id="path2" d="M225.700 130.800 C 226.242 131.350,226.730 131.800,226.785 131.800 C 226.840 131.800,226.442 131.350,225.900 130.800 C 225.358 130.250,224.870 129.800,224.815 129.800 C 224.760 129.800,225.158 130.250,225.700 130.800 M199.150 133.341 C 199.398 133.389,199.803 133.389,200.050 133.341 C 200.298 133.293,200.095 133.254,199.600 133.254 C 199.105 133.254,198.903 133.293,199.150 133.341 M199.450 144.538 C 199.643 144.588,199.958 144.588,200.150 144.538 C 200.343 144.488,200.185 144.446,199.800 144.446 C 199.415 144.446,199.258 144.488,199.450 144.538 M164.850 154.300 C 164.853 154.740,164.894 154.896,164.941 154.648 C 164.989 154.399,164.987 154.039,164.937 153.848 C 164.887 153.656,164.848 153.860,164.850 154.300 M164.854 156.200 C 164.854 156.695,164.893 156.898,164.941 156.650 C 164.989 156.403,164.989 155.998,164.941 155.750 C 164.893 155.503,164.854 155.705,164.854 156.200 M208.287 163.850 L 207.700 164.500 208.350 163.913 C 208.956 163.365,209.092 163.200,208.937 163.200 C 208.903 163.200,208.610 163.493,208.287 163.850 M165.800 186.663 C 165.800 186.697,166.093 186.990,166.450 187.313 L 167.100 187.900 166.513 187.250 C 165.965 186.644,165.800 186.508,165.800 186.663 M329.694 203.900 C 329.694 210.500,329.719 213.171,329.750 209.836 C 329.781 206.500,329.781 201.100,329.750 197.836 C 329.719 194.571,329.694 197.300,329.694 203.900 M70.295 206.300 C 70.295 213.890,70.320 216.966,70.350 213.135 C 70.380 209.305,70.380 203.095,70.350 199.335 C 70.319 195.576,70.295 198.710,70.295 206.300 M143.050 342.550 C 174.373 342.578,225.628 342.578,256.950 342.550 C 288.273 342.522,262.645 342.499,200.000 342.499 C 137.355 342.499,111.728 342.522,143.050 342.550 M143.250 359.950 C 174.463 359.978,225.538 359.978,256.750 359.950 C 287.963 359.922,262.425 359.899,200.000 359.899 C 137.575 359.899,112.038 359.922,143.250 359.950 " stroke="none" fill="#ccdcdc" fill-rule="evenodd"></path><path id="path3" d="M167.291 122.450 L 166.500 123.300 167.350 122.509 C 168.140 121.774,168.292 121.600,168.141 121.600 C 168.108 121.600,167.725 121.983,167.291 122.450 M329.699 271.100 C 329.699 301.570,329.722 314.005,329.750 298.734 C 329.778 283.462,329.778 258.532,329.750 243.334 C 329.722 228.135,329.699 240.630,329.699 271.100 M70.299 273.200 C 70.299 302.515,70.322 314.507,70.350 299.850 C 70.378 285.192,70.378 261.207,70.350 246.550 C 70.322 231.892,70.299 243.885,70.299 273.200 M346.897 255.400 C 346.897 269.535,346.921 275.318,346.950 268.250 C 346.979 261.183,346.979 249.618,346.950 242.550 C 346.921 235.482,346.897 241.265,346.897 255.400 M53.096 252.600 C 53.096 263.655,53.120 268.177,53.150 262.650 C 53.180 257.122,53.180 248.077,53.150 242.550 C 53.120 237.023,53.096 241.545,53.096 252.600 M53.066 274.700 C 53.067 275.470,53.103 275.760,53.146 275.346 C 53.189 274.931,53.189 274.301,53.144 273.946 C 53.100 273.590,53.065 273.930,53.066 274.700 M346.850 326.900 C 346.853 327.340,346.894 327.496,346.941 327.248 C 346.989 326.999,346.987 326.639,346.937 326.448 C 346.887 326.256,346.848 326.460,346.850 326.900 M53.046 327.000 C 53.046 327.385,53.088 327.543,53.138 327.350 C 53.188 327.158,53.188 326.843,53.138 326.650 C 53.088 326.457,53.046 326.615,53.046 327.000 M85.250 342.538 C 85.442 342.588,85.758 342.588,85.950 342.538 C 86.142 342.488,85.985 342.446,85.600 342.446 C 85.215 342.446,85.058 342.488,85.250 342.538 " stroke="none" fill="#b8cdcd" fill-rule="evenodd"></path><path id="path4" d="M199.050 109.147 C 199.572 109.188,200.428 109.188,200.950 109.147 C 201.472 109.106,201.045 109.072,200.000 109.072 C 198.955 109.072,198.528 109.106,199.050 109.147 M195.450 109.338 C 195.643 109.388,195.958 109.388,196.150 109.338 C 196.343 109.288,196.185 109.246,195.800 109.246 C 195.415 109.246,195.258 109.288,195.450 109.338 M199.350 120.146 C 199.817 120.189,200.583 120.189,201.050 120.146 C 201.518 120.104,201.135 120.070,200.200 120.070 C 199.265 120.070,198.883 120.104,199.350 120.146 M233.500 122.800 C 234.264 123.570,234.934 124.200,234.989 124.200 C 235.044 124.200,234.464 123.570,233.700 122.800 C 232.936 122.030,232.266 121.400,232.211 121.400 C 232.156 121.400,232.736 122.030,233.500 122.800 M210.305 133.247 C 210.145 133.726,210.100 135.801,210.250 135.800 C 210.332 135.800,210.400 135.215,210.400 134.500 L 210.400 133.200 215.799 133.200 L 221.198 133.200 221.251 149.250 L 221.304 165.300 221.302 149.200 L 221.300 133.100 215.845 133.047 C 211.584 133.005,210.371 133.049,210.305 133.247 M210.288 156.000 C 210.288 159.025,210.316 160.263,210.350 158.750 C 210.383 157.238,210.383 154.763,210.350 153.250 C 210.316 151.738,210.288 152.975,210.288 156.000 M246.274 152.800 C 246.274 153.955,246.307 154.428,246.347 153.850 C 246.388 153.273,246.388 152.328,246.347 151.750 C 246.307 151.172,246.274 151.645,246.274 152.800 M235.276 153.300 C 235.277 154.620,235.309 155.134,235.348 154.442 C 235.387 153.750,235.387 152.670,235.348 152.042 C 235.308 151.414,235.276 151.980,235.276 153.300 M164.850 152.700 C 164.853 153.140,164.894 153.296,164.941 153.048 C 164.989 152.799,164.987 152.439,164.937 152.248 C 164.887 152.056,164.848 152.260,164.850 152.700 M153.676 155.300 C 153.677 156.620,153.709 157.134,153.748 156.442 C 153.787 155.750,153.787 154.670,153.748 154.042 C 153.708 153.414,153.676 153.980,153.676 155.300 M176.866 155.900 C 176.867 156.670,176.903 156.960,176.946 156.546 C 176.989 156.131,176.989 155.501,176.944 155.146 C 176.900 154.790,176.865 155.130,176.866 155.900 M164.850 157.700 C 164.853 158.140,164.894 158.296,164.941 158.048 C 164.989 157.799,164.987 157.439,164.937 157.248 C 164.887 157.056,164.848 157.260,164.850 157.700 M230.687 167.450 L 230.100 168.100 230.750 167.513 C 231.356 166.965,231.492 166.800,231.337 166.800 C 231.303 166.800,231.010 167.093,230.687 167.450 M199.354 167.345 C 199.713 167.389,200.253 167.389,200.554 167.343 C 200.854 167.297,200.560 167.261,199.900 167.262 C 199.240 167.263,198.994 167.300,199.354 167.345 M324.357 169.237 C 324.540 169.420,324.515 169.569,324.247 169.887 C 323.901 170.299,323.901 170.299,324.349 169.920 C 324.759 169.573,324.688 169.000,324.236 169.000 C 324.172 169.000,324.227 169.107,324.357 169.237 M225.053 169.744 C 225.357 169.789,225.807 169.788,226.053 169.741 C 226.299 169.693,226.050 169.656,225.500 169.657 C 224.950 169.659,224.749 169.698,225.053 169.744 M197.750 178.341 C 197.998 178.389,198.403 178.389,198.650 178.341 C 198.898 178.293,198.695 178.254,198.200 178.254 C 197.705 178.254,197.503 178.293,197.750 178.341 M200.750 178.341 C 200.998 178.389,201.403 178.389,201.650 178.341 C 201.898 178.293,201.695 178.254,201.200 178.254 C 200.705 178.254,200.503 178.293,200.750 178.341 M53.046 181.400 C 53.046 181.785,53.088 181.942,53.138 181.750 C 53.188 181.558,53.188 181.243,53.138 181.050 C 53.088 180.858,53.046 181.015,53.046 181.400 M346.846 181.800 C 346.846 182.185,346.888 182.343,346.938 182.150 C 346.988 181.958,346.988 181.643,346.938 181.450 C 346.888 181.258,346.846 181.415,346.846 181.800 M199.550 190.545 C 199.908 190.589,200.493 190.589,200.850 190.545 C 201.208 190.500,200.915 190.464,200.200 190.464 C 199.485 190.464,199.192 190.500,199.550 190.545 M346.895 213.500 C 346.895 222.520,346.920 226.181,346.950 221.635 C 346.980 217.089,346.980 209.709,346.950 205.235 C 346.920 200.761,346.895 204.480,346.895 213.500 M53.096 215.400 C 53.096 224.915,53.120 228.808,53.150 224.050 C 53.180 219.293,53.180 211.508,53.150 206.750 C 53.120 201.993,53.096 205.885,53.096 215.400 M197.346 201.544 C 197.701 201.589,198.331 201.589,198.746 201.546 C 199.160 201.503,198.870 201.467,198.100 201.466 C 197.330 201.465,196.990 201.500,197.346 201.544 M200.946 201.544 C 201.301 201.589,201.931 201.589,202.346 201.546 C 202.760 201.503,202.470 201.467,201.700 201.466 C 200.930 201.465,200.590 201.500,200.946 201.544 M53.097 301.200 C 53.097 315.115,53.121 320.808,53.150 313.850 C 53.179 306.892,53.179 295.507,53.150 288.550 C 53.121 281.592,53.097 287.285,53.097 301.200 M346.897 303.600 C 346.897 316.085,346.921 321.193,346.950 314.950 C 346.979 308.708,346.979 298.493,346.950 292.250 C 346.921 286.008,346.897 291.115,346.897 303.600 M304.400 310.863 C 304.400 310.897,304.693 311.190,305.050 311.513 L 305.700 312.100 305.113 311.450 C 304.565 310.844,304.400 310.708,304.400 310.863 M92.254 317.000 C 92.254 317.495,92.293 317.697,92.341 317.450 C 92.389 317.203,92.389 316.798,92.341 316.550 C 92.293 316.303,92.254 316.505,92.254 317.000 M307.646 317.200 C 307.646 317.585,307.688 317.743,307.738 317.550 C 307.788 317.358,307.788 317.043,307.738 316.850 C 307.688 316.658,307.646 316.815,307.646 317.200 M70.254 327.200 C 70.254 327.695,70.293 327.898,70.341 327.650 C 70.389 327.403,70.389 326.998,70.341 326.750 C 70.293 326.503,70.254 326.705,70.254 327.200 M329.654 327.200 C 329.654 327.695,329.693 327.898,329.741 327.650 C 329.789 327.403,329.789 326.998,329.741 326.750 C 329.693 326.503,329.654 326.705,329.654 327.200 M62.100 350.200 C 62.753 350.860,63.332 351.400,63.387 351.400 C 63.442 351.400,62.953 350.860,62.300 350.200 C 61.647 349.540,61.068 349.000,61.013 349.000 C 60.958 349.000,61.447 349.540,62.100 350.200 M337.492 350.450 L 336.500 351.500 337.550 350.508 C 338.128 349.962,338.600 349.489,338.600 349.458 C 338.600 349.308,338.415 349.474,337.492 350.450 " stroke="none" fill="#94b4b4" fill-rule="evenodd"></path></g></svg>