<svg id="svg" version="1.1" xmlns="http://www.w3.org/2000/svg" xmlns:xlink="http://www.w3.org/1999/xlink" width="400" height="400" viewBox="0, 0, 400,400"><g id="svgg"><path id="path0" d="M75.352 56.012 C 73.667 56.902,73.800 54.349,73.800 85.880 L 73.800 113.776 72.050 114.298 C 59.903 117.924,51.779 120.975,44.207 124.756 C 40.954 126.380,40.507 126.754,40.191 128.115 C 39.948 129.166,39.948 340.234,40.191 341.285 C 40.852 344.134,42.480 344.500,47.928 343.027 C 98.070 329.472,153.292 329.431,195.454 342.919 C 199.132 344.095,199.913 344.095,203.562 342.914 C 231.240 333.961,267.086 330.868,304.400 334.214 C 318.128 335.445,338.139 339.157,352.322 343.104 C 356.846 344.362,358.288 344.273,359.339 342.668 C 359.686 342.139,359.700 337.926,359.700 235.473 L 359.700 128.829 359.288 128.277 C 357.799 126.283,354.830 126.318,353.570 128.344 L 353.100 129.100 353.049 217.747 L 352.998 306.394 351.849 305.875 C 343.882 302.274,333.325 298.584,325.052 296.510 C 292.866 288.440,257.354 289.423,223.647 299.317 C 215.479 301.714,209.357 299.328,208.210 293.300 C 207.794 291.113,208.026 138.053,208.448 136.400 C 209.507 132.251,211.459 128.820,213.756 127.067 C 215.156 126.000,224.643 123.009,233.985 120.689 C 236.384 120.094,238.491 119.461,238.773 119.251 C 241.275 117.382,240.229 113.496,237.158 113.249 C 234.188 113.010,216.669 118.176,205.829 122.488 C 203.150 123.553,200.928 124.394,200.890 124.356 C 200.852 124.318,200.116 123.165,199.255 121.794 C 181.645 93.745,149.016 71.028,112.400 61.323 C 98.267 57.577,77.915 54.660,75.352 56.012 M84.800 63.002 C 109.889 65.847,133.339 73.771,152.694 85.944 C 170.635 97.228,187.252 113.777,195.410 128.485 L 196.195 129.900 196.197 214.650 C 196.199 261.262,196.133 299.400,196.050 299.399 C 195.968 299.399,195.111 298.286,194.146 296.927 C 171.101 264.453,132.138 243.505,86.200 238.891 C 83.285 238.598,80.788 238.326,80.650 238.286 C 80.450 238.227,80.400 220.479,80.400 150.406 L 80.400 62.600 80.850 62.602 C 81.098 62.604,82.875 62.784,84.800 63.002 M303.292 78.695 C 297.008 80.063,293.051 86.774,294.975 92.800 L 295.390 94.100 294.945 94.522 C 294.700 94.753,285.372 102.808,274.216 112.422 C 247.906 135.093,249.214 133.968,249.011 134.093 C 248.915 134.153,248.393 133.979,247.851 133.707 C 237.367 128.441,226.807 141.526,234.137 150.700 C 236.695 153.902,262.194 183.229,262.968 183.860 C 269.081 188.841,278.095 186.069,280.721 178.400 C 281.218 176.951,281.223 173.324,280.731 172.025 C 280.549 171.544,280.406 171.004,280.413 170.825 C 280.438 170.228,295.196 157.708,295.499 158.026 C 295.643 158.177,298.974 162.035,302.901 166.600 C 325.448 192.809,324.397 191.646,326.479 192.664 C 334.802 196.733,344.230 189.078,341.902 180.141 C 341.172 177.339,342.277 178.734,324.535 158.200 L 311.833 143.500 312.390 143.000 C 312.696 142.725,316.062 139.815,319.871 136.534 L 326.795 130.569 328.048 131.159 C 338.008 135.850,348.236 124.266,342.234 115.092 C 341.336 113.718,314.914 83.006,313.332 81.496 C 310.699 78.982,306.873 77.915,303.292 78.695 M111.085 93.004 C 108.964 94.054,108.737 97.395,110.700 98.681 C 111.341 99.102,115.055 99.999,116.154 100.000 C 118.544 100.000,120.033 97.236,118.812 95.065 C 117.808 93.278,113.079 92.017,111.085 93.004 M310.805 112.697 L 322.000 125.690 321.550 126.117 C 320.558 127.055,276.410 165.027,276.269 165.062 C 276.077 165.110,253.821 139.370,253.821 139.100 C 253.821 138.859,299.234 99.619,299.455 99.668 C 299.540 99.687,304.647 105.550,310.805 112.697 M135.670 101.410 C 134.241 101.844,133.145 103.960,133.586 105.433 C 133.998 106.806,134.605 107.261,138.690 109.262 C 149.720 114.664,161.528 123.050,170.632 131.945 C 174.938 136.153,177.081 136.768,178.782 134.285 C 180.116 132.338,179.601 131.235,175.471 127.196 C 162.802 114.806,140.066 100.076,135.670 101.410 M111.083 118.284 C 109.371 119.030,108.762 121.377,109.825 123.129 C 110.407 124.087,110.916 124.324,114.260 125.190 C 133.720 130.227,154.974 142.541,171.832 158.543 C 175.184 161.726,176.954 162.045,178.651 159.772 C 180.317 157.541,179.393 156.036,172.730 150.132 C 155.691 135.034,135.374 123.696,116.600 118.809 C 113.338 117.960,112.099 117.842,111.083 118.284 M111.500 143.500 C 108.976 144.393,108.482 147.863,110.669 149.346 C 111.016 149.582,112.245 150.010,113.400 150.298 C 132.868 155.155,155.106 167.936,171.816 183.871 C 175.134 187.035,177.771 187.273,179.075 184.525 C 180.063 182.443,179.305 181.347,172.964 175.683 C 155.952 160.491,135.260 148.957,116.290 144.095 C 112.370 143.090,112.586 143.117,111.500 143.500 M324.494 168.500 C 335.698 181.499,335.460 181.189,335.471 182.800 C 335.490 185.399,333.436 187.208,330.760 186.951 C 329.446 186.825,328.860 186.318,325.416 182.333 C 310.221 164.749,305.227 158.905,305.316 158.810 C 305.509 158.604,313.298 156.432,313.725 156.466 C 314.020 156.490,317.318 160.175,324.494 168.500 M110.790 166.651 C 109.217 167.711,109.307 166.794,109.245 182.459 C 109.176 199.834,108.905 198.623,113.180 200.053 C 119.501 202.166,126.733 205.660,131.700 208.999 C 133.985 210.535,135.362 210.751,136.880 209.812 C 138.474 208.827,138.417 209.456,138.355 193.476 L 138.300 179.300 137.848 178.666 C 136.479 176.747,127.759 171.785,120.600 168.851 C 114.288 166.264,112.094 165.772,110.790 166.651 M150.800 186.144 C 149.419 186.663,148.506 188.151,148.650 189.650 C 148.803 191.240,149.031 191.458,153.312 194.100 C 158.716 197.435,164.927 202.462,171.507 208.827 C 173.968 211.207,174.186 211.368,175.268 211.610 C 177.863 212.191,179.955 210.043,179.212 207.562 C 178.515 205.236,165.836 194.111,158.393 189.295 C 153.555 186.165,152.220 185.611,150.800 186.144 M150.198 211.850 C 149.045 212.635,148.700 213.283,148.700 214.665 C 148.700 216.431,149.061 216.834,152.569 218.975 C 158.196 222.409,164.665 227.580,170.905 233.631 C 173.822 236.459,174.202 236.760,175.131 236.983 C 178.047 237.683,180.244 235.153,179.023 232.500 C 178.113 230.522,168.069 221.508,161.600 216.863 C 154.388 211.685,151.990 210.630,150.198 211.850 M249.443 212.888 C 244.222 214.163,240.846 218.481,240.482 224.350 L 240.343 226.600 239.481 226.600 C 235.423 226.600,230.712 229.700,228.842 233.600 C 226.915 237.619,226.722 246.638,228.529 248.242 C 229.669 249.255,227.132 249.200,272.851 249.200 L 315.315 249.200 316.206 248.750 C 317.342 248.176,317.937 247.274,318.114 245.857 C 318.348 243.988,318.075 237.457,317.707 236.100 C 316.300 230.911,311.876 227.177,306.500 226.640 L 305.100 226.500 304.976 224.100 C 304.700 218.749,301.822 214.778,297.041 213.155 L 295.700 212.700 273.100 212.665 C 255.232 212.637,250.279 212.684,249.443 212.888 M294.113 219.414 C 296.920 219.920,298.630 222.455,298.364 225.714 L 298.300 226.500 277.523 226.551 L 256.745 226.602 256.846 225.347 C 257.075 222.493,259.354 219.980,262.226 219.416 C 263.548 219.156,292.674 219.154,294.113 219.414 M306.174 233.410 C 309.575 233.962,311.198 236.071,311.361 240.150 L 311.450 242.400 279.125 242.400 L 246.800 242.400 246.800 241.910 C 246.800 237.775,249.885 234.624,255.023 233.509 C 256.638 233.158,304.059 233.067,306.174 233.410 M127.200 298.004 C 150.811 299.217,173.220 304.250,193.800 312.962 L 196.100 313.936 196.155 317.511 C 196.185 319.478,196.170 321.188,196.123 321.313 C 196.066 321.462,194.740 321.105,192.268 320.277 C 143.839 304.044,91.336 304.119,49.341 320.481 C 48.044 320.986,46.941 321.400,46.891 321.400 C 46.841 321.400,46.800 319.702,46.800 317.627 L 46.800 313.854 49.950 312.435 C 74.132 301.542,100.429 296.629,127.200 298.004 M293.751 298.299 C 295.980 298.463,298.995 298.737,300.451 298.909 C 301.908 299.082,303.865 299.309,304.800 299.416 C 310.053 300.013,319.704 301.956,325.700 303.623 C 334.808 306.156,343.346 309.286,350.850 312.843 L 353.000 313.863 353.000 317.631 C 353.000 319.704,352.969 321.400,352.932 321.400 C 352.895 321.400,351.207 320.761,349.182 319.981 C 307.539 303.930,254.363 304.230,205.309 320.793 C 203.995 321.237,202.892 321.600,202.859 321.600 C 202.827 321.600,202.800 319.886,202.800 317.792 L 202.800 313.983 204.105 313.398 C 228.737 302.346,265.196 296.206,293.751 298.299 M127.800 315.205 C 150.733 316.398,177.304 321.605,194.850 328.345 L 196.200 328.863 196.200 332.320 C 196.200 334.221,196.128 335.821,196.040 335.875 C 195.951 335.930,194.849 335.659,193.590 335.274 C 153.526 323.006,98.863 322.942,51.443 335.108 C 49.101 335.709,47.099 336.200,46.993 336.200 C 46.876 336.200,46.800 334.755,46.800 332.539 L 46.800 328.879 50.501 327.340 C 66.229 320.798,86.090 316.382,104.200 315.400 C 106.455 315.277,108.570 315.152,108.900 315.121 C 110.542 314.966,124.387 315.028,127.800 315.205 M297.400 315.480 C 316.792 317.023,333.904 321.001,350.550 327.837 L 353.000 328.844 353.000 332.522 C 353.000 334.545,352.929 336.200,352.842 336.200 C 352.755 336.200,350.392 335.624,347.592 334.921 C 314.207 326.535,278.549 323.995,246.400 327.710 C 230.986 329.492,212.748 332.953,203.150 335.919 C 202.826 336.019,202.800 335.765,202.800 332.453 L 202.800 328.879 204.750 328.162 C 218.128 323.242,238.084 318.667,255.100 316.617 C 261.038 315.902,263.950 315.668,273.700 315.121 C 277.133 314.929,293.603 315.178,297.400 315.480 " stroke="none" fill="#3d747c" fill-rule="evenodd"></path><path id="path1" d="M0.000 200.000 L 0.000 400.000 200.000 400.000 L 400.000 400.000 400.000 200.000 L 400.000 0.000 200.000 0.000 L 0.000 0.000 0.000 200.000 M80.139 55.612 C 131.455 59.866,177.221 85.650,200.341 123.331 L 200.973 124.363 204.137 123.057 C 214.706 118.694,234.538 112.707,237.244 113.063 C 239.593 113.371,240.949 116.023,239.849 118.156 C 239.236 119.345,238.505 119.684,234.385 120.693 C 229.429 121.907,223.939 123.466,218.700 125.146 L 214.500 126.493 212.880 128.102 C 211.004 129.966,209.549 132.609,208.753 135.600 L 208.300 137.300 208.300 215.600 L 208.300 293.900 208.933 295.236 C 211.252 300.130,216.400 301.355,224.600 298.961 C 253.326 290.578,285.250 288.723,313.100 293.819 C 326.498 296.270,340.380 300.530,351.446 305.585 C 352.186 305.923,352.838 306.200,352.895 306.200 C 352.952 306.200,353.021 266.292,353.049 217.515 L 353.100 128.829 353.518 128.265 C 355.080 126.157,357.970 126.155,359.363 128.260 L 359.900 129.071 359.900 235.485 L 359.900 341.900 359.430 342.656 C 358.331 344.423,357.030 344.546,352.622 343.300 C 305.256 329.908,245.849 329.589,205.200 342.508 C 199.661 344.268,199.365 344.300,196.676 343.415 C 153.845 329.316,97.617 329.469,45.300 343.828 C 42.905 344.485,41.433 344.019,40.456 342.294 L 40.007 341.500 40.004 234.700 L 40.001 127.900 40.426 127.204 C 41.025 126.221,41.136 126.149,44.700 124.412 C 52.825 120.451,63.846 116.364,72.748 114.010 L 73.596 113.786 73.648 85.727 L 73.700 57.669 74.261 56.934 C 75.413 55.423,76.070 55.275,80.139 55.612 M80.600 150.387 L 80.600 238.182 81.250 238.274 C 81.608 238.324,84.277 238.605,87.182 238.897 C 111.070 241.301,135.697 249.151,153.695 260.096 C 170.558 270.351,183.558 282.115,193.952 296.526 L 195.900 299.227 195.950 214.480 L 196.000 129.733 195.375 128.617 C 189.922 118.890,178.942 106.174,168.519 97.516 C 151.184 83.115,132.426 73.728,108.200 67.328 C 101.686 65.607,90.823 63.684,83.800 63.008 C 82.535 62.886,81.298 62.743,81.050 62.690 L 80.600 62.592 80.600 150.387 M308.251 78.612 C 311.660 79.272,312.022 79.628,327.296 97.361 C 344.231 117.022,342.957 115.400,343.720 118.268 C 346.171 127.472,335.618 135.746,327.474 131.006 L 326.848 130.642 319.418 137.032 L 311.989 143.423 312.345 143.873 C 312.540 144.121,318.775 151.369,326.200 159.980 C 340.401 176.449,341.103 177.323,341.801 179.400 C 344.876 188.546,335.193 196.960,326.445 192.745 C 324.632 191.871,323.540 190.750,316.355 182.382 C 301.742 165.363,295.362 158.000,295.230 158.000 C 294.934 158.000,280.502 170.618,280.529 170.853 C 280.545 170.989,280.708 171.640,280.892 172.300 C 283.804 182.797,270.450 191.040,262.526 183.637 C 261.918 183.069,234.943 151.868,233.877 150.500 C 229.151 144.435,232.183 135.296,239.700 132.950 C 242.386 132.112,246.066 132.473,248.226 133.787 L 248.858 134.171 251.579 131.811 C 256.086 127.901,256.810 127.276,276.350 110.433 C 286.718 101.497,295.200 94.158,295.200 94.125 C 295.200 94.091,295.020 93.360,294.800 92.500 C 292.667 84.159,299.651 76.948,308.251 78.612 M115.064 92.904 C 118.737 93.840,120.029 95.388,119.209 97.873 C 118.541 99.897,116.882 100.446,113.649 99.712 C 110.244 98.940,109.091 97.878,109.254 95.664 C 109.455 92.938,111.459 91.986,115.064 92.904 M277.500 118.622 C 265.510 128.973,255.271 137.816,254.746 138.271 L 253.793 139.100 264.918 152.000 C 271.037 159.095,276.111 164.926,276.193 164.957 C 276.274 164.988,276.782 164.622,277.321 164.143 C 277.859 163.664,288.088 154.838,300.050 144.529 C 312.013 134.219,321.800 125.739,321.800 125.684 C 321.800 125.511,299.589 99.800,299.440 99.800 C 299.363 99.800,289.490 108.270,277.500 118.622 M142.201 103.353 C 154.226 109.321,165.737 117.559,176.069 127.593 C 179.996 131.407,180.526 133.453,178.025 135.139 C 175.991 136.510,174.819 136.015,170.639 132.017 C 160.875 122.680,149.702 114.763,138.647 109.350 C 133.413 106.787,132.482 105.584,133.774 103.052 C 135.066 100.518,136.600 100.573,142.201 103.353 M114.734 118.213 C 134.631 122.864,157.467 135.761,175.499 152.531 C 180.000 156.717,180.607 158.864,177.817 160.744 C 176.134 161.879,174.824 161.405,171.734 158.545 C 153.850 141.993,133.557 130.236,114.489 125.379 C 110.182 124.282,109.200 123.514,109.200 121.238 C 109.200 118.535,111.271 117.403,114.734 118.213 M115.264 143.713 C 132.780 148.127,150.102 157.083,166.752 170.335 C 171.939 174.463,178.528 180.494,179.136 181.669 C 180.278 183.877,178.623 186.400,176.033 186.400 C 174.520 186.400,174.212 186.212,171.346 183.539 C 154.097 167.453,131.639 154.622,113.339 150.398 C 109.636 149.543,108.212 147.422,109.671 144.932 C 110.695 143.185,112.020 142.896,115.264 143.713 M309.642 157.590 C 307.411 158.227,305.535 158.798,305.475 158.858 C 305.290 159.044,328.776 186.125,329.356 186.395 C 333.038 188.107,336.832 184.476,334.950 181.042 C 334.491 180.204,314.063 156.387,313.829 156.416 C 313.758 156.425,311.874 156.953,309.642 157.590 M115.901 166.970 C 123.282 169.528,130.655 173.186,135.851 176.868 C 138.585 178.806,138.292 176.841,138.354 193.615 L 138.408 208.130 137.949 208.810 C 136.489 210.977,134.561 210.996,131.287 208.875 C 125.650 205.224,119.398 202.219,113.062 200.117 C 110.720 199.341,109.580 198.504,109.299 197.355 C 109.237 197.105,109.213 190.420,109.244 182.500 L 109.300 168.100 109.780 167.427 C 110.949 165.788,112.218 165.694,115.901 166.970 M152.831 186.005 C 156.296 186.968,167.786 195.657,175.170 202.900 C 179.776 207.417,180.157 208.173,178.907 210.306 C 177.313 213.025,175.035 212.433,170.634 208.156 C 164.214 201.915,158.100 197.061,152.134 193.468 C 150.723 192.618,149.396 191.703,149.185 191.435 C 147.190 188.900,149.715 185.140,152.831 186.005 M155.761 212.884 C 163.100 217.304,176.579 228.466,178.832 231.989 C 180.719 234.941,177.764 238.277,174.478 236.904 C 174.081 236.738,172.477 235.338,170.834 233.723 C 164.469 227.465,158.551 222.742,152.216 218.865 C 148.377 216.515,147.609 215.017,149.094 212.773 C 150.468 210.697,152.177 210.726,155.761 212.884 M295.637 212.702 C 301.129 213.834,304.819 218.305,305.141 224.217 L 305.256 226.335 306.925 226.558 C 314.367 227.554,318.020 232.428,318.161 241.549 C 318.250 247.260,318.131 247.753,316.431 248.753 L 315.500 249.300 272.800 249.300 L 230.100 249.300 229.267 248.855 C 227.563 247.944,227.508 247.747,227.440 242.344 C 227.371 236.895,227.487 236.151,228.830 233.412 C 230.720 229.556,235.598 226.426,239.750 226.403 L 240.400 226.400 240.403 224.650 C 240.413 218.719,244.201 213.931,249.855 212.702 C 251.811 212.277,293.576 212.277,295.637 212.702 M261.458 219.762 C 258.864 220.603,256.800 223.295,256.800 225.836 L 256.800 226.400 277.524 226.400 L 298.249 226.400 298.160 224.650 C 298.024 221.956,296.777 220.144,294.700 219.621 C 293.091 219.216,262.746 219.345,261.458 219.762 M254.247 233.787 C 250.094 234.807,247.367 237.541,247.053 241.000 L 246.944 242.200 279.072 242.200 L 311.200 242.200 311.200 240.208 C 311.200 236.861,309.959 234.737,307.457 233.801 C 305.879 233.211,256.645 233.197,254.247 233.787 M108.200 298.206 C 87.710 299.584,68.456 304.207,51.600 311.796 C 50.335 312.365,48.782 313.061,48.150 313.342 L 47.000 313.852 47.000 317.526 C 47.000 319.547,47.068 321.200,47.150 321.199 C 47.233 321.199,48.560 320.698,50.100 320.085 C 90.654 303.962,144.941 304.089,192.977 320.422 C 194.559 320.960,195.888 321.400,195.931 321.400 C 195.974 321.400,195.984 319.713,195.954 317.652 L 195.900 313.904 191.015 311.945 C 172.728 304.610,153.948 300.213,133.500 298.477 C 129.150 298.108,112.341 297.928,108.200 298.206 M270.900 298.230 C 250.273 299.262,225.744 304.696,206.676 312.457 L 203.100 313.913 203.046 317.656 C 203.016 319.715,203.021 321.400,203.058 321.400 C 203.095 321.400,203.929 321.127,204.912 320.792 C 254.265 304.014,307.754 303.782,349.950 320.163 L 353.000 321.347 353.000 317.676 L 353.000 314.005 351.650 313.326 C 329.802 302.339,300.026 296.772,270.900 298.230 M111.600 315.142 C 90.070 315.669,68.362 320.034,50.529 327.422 L 47.000 328.884 47.000 332.507 L 47.000 336.130 52.350 334.778 C 99.407 322.887,151.356 322.935,192.689 334.906 C 194.386 335.398,195.825 335.800,195.887 335.800 C 195.949 335.800,196.000 334.234,196.000 332.320 L 196.000 328.839 195.350 328.606 C 173.530 320.791,149.000 316.118,125.000 315.203 C 120.053 315.015,117.300 315.002,111.600 315.142 M274.500 315.205 C 251.718 316.110,227.810 320.435,207.600 327.306 C 205.455 328.035,203.543 328.680,203.350 328.739 C 203.026 328.839,202.764 335.800,203.084 335.800 C 203.130 335.800,204.457 335.446,206.034 335.014 C 243.258 324.800,287.926 323.238,328.700 330.723 C 335.923 332.049,350.781 335.391,352.661 336.113 C 352.985 336.237,353.005 335.994,352.955 332.573 L 352.900 328.900 348.800 327.256 C 326.571 318.341,300.798 314.161,274.500 315.205 " stroke="none" fill="#fbfbfb" fill-rule="evenodd"></path><path id="path2" d="M174.000 125.663 C 174.000 125.697,174.293 125.990,174.650 126.313 L 175.300 126.900 174.713 126.250 C 174.165 125.644,174.000 125.508,174.000 125.663 M359.899 235.400 C 359.899 293.535,359.922 317.318,359.950 288.250 C 359.978 259.183,359.978 211.618,359.950 182.550 C 359.922 153.483,359.899 177.265,359.899 235.400 M208.099 216.500 C 208.099 258.080,208.122 275.060,208.150 254.234 C 208.178 233.407,208.178 199.387,208.150 178.634 C 208.122 157.880,208.099 174.920,208.099 216.500 M176.800 153.900 C 177.397 154.505,177.931 155.000,177.986 155.000 C 178.041 155.000,177.597 154.505,177.000 153.900 C 176.403 153.295,175.869 152.800,175.814 152.800 C 175.759 152.800,176.203 153.295,176.800 153.900 M171.800 209.263 C 171.800 209.297,172.093 209.590,172.450 209.913 L 173.100 210.500 172.513 209.850 C 171.965 209.244,171.800 209.108,171.800 209.263 M239.050 226.538 C 239.243 226.588,239.558 226.588,239.750 226.538 C 239.943 226.488,239.785 226.446,239.400 226.446 C 239.015 226.446,238.857 226.488,239.050 226.538 M175.100 228.200 C 175.530 228.640,175.926 229.000,175.981 229.000 C 176.036 229.000,175.730 228.640,175.300 228.200 C 174.870 227.760,174.474 227.400,174.419 227.400 C 174.364 227.400,174.670 227.760,175.100 228.200 M177.500 230.600 C 178.042 231.150,178.530 231.600,178.585 231.600 C 178.640 231.600,178.242 231.150,177.700 230.600 C 177.158 230.050,176.670 229.600,176.615 229.600 C 176.560 229.600,176.958 230.050,177.500 230.600 M170.400 233.300 C 170.997 233.905,171.531 234.400,171.586 234.400 C 171.641 234.400,171.197 233.905,170.600 233.300 C 170.003 232.695,169.469 232.200,169.414 232.200 C 169.359 232.200,169.803 232.695,170.400 233.300 M263.066 242.350 C 271.957 242.379,286.447 242.379,295.266 242.350 C 304.085 242.321,296.810 242.298,279.100 242.298 C 261.390 242.298,254.175 242.321,263.066 242.350 M251.750 249.350 C 263.327 249.379,282.272 249.379,293.850 249.350 C 305.427 249.321,295.955 249.298,272.800 249.298 C 249.645 249.298,240.172 249.321,251.750 249.350 M273.750 291.141 C 273.998 291.189,274.403 291.189,274.650 291.141 C 274.897 291.093,274.695 291.054,274.200 291.054 C 273.705 291.054,273.502 291.093,273.750 291.141 M287.152 291.141 C 287.401 291.189,287.761 291.187,287.952 291.137 C 288.144 291.087,287.940 291.048,287.500 291.050 C 287.060 291.053,286.904 291.094,287.152 291.141 M117.150 297.949 C 118.168 297.985,119.833 297.985,120.850 297.949 C 121.868 297.913,121.035 297.883,119.000 297.883 C 116.965 297.883,116.133 297.913,117.150 297.949 M273.250 298.138 C 273.443 298.188,273.757 298.188,273.950 298.138 C 274.143 298.088,273.985 298.046,273.600 298.046 C 273.215 298.046,273.058 298.088,273.250 298.138 M288.752 298.141 C 289.001 298.189,289.361 298.187,289.552 298.137 C 289.744 298.087,289.540 298.048,289.100 298.050 C 288.660 298.053,288.504 298.094,288.752 298.141 M112.253 308.144 C 112.557 308.189,113.007 308.188,113.253 308.141 C 113.499 308.093,113.250 308.056,112.700 308.057 C 112.150 308.059,111.949 308.098,112.253 308.144 M123.050 308.143 C 123.353 308.189,123.847 308.189,124.150 308.143 C 124.453 308.097,124.205 308.060,123.600 308.060 C 122.995 308.060,122.748 308.097,123.050 308.143 M275.150 308.146 C 275.618 308.189,276.382 308.189,276.850 308.146 C 277.318 308.104,276.935 308.070,276.000 308.070 C 275.065 308.070,274.683 308.104,275.150 308.146 M288.050 308.138 C 288.243 308.188,288.558 308.188,288.750 308.138 C 288.943 308.088,288.785 308.046,288.400 308.046 C 288.015 308.046,287.858 308.088,288.050 308.138 M46.839 317.538 C 46.818 319.539,46.868 321.218,46.950 321.270 C 47.032 321.321,47.076 320.269,47.048 318.931 C 46.950 314.372,46.878 313.896,46.839 317.538 M112.250 315.143 C 112.553 315.189,113.047 315.189,113.350 315.143 C 113.653 315.097,113.405 315.060,112.800 315.060 C 112.195 315.060,111.947 315.097,112.250 315.143 M122.253 315.144 C 122.557 315.189,123.007 315.188,123.253 315.141 C 123.499 315.093,123.250 315.056,122.700 315.057 C 122.150 315.059,121.949 315.098,122.253 315.144 M277.453 315.144 C 277.757 315.189,278.207 315.188,278.453 315.141 C 278.699 315.093,278.450 315.056,277.900 315.057 C 277.350 315.059,277.149 315.098,277.453 315.144 M287.950 315.141 C 288.197 315.189,288.603 315.189,288.850 315.141 C 289.098 315.093,288.895 315.054,288.400 315.054 C 287.905 315.054,287.703 315.093,287.950 315.141 M271.650 315.338 C 271.843 315.388,272.157 315.388,272.350 315.338 C 272.543 315.288,272.385 315.246,272.000 315.246 C 271.615 315.246,271.457 315.288,271.650 315.338 M112.750 326.141 C 112.998 326.189,113.403 326.189,113.650 326.141 C 113.897 326.093,113.695 326.054,113.200 326.054 C 112.705 326.054,112.503 326.093,112.750 326.141 M132.752 326.141 C 133.001 326.189,133.361 326.187,133.552 326.137 C 133.744 326.087,133.540 326.048,133.100 326.050 C 132.660 326.053,132.504 326.094,132.752 326.141 M266.050 326.138 C 266.243 326.188,266.558 326.188,266.750 326.138 C 266.943 326.088,266.785 326.046,266.400 326.046 C 266.015 326.046,265.858 326.088,266.050 326.138 M284.450 326.138 C 284.643 326.188,284.957 326.188,285.150 326.138 C 285.343 326.088,285.185 326.046,284.800 326.046 C 284.415 326.046,284.257 326.088,284.450 326.138 M289.450 326.338 C 289.643 326.388,289.957 326.388,290.150 326.338 C 290.343 326.288,290.185 326.246,289.800 326.246 C 289.415 326.246,289.257 326.288,289.450 326.338 M46.883 332.600 C 46.883 334.635,46.913 335.468,46.949 334.450 C 46.985 333.433,46.985 331.768,46.949 330.750 C 46.913 329.733,46.883 330.565,46.883 332.600 M120.850 332.949 C 122.033 332.985,123.968 332.985,125.150 332.949 C 126.333 332.914,125.365 332.885,123.000 332.885 C 120.635 332.885,119.668 332.914,120.850 332.949 M272.950 332.949 C 274.407 332.984,276.793 332.984,278.250 332.949 C 279.707 332.915,278.515 332.887,275.600 332.887 C 272.685 332.887,271.493 332.915,272.950 332.949 M134.250 333.138 C 134.442 333.188,134.758 333.188,134.950 333.138 C 135.143 333.088,134.985 333.046,134.600 333.046 C 134.215 333.046,134.058 333.088,134.250 333.138 M265.050 333.138 C 265.243 333.188,265.558 333.188,265.750 333.138 C 265.943 333.088,265.785 333.046,265.400 333.046 C 265.015 333.046,264.858 333.088,265.050 333.138 M286.450 333.138 C 286.643 333.188,286.957 333.188,287.150 333.138 C 287.343 333.088,287.185 333.046,286.800 333.046 C 286.415 333.046,286.257 333.088,286.450 333.138 " stroke="none" fill="#a9c0c6" fill-rule="evenodd"></path><path id="path3" d="M76.952 55.541 C 77.201 55.589,77.561 55.587,77.752 55.537 C 77.944 55.487,77.740 55.448,77.300 55.450 C 76.860 55.453,76.704 55.494,76.952 55.541 M73.697 86.100 C 73.697 101.390,73.721 107.615,73.750 99.934 C 73.779 92.253,73.779 79.743,73.750 72.134 C 73.721 64.525,73.697 70.810,73.697 86.100 M80.499 150.400 C 80.499 198.745,80.522 218.522,80.550 194.350 C 80.578 170.177,80.578 130.622,80.550 106.450 C 80.522 82.277,80.499 102.055,80.499 150.400 M297.687 81.650 L 297.100 82.300 297.750 81.713 C 298.356 81.165,298.492 81.000,298.337 81.000 C 298.303 81.000,298.010 81.293,297.687 81.650 M175.900 104.200 C 176.553 104.860,177.132 105.400,177.187 105.400 C 177.242 105.400,176.753 104.860,176.100 104.200 C 175.447 103.540,174.868 103.000,174.813 103.000 C 174.758 103.000,175.247 103.540,175.900 104.200 M178.500 106.800 C 179.153 107.460,179.732 108.000,179.787 108.000 C 179.842 108.000,179.353 107.460,178.700 106.800 C 178.047 106.140,177.468 105.600,177.413 105.600 C 177.358 105.600,177.847 106.140,178.500 106.800 M176.700 128.400 C 177.464 129.170,178.134 129.800,178.189 129.800 C 178.244 129.800,177.664 129.170,176.900 128.400 C 176.136 127.630,175.466 127.000,175.411 127.000 C 175.356 127.000,175.936 127.630,176.700 128.400 M196.099 214.600 C 196.099 261.295,196.122 280.397,196.150 257.050 C 196.178 233.702,196.178 195.497,196.150 172.150 C 196.122 148.802,196.099 167.905,196.099 214.600 M342.257 182.900 C 342.259 183.450,342.298 183.651,342.344 183.347 C 342.389 183.043,342.388 182.593,342.341 182.347 C 342.293 182.101,342.256 182.350,342.257 182.900 M277.800 183.100 C 277.314 183.595,276.962 184.000,277.017 184.000 C 277.072 184.000,277.514 183.595,278.000 183.100 C 278.486 182.605,278.838 182.200,278.783 182.200 C 278.728 182.200,278.286 182.605,277.800 183.100 M323.000 190.063 C 323.000 190.097,323.293 190.390,323.650 190.713 L 324.300 191.300 323.713 190.650 C 323.165 190.044,323.000 189.908,323.000 190.063 M170.100 207.600 C 170.530 208.040,170.926 208.400,170.981 208.400 C 171.036 208.400,170.730 208.040,170.300 207.600 C 169.870 207.160,169.474 206.800,169.419 206.800 C 169.364 206.800,169.670 207.160,170.100 207.600 M270.550 219.350 C 274.757 219.380,281.643 219.380,285.850 219.350 C 290.058 219.320,286.615 219.295,278.200 219.295 C 269.785 219.295,266.343 219.320,270.550 219.350 M305.064 225.200 C 305.064 225.915,305.100 226.207,305.145 225.850 C 305.189 225.493,305.189 224.907,305.145 224.550 C 305.100 224.193,305.064 224.485,305.064 225.200 M298.262 225.300 C 298.263 225.960,298.300 226.206,298.345 225.846 C 298.389 225.487,298.389 224.947,298.343 224.646 C 298.297 224.346,298.261 224.640,298.262 225.300 M268.450 233.350 C 275.243 233.379,286.358 233.379,293.150 233.350 C 299.943 233.321,294.385 233.297,280.800 233.297 C 267.215 233.297,261.658 233.321,268.450 233.350 M275.850 291.143 C 276.153 291.189,276.647 291.189,276.950 291.143 C 277.252 291.097,277.005 291.060,276.400 291.060 C 275.795 291.060,275.548 291.097,275.850 291.143 M285.352 291.141 C 285.601 291.189,285.961 291.187,286.152 291.137 C 286.344 291.087,286.140 291.048,285.700 291.050 C 285.260 291.053,285.104 291.094,285.352 291.141 M270.450 291.338 C 270.643 291.388,270.957 291.388,271.150 291.338 C 271.343 291.288,271.185 291.246,270.800 291.246 C 270.415 291.246,270.257 291.288,270.450 291.338 M113.552 297.941 C 113.801 297.989,114.161 297.987,114.352 297.937 C 114.544 297.887,114.340 297.848,113.900 297.850 C 113.460 297.853,113.304 297.894,113.552 297.941 M123.752 297.941 C 124.001 297.989,124.361 297.987,124.552 297.937 C 124.744 297.887,124.540 297.848,124.100 297.850 C 123.660 297.853,123.504 297.894,123.752 297.941 M278.256 297.947 C 278.782 297.989,279.592 297.988,280.056 297.946 C 280.520 297.904,280.090 297.870,279.100 297.871 C 278.110 297.872,277.730 297.906,278.256 297.947 M284.552 297.941 C 284.801 297.989,285.161 297.987,285.352 297.937 C 285.544 297.887,285.340 297.848,284.900 297.850 C 284.460 297.853,284.304 297.894,284.552 297.941 M271.850 298.138 C 272.043 298.188,272.358 298.188,272.550 298.138 C 272.743 298.088,272.585 298.046,272.200 298.046 C 271.815 298.046,271.657 298.088,271.850 298.138 M116.161 308.149 C 117.294 308.185,119.094 308.185,120.161 308.149 C 121.227 308.113,120.300 308.084,118.100 308.084 C 115.900 308.084,115.027 308.114,116.161 308.149 M280.550 308.149 C 281.788 308.184,283.813 308.184,285.050 308.149 C 286.288 308.114,285.275 308.086,282.800 308.086 C 280.325 308.086,279.313 308.114,280.550 308.149 M108.050 308.338 C 108.243 308.388,108.558 308.388,108.750 308.338 C 108.942 308.288,108.785 308.246,108.400 308.246 C 108.015 308.246,107.858 308.288,108.050 308.338 M271.050 308.338 C 271.243 308.388,271.558 308.388,271.750 308.338 C 271.943 308.288,271.785 308.246,271.400 308.246 C 271.015 308.246,270.858 308.288,271.050 308.338 M196.000 317.740 C 195.945 319.853,195.970 321.511,196.055 321.426 C 196.140 321.340,196.185 319.612,196.154 317.585 L 196.099 313.900 196.000 317.740 M202.839 317.750 C 202.818 319.868,202.868 321.600,202.950 321.600 C 203.033 321.601,203.077 320.453,203.048 319.050 C 202.952 314.330,202.879 313.876,202.839 317.750 M109.850 315.143 C 110.153 315.189,110.647 315.189,110.950 315.143 C 111.253 315.097,111.005 315.060,110.400 315.060 C 109.795 315.060,109.547 315.097,109.850 315.143 M124.150 315.141 C 124.397 315.189,124.803 315.189,125.050 315.141 C 125.297 315.093,125.095 315.054,124.600 315.054 C 124.105 315.054,123.903 315.093,124.150 315.141 M275.253 315.144 C 275.557 315.189,276.007 315.188,276.253 315.141 C 276.499 315.093,276.250 315.056,275.700 315.057 C 275.150 315.059,274.949 315.098,275.253 315.144 M289.752 315.141 C 290.001 315.189,290.361 315.187,290.552 315.137 C 290.744 315.087,290.540 315.048,290.100 315.050 C 289.660 315.053,289.504 315.094,289.752 315.141 M114.850 326.143 C 115.153 326.189,115.647 326.189,115.950 326.143 C 116.253 326.097,116.005 326.060,115.400 326.060 C 114.795 326.060,114.547 326.097,114.850 326.143 M130.950 326.141 C 131.197 326.189,131.603 326.189,131.850 326.141 C 132.097 326.093,131.895 326.054,131.400 326.054 C 130.905 326.054,130.703 326.093,130.950 326.141 M267.552 326.141 C 267.801 326.189,268.161 326.187,268.352 326.137 C 268.544 326.087,268.340 326.048,267.900 326.050 C 267.460 326.053,267.304 326.094,267.552 326.141 M282.952 326.141 C 283.201 326.189,283.561 326.187,283.752 326.137 C 283.944 326.087,283.740 326.048,283.300 326.050 C 282.860 326.053,282.704 326.094,282.952 326.141 M136.952 326.341 C 137.201 326.389,137.561 326.387,137.752 326.337 C 137.944 326.287,137.740 326.248,137.300 326.250 C 136.860 326.253,136.704 326.294,136.952 326.341 M288.050 326.338 C 288.243 326.388,288.558 326.388,288.750 326.338 C 288.943 326.288,288.785 326.246,288.400 326.246 C 288.015 326.246,287.858 326.288,288.050 326.338 M196.083 332.300 C 196.083 334.280,196.113 335.063,196.149 334.040 C 196.186 333.017,196.185 331.397,196.149 330.440 C 196.112 329.483,196.082 330.320,196.083 332.300 M202.839 332.350 C 202.817 334.358,202.868 336.000,202.950 336.000 C 203.033 336.001,203.077 334.898,203.048 333.550 C 202.953 329.086,202.878 328.654,202.839 332.350 M116.146 332.944 C 116.501 332.989,117.131 332.989,117.546 332.946 C 117.960 332.903,117.670 332.867,116.900 332.866 C 116.130 332.865,115.790 332.900,116.146 332.944 M128.957 332.948 C 129.538 332.988,130.438 332.988,130.957 332.947 C 131.476 332.906,131.000 332.873,129.900 332.873 C 128.800 332.874,128.376 332.907,128.957 332.948 M268.952 332.941 C 269.201 332.989,269.561 332.987,269.752 332.937 C 269.944 332.887,269.740 332.848,269.300 332.850 C 268.860 332.853,268.704 332.894,268.952 332.941 M281.653 332.944 C 281.957 332.989,282.407 332.988,282.653 332.941 C 282.899 332.893,282.650 332.856,282.100 332.857 C 281.550 332.859,281.349 332.898,281.653 332.944 M135.752 333.141 C 136.001 333.189,136.361 333.187,136.552 333.137 C 136.744 333.087,136.540 333.048,136.100 333.050 C 135.660 333.053,135.504 333.094,135.752 333.141 M263.352 333.141 C 263.601 333.189,263.961 333.187,264.152 333.137 C 264.344 333.087,264.140 333.048,263.700 333.050 C 263.260 333.053,263.104 333.094,263.352 333.141 M288.050 333.138 C 288.243 333.188,288.558 333.188,288.750 333.138 C 288.943 333.088,288.785 333.046,288.400 333.046 C 288.015 333.046,287.858 333.088,288.050 333.138 " stroke="none" fill="#93b4b4" fill-rule="evenodd"></path><path id="path4" d="M262.350 212.550 C 268.097 212.579,277.502 212.579,283.250 212.550 C 288.998 212.520,284.295 212.496,272.800 212.496 C 261.305 212.496,256.602 212.520,262.350 212.550 M267.165 226.550 C 272.921 226.579,282.281 226.579,287.965 226.550 C 293.649 226.520,288.940 226.496,277.500 226.496 C 266.060 226.496,261.409 226.520,267.165 226.550 M311.269 240.700 C 311.269 241.580,311.304 241.915,311.347 241.445 C 311.389 240.974,311.388 240.254,311.345 239.845 C 311.302 239.435,311.268 239.820,311.269 240.700 M281.656 297.947 C 282.182 297.989,282.992 297.988,283.456 297.946 C 283.920 297.904,283.490 297.870,282.500 297.871 C 281.510 297.872,281.130 297.906,281.656 297.947 " stroke="none" fill="#9ebcbc" fill-rule="evenodd"></path></g></svg>