<svg id="svg" version="1.1" xmlns="http://www.w3.org/2000/svg" xmlns:xlink="http://www.w3.org/1999/xlink" width="400" height="400" viewBox="0, 0, 400,400"><g id="svgg"><path id="path0" d="M145.727 40.212 C 134.033 41.255,123.842 50.068,120.927 61.659 L 120.477 63.446 118.689 63.902 C 108.613 66.470,100.884 74.159,98.198 84.286 L 97.671 86.272 95.885 86.714 C 85.382 89.313,77.184 97.870,74.852 108.668 C 74.287 111.288,74.307 334.418,74.873 337.000 C 77.445 348.731,86.247 357.340,97.900 359.525 C 100.519 360.016,252.839 360.123,255.600 359.635 C 267.225 357.584,275.998 349.703,278.916 338.689 C 279.205 337.595,279.460 336.681,279.481 336.657 C 279.502 336.633,280.637 336.292,282.003 335.899 C 291.897 333.051,299.400 325.339,301.882 315.463 L 302.311 313.757 304.117 313.300 C 314.590 310.653,322.651 302.289,325.032 291.600 L 325.500 289.500 325.500 177.200 L 325.500 64.900 325.049 62.862 C 322.463 51.186,313.926 42.858,302.091 40.466 C 300.168 40.077,149.972 39.833,145.727 40.212 M301.600 51.961 C 308.626 54.121,313.391 59.722,314.199 66.772 C 314.473 69.164,314.471 285.253,314.197 287.645 C 313.496 293.765,308.616 300.026,303.252 301.687 L 302.803 301.826 302.748 194.763 L 302.693 87.700 302.242 85.747 C 299.856 75.421,292.903 67.615,283.224 64.396 C 278.663 62.879,285.502 63.001,204.983 63.001 C 165.209 63.000,132.612 62.945,132.545 62.879 C 131.850 62.184,135.687 56.873,138.310 54.899 C 140.611 53.167,142.637 52.313,146.300 51.530 C 146.520 51.483,181.215 51.457,223.400 51.472 L 300.100 51.500 301.600 51.961 M278.500 74.753 C 285.122 76.629,290.105 82.000,291.198 88.439 C 291.624 90.943,291.374 311.449,290.945 312.900 C 289.400 318.118,284.872 323.118,280.450 324.488 L 280.000 324.627 280.000 219.463 C 280.000 113.015,279.993 111.917,279.278 108.400 C 276.983 97.106,267.634 88.172,256.036 86.189 C 253.810 85.809,252.173 85.800,181.667 85.800 L 109.573 85.800 109.712 85.350 C 111.348 80.068,117.284 75.294,123.300 74.421 C 123.967 74.324,158.353 74.259,200.700 74.273 L 276.900 74.300 278.500 74.753 M255.364 97.553 C 261.723 99.262,266.323 103.819,268.132 110.200 C 268.487 111.456,268.500 115.299,268.500 222.900 L 268.500 334.300 268.042 335.883 C 266.267 342.011,261.414 346.676,255.200 348.226 C 253.231 348.717,100.578 348.626,98.700 348.132 C 92.448 346.490,87.731 341.655,86.083 335.200 C 85.708 333.731,85.700 331.394,85.700 222.700 L 85.700 111.700 86.143 110.039 C 87.965 103.209,94.015 97.931,100.855 97.205 C 101.650 97.120,136.365 97.064,178.000 97.079 L 253.700 97.106 255.364 97.553 M236.600 114.711 C 226.219 116.937,220.210 127.847,224.083 137.436 L 224.594 138.700 222.130 141.200 C 210.925 152.570,205.308 158.200,205.167 158.200 C 205.076 158.200,204.573 157.895,204.050 157.523 C 197.969 153.191,189.440 153.433,183.710 158.101 L 182.646 158.967 173.773 153.653 C 168.893 150.730,164.867 148.312,164.826 148.279 C 164.786 148.246,164.921 147.562,165.126 146.759 C 166.984 139.509,163.276 131.276,156.600 127.825 C 142.230 120.398,126.697 134.608,132.927 149.482 L 133.590 151.064 125.334 161.382 L 117.078 171.700 114.626 171.633 C 100.035 171.234,91.872 188.118,101.164 199.477 C 108.823 208.841,123.995 207.138,129.460 196.300 C 132.608 190.057,131.916 183.978,127.322 177.517 C 127.199 177.343,129.414 174.431,134.590 167.961 L 142.036 158.654 143.525 159.127 C 147.757 160.471,152.678 160.011,156.510 157.914 L 157.720 157.251 167.510 163.127 L 177.300 169.003 177.229 170.854 C 176.729 183.885,190.504 192.500,202.212 186.479 C 208.310 183.343,212.204 176.109,211.245 169.700 L 211.066 168.500 221.840 157.692 L 232.614 146.884 234.657 147.579 C 245.530 151.274,256.991 143.058,256.999 131.563 C 257.006 120.677,247.067 112.466,236.600 114.711 M242.442 126.222 C 246.061 128.068,246.841 132.825,243.968 135.528 C 240.244 139.032,234.310 136.496,234.310 131.400 C 234.310 127.201,238.781 124.354,242.442 126.222 M151.151 137.775 C 154.835 139.654,155.406 144.424,152.278 147.178 C 147.719 151.190,140.774 145.983,143.369 140.498 C 144.796 137.482,148.225 136.282,151.151 137.775 M196.724 166.212 C 199.593 167.599,200.805 171.125,199.388 173.960 C 196.657 179.426,188.600 177.509,188.600 171.394 C 188.600 167.204,192.987 164.406,196.724 166.212 M116.644 183.319 C 120.237 185.157,121.111 189.453,118.487 192.372 C 114.328 196.998,106.828 192.472,108.904 186.589 C 109.973 183.559,113.884 181.907,116.644 183.319 M108.600 222.800 L 108.600 228.400 177.100 228.400 L 245.600 228.400 245.600 222.800 L 245.600 217.200 177.100 217.200 L 108.600 217.200 108.600 222.800 M108.600 245.700 L 108.600 251.400 177.100 251.400 L 245.600 251.400 245.600 245.700 L 245.600 240.000 177.100 240.000 L 108.600 240.000 108.600 245.700 M131.400 263.405 C 114.614 266.386,103.135 280.056,103.108 297.100 C 103.052 331.289,147.302 344.236,165.995 315.500 C 181.941 290.988,160.224 258.286,131.400 263.405 M183.000 274.300 L 183.000 280.000 214.300 280.000 L 245.600 280.000 245.600 274.300 L 245.600 268.600 214.300 268.600 L 183.000 268.600 183.000 274.300 M131.400 283.300 L 131.400 291.600 123.312 291.600 C 118.863 291.600,115.183 291.532,115.134 291.450 C 115.085 291.368,115.257 290.670,115.517 289.900 C 117.918 282.778,124.014 277.047,131.350 275.014 C 131.378 275.006,131.400 278.735,131.400 283.300 M146.764 276.511 C 157.335 281.484,162.474 293.254,158.875 304.250 C 158.595 305.103,158.316 305.800,158.252 305.800 C 158.189 305.800,154.687 303.213,150.469 300.052 L 142.800 294.304 142.800 284.663 L 142.800 275.022 143.850 275.328 C 144.428 275.496,145.739 276.029,146.764 276.511 M183.000 297.200 L 183.000 302.800 214.300 302.800 L 245.600 302.800 245.600 297.200 L 245.600 291.600 214.300 291.600 L 183.000 291.600 183.000 297.200 M143.349 308.886 L 151.398 314.964 150.449 315.645 C 137.757 324.750,119.615 318.658,115.326 303.850 L 115.022 302.800 125.161 302.804 L 135.300 302.807 143.349 308.886 M183.000 320.000 L 183.000 325.600 214.300 325.600 L 245.600 325.600 245.600 320.000 L 245.600 314.400 214.300 314.400 L 183.000 314.400 183.000 320.000 " stroke="none" fill="#3c747c" fill-rule="evenodd"></path><path id="path1" d="M0.000 200.000 L 0.000 400.000 200.000 400.000 L 400.000 400.000 400.000 200.000 L 400.000 0.000 200.000 0.000 L 0.000 0.000 0.000 200.000 M302.030 40.392 C 313.817 42.426,323.082 51.695,325.326 63.700 C 325.897 66.754,325.913 288.052,325.343 290.854 C 323.043 302.146,314.189 311.350,303.450 313.612 C 302.550 313.802,302.383 313.910,302.289 314.367 C 300.166 324.609,292.179 333.119,281.924 336.065 L 279.547 336.747 279.097 338.528 C 276.586 348.461,268.483 356.592,258.600 359.096 C 254.804 360.057,257.939 360.025,176.100 359.955 L 98.500 359.890 96.800 359.464 C 84.390 356.358,75.936 346.973,74.409 334.605 C 73.960 330.968,74.135 112.221,74.589 109.570 C 76.526 98.258,85.224 89.084,96.551 86.408 C 97.440 86.198,97.620 86.077,97.712 85.630 C 99.971 74.714,108.485 66.158,119.784 63.447 C 120.428 63.292,120.483 63.212,120.712 62.091 C 123.002 50.886,132.750 42.073,145.000 40.134 C 147.243 39.779,299.931 40.030,302.030 40.392 M144.336 52.086 C 140.136 53.197,136.688 55.715,134.266 59.438 C 133.539 60.556,132.600 62.404,132.600 62.717 C 132.600 62.762,164.966 62.800,204.524 62.800 C 284.675 62.800,278.495 62.690,283.022 64.196 C 293.162 67.567,300.497 75.990,302.534 86.600 C 302.884 88.422,302.901 92.875,302.952 195.050 C 302.981 253.653,303.046 301.600,303.097 301.600 C 303.475 301.600,305.675 300.434,306.916 299.576 C 310.692 296.966,313.298 292.775,313.993 288.200 C 314.161 287.089,314.205 258.068,314.160 176.200 L 314.100 65.700 313.548 63.941 C 311.531 57.510,306.900 53.236,300.500 51.899 C 299.285 51.646,288.965 51.608,222.600 51.613 L 146.100 51.619 144.336 52.086 M122.423 74.708 C 116.675 75.959,111.390 80.370,109.912 85.150 L 109.773 85.600 181.176 85.600 C 258.167 85.600,254.765 85.556,258.600 86.606 C 269.242 89.520,276.903 97.557,279.471 108.500 L 279.894 110.300 279.948 217.447 L 280.003 324.594 281.151 324.092 C 285.835 322.045,289.380 317.880,290.847 312.700 L 291.300 311.100 291.357 201.100 C 291.397 122.351,291.351 90.617,291.195 89.400 C 290.318 82.586,285.710 77.138,279.061 75.052 L 277.300 74.500 200.500 74.465 C 135.598 74.436,123.502 74.473,122.423 74.708 M100.166 97.405 C 93.647 98.505,88.338 103.196,86.363 109.600 L 85.900 111.100 85.848 222.000 C 85.801 321.807,85.827 333.067,86.108 334.571 C 87.331 341.113,92.383 346.456,98.800 347.991 C 101.161 348.555,252.225 348.645,254.958 348.083 C 261.483 346.742,266.696 341.522,268.124 334.900 C 268.487 333.216,268.552 113.264,268.190 111.335 C 266.853 104.215,261.521 98.862,254.428 97.517 C 252.599 97.170,102.204 97.061,100.166 97.405 M244.219 114.778 C 254.605 117.444,260.071 128.888,255.582 138.569 C 251.795 146.735,242.942 150.480,234.300 147.569 L 232.500 146.963 221.900 157.692 L 211.300 168.421 211.370 170.885 C 211.755 184.459,197.358 193.025,185.593 186.223 C 180.047 183.016,176.560 176.504,177.126 170.412 L 177.249 169.088 167.511 163.246 L 157.774 157.404 155.937 158.290 C 152.226 160.080,147.510 160.491,143.800 159.349 C 142.495 158.947,142.048 158.880,141.876 159.063 C 141.754 159.193,138.419 163.350,134.466 168.300 L 127.279 177.300 128.439 179.000 C 138.223 193.337,122.367 211.685,106.800 204.041 C 90.484 196.029,96.143 171.512,114.311 171.502 L 117.122 171.500 125.011 161.648 C 129.350 156.229,133.024 151.615,133.176 151.395 C 133.418 151.044,133.390 150.854,132.942 149.847 C 128.619 140.117,134.010 128.879,144.300 126.172 C 156.515 122.958,168.565 134.779,165.272 146.743 L 164.874 148.187 173.724 153.495 L 182.574 158.804 183.909 157.794 C 189.767 153.360,197.501 153.088,203.602 157.101 L 205.169 158.132 214.830 148.470 L 224.491 138.808 224.222 138.154 C 218.789 124.941,230.497 111.255,244.219 114.778 M238.148 126.086 C 235.149 127.156,233.539 130.782,234.814 133.594 C 236.869 138.123,243.040 138.189,245.128 133.704 C 247.144 129.377,242.655 124.478,238.148 126.086 M146.782 137.499 C 142.940 138.732,141.716 143.935,144.590 146.810 C 148.741 150.960,155.681 146.633,153.870 141.024 C 152.976 138.256,149.621 136.587,146.782 137.499 M191.840 166.412 C 186.461 169.100,188.300 176.977,194.311 176.996 C 200.203 177.014,202.046 169.053,196.761 166.412 C 195.054 165.559,193.547 165.559,191.840 166.412 M112.348 183.274 C 107.879 184.940,107.389 191.112,111.539 193.443 C 116.963 196.489,122.539 189.612,118.511 184.846 C 117.175 183.266,114.321 182.538,112.348 183.274 M245.753 222.850 L 245.806 228.601 177.153 228.550 L 108.500 228.500 108.447 223.003 C 108.417 219.979,108.437 217.392,108.491 217.253 C 108.569 217.049,121.995 217.009,177.144 217.050 L 245.700 217.100 245.753 222.850 M245.753 245.750 L 245.700 251.500 177.100 251.500 L 108.500 251.500 108.447 245.750 L 108.394 240.000 177.100 240.000 L 245.806 240.000 245.753 245.750 M141.100 263.016 C 166.506 266.049,179.863 295.036,165.621 316.230 C 150.931 338.091,118.215 335.986,106.408 312.420 C 94.291 288.235,114.251 259.811,141.100 263.016 M245.753 274.250 L 245.806 280.000 214.303 280.000 L 182.800 280.000 182.800 274.199 L 182.800 268.399 214.250 268.449 L 245.700 268.500 245.753 274.250 M129.500 275.773 C 122.928 278.048,116.800 284.564,115.322 290.850 L 115.192 291.400 123.296 291.400 L 131.400 291.400 131.400 283.300 C 131.400 278.845,131.333 275.204,131.250 275.210 C 131.167 275.215,130.380 275.469,129.500 275.773 M143.000 284.783 L 143.000 294.367 150.416 299.896 C 159.195 306.441,158.216 305.929,158.750 304.256 C 162.547 292.363,156.392 279.919,144.638 275.722 C 143.834 275.435,143.137 275.200,143.088 275.200 C 143.040 275.200,143.000 279.513,143.000 284.783 M245.753 297.150 L 245.700 302.900 214.250 302.951 L 182.800 303.001 182.800 297.201 L 182.800 291.400 214.303 291.400 L 245.806 291.400 245.753 297.150 M115.200 303.088 C 115.200 303.895,117.256 308.313,118.452 310.075 C 125.539 320.520,141.333 323.109,150.643 315.353 L 151.187 314.900 143.270 308.950 L 135.352 303.000 125.276 303.000 C 119.734 303.000,115.200 303.040,115.200 303.088 M245.800 320.000 L 245.800 325.800 214.300 325.800 L 182.800 325.800 182.800 320.000 L 182.800 314.200 214.300 314.200 L 245.800 314.200 245.800 320.000 " stroke="none" fill="#fbfbfb" fill-rule="evenodd"></path><path id="path2" d="M162.750 74.350 C 183.237 74.378,216.762 74.378,237.250 74.350 C 257.737 74.322,240.975 74.299,200.000 74.299 C 159.025 74.299,142.262 74.322,162.750 74.350 M109.770 85.650 C 109.853 85.733,141.956 85.778,181.110 85.750 L 252.300 85.700 180.960 85.600 C 141.723 85.545,109.688 85.568,109.770 85.650 M239.350 114.341 C 239.597 114.389,240.003 114.389,240.250 114.341 C 240.498 114.293,240.295 114.254,239.800 114.254 C 239.305 114.254,239.103 114.293,239.350 114.341 M227.789 119.350 L 227.100 120.100 227.850 119.411 C 228.548 118.769,228.692 118.600,228.539 118.600 C 228.506 118.600,228.168 118.938,227.789 119.350 M148.250 125.738 C 148.442 125.788,148.758 125.788,148.950 125.738 C 149.143 125.688,148.985 125.646,148.600 125.646 C 148.215 125.646,148.058 125.688,148.250 125.738 M194.050 154.338 C 194.243 154.388,194.558 154.388,194.750 154.338 C 194.942 154.288,194.785 154.246,194.400 154.246 C 194.015 154.246,193.858 154.288,194.050 154.338 M113.350 205.741 C 113.597 205.789,114.003 205.789,114.250 205.741 C 114.498 205.693,114.295 205.654,113.800 205.654 C 113.305 205.654,113.103 205.693,113.350 205.741 M153.200 281.100 C 153.573 281.485,153.923 281.800,153.978 281.800 C 154.033 281.800,153.773 281.485,153.400 281.100 C 153.027 280.715,152.677 280.400,152.622 280.400 C 152.567 280.400,152.827 280.715,153.200 281.100 M198.666 314.350 C 207.337 314.379,221.467 314.379,230.066 314.350 C 238.665 314.321,231.570 314.298,214.300 314.298 C 197.030 314.298,189.995 314.321,198.666 314.350 M198.666 325.750 C 207.337 325.779,221.467 325.779,230.066 325.750 C 238.665 325.721,231.570 325.698,214.300 325.698 C 197.030 325.698,189.995 325.721,198.666 325.750 M74.246 332.400 C 74.246 332.785,74.288 332.943,74.338 332.750 C 74.388 332.558,74.388 332.243,74.338 332.050 C 74.288 331.858,74.246 332.015,74.246 332.400 " stroke="none" fill="#9cbcbc" fill-rule="evenodd"></path><path id="path3" d="M185.266 51.550 C 205.928 51.578,239.678 51.578,260.266 51.550 C 280.855 51.522,263.950 51.499,222.700 51.499 C 181.450 51.499,164.605 51.522,185.266 51.550 M105.193 71.550 L 104.100 72.700 105.250 71.607 C 105.883 71.006,106.400 70.488,106.400 70.457 C 106.400 70.308,106.209 70.482,105.193 71.550 M302.899 196.200 C 302.899 254.225,302.922 277.963,302.950 248.950 C 302.978 219.937,302.978 172.462,302.950 143.450 C 302.922 114.438,302.899 138.175,302.899 196.200 M268.499 207.100 C 268.499 258.580,268.522 279.670,268.550 253.966 C 268.578 228.263,268.578 186.143,268.550 160.366 C 268.522 134.590,268.499 155.620,268.499 207.100 M148.150 148.541 C 148.398 148.589,148.803 148.589,149.050 148.541 C 149.297 148.493,149.095 148.454,148.600 148.454 C 148.105 148.454,147.903 148.493,148.150 148.541 M215.198 164.350 L 211.100 168.500 215.250 164.402 C 219.106 160.594,219.490 160.200,219.348 160.200 C 219.320 160.200,217.452 162.067,215.198 164.350 M177.054 171.600 C 177.054 172.095,177.093 172.298,177.141 172.050 C 177.189 171.803,177.189 171.398,177.141 171.150 C 177.093 170.903,177.054 171.105,177.054 171.600 M102.091 176.450 L 101.300 177.300 102.150 176.509 C 102.940 175.774,103.092 175.600,102.941 175.600 C 102.908 175.600,102.525 175.983,102.091 176.450 M193.952 177.141 C 194.201 177.189,194.561 177.187,194.752 177.137 C 194.944 177.087,194.740 177.048,194.300 177.050 C 193.860 177.053,193.704 177.094,193.952 177.141 M206.487 183.450 L 205.900 184.100 206.550 183.513 C 207.156 182.965,207.292 182.800,207.137 182.800 C 207.103 182.800,206.810 183.093,206.487 183.450 M97.054 188.400 C 97.054 188.895,97.093 189.097,97.141 188.850 C 97.189 188.603,97.189 188.197,97.141 187.950 C 97.093 187.703,97.054 187.905,97.054 188.400 M108.490 217.253 C 108.437 217.392,108.419 219.979,108.450 223.003 L 108.507 228.500 108.553 222.850 L 108.600 217.201 177.150 217.150 L 245.700 217.099 177.144 217.050 C 122.036 217.010,108.568 217.050,108.490 217.253 M108.495 245.750 L 108.500 251.500 177.050 251.500 L 245.600 251.501 177.103 251.450 L 108.606 251.399 108.548 245.700 L 108.491 240.000 108.495 245.750 M198.450 268.550 C 207.113 268.579,221.288 268.579,229.950 268.550 C 238.613 268.521,231.525 268.498,214.200 268.498 C 196.875 268.498,189.788 268.521,198.450 268.550 M142.892 284.700 C 142.893 289.980,142.918 292.111,142.950 289.436 C 142.981 286.761,142.981 282.441,142.950 279.836 C 142.918 277.231,142.892 279.420,142.892 284.700 M268.482 305.100 C 268.482 306.970,268.512 307.762,268.549 306.860 C 268.586 305.958,268.586 304.428,268.549 303.460 C 268.512 302.492,268.482 303.230,268.482 305.100 M120.150 302.950 C 122.928 302.981,127.473 302.981,130.250 302.950 C 133.028 302.918,130.755 302.893,125.200 302.893 C 119.645 302.893,117.373 302.918,120.150 302.950 M198.450 302.950 C 207.113 302.979,221.288 302.979,229.950 302.950 C 238.613 302.921,231.525 302.898,214.200 302.898 C 196.875 302.898,189.788 302.921,198.450 302.950 M317.294 305.850 L 316.100 307.100 317.350 305.906 C 318.038 305.250,318.600 304.687,318.600 304.656 C 318.600 304.508,318.403 304.689,317.294 305.850 M268.446 309.200 C 268.446 309.585,268.488 309.743,268.538 309.550 C 268.588 309.358,268.588 309.043,268.538 308.850 C 268.488 308.658,268.446 308.815,268.446 309.200 M268.446 310.600 C 268.446 310.985,268.488 311.143,268.538 310.950 C 268.588 310.757,268.588 310.443,268.538 310.250 C 268.488 310.058,268.446 310.215,268.446 310.600 M268.454 312.200 C 268.454 312.695,268.493 312.898,268.541 312.650 C 268.589 312.403,268.589 311.998,268.541 311.750 C 268.493 311.503,268.454 311.705,268.454 312.200 M120.400 312.663 C 120.400 312.697,120.692 312.990,121.050 313.313 L 121.700 313.900 121.113 313.250 C 120.565 312.644,120.400 312.508,120.400 312.663 M268.454 331.800 C 268.454 332.295,268.493 332.498,268.541 332.250 C 268.589 332.003,268.589 331.598,268.541 331.350 C 268.493 331.103,268.454 331.305,268.454 331.800 M136.650 331.538 C 136.843 331.588,137.157 331.588,137.350 331.538 C 137.542 331.488,137.385 331.446,137.000 331.446 C 136.615 331.446,136.458 331.488,136.650 331.538 M263.389 343.550 L 262.700 344.300 263.450 343.611 C 263.863 343.232,264.200 342.894,264.200 342.861 C 264.200 342.708,264.031 342.852,263.389 343.550 M139.266 348.550 C 160.038 348.578,193.968 348.578,214.666 348.550 C 235.365 348.522,218.370 348.499,176.900 348.499 C 135.430 348.499,118.495 348.522,139.266 348.550 M82.600 351.700 C 83.197 352.305,83.731 352.800,83.786 352.800 C 83.841 352.800,83.397 352.305,82.800 351.700 C 82.203 351.095,81.669 350.600,81.614 350.600 C 81.559 350.600,82.003 351.095,82.600 351.700 M271.393 351.750 L 270.300 352.900 271.450 351.807 C 272.082 351.206,272.600 350.688,272.600 350.657 C 272.600 350.508,272.409 350.682,271.393 351.750 " stroke="none" fill="#ccdcdc" fill-rule="evenodd"></path><path id="path4" d="M146.352 40.141 C 146.601 40.189,146.961 40.187,147.152 40.137 C 147.344 40.087,147.140 40.048,146.700 40.050 C 146.260 40.053,146.104 40.094,146.352 40.141 M128.491 48.250 L 127.700 49.100 128.550 48.309 C 129.340 47.574,129.492 47.400,129.341 47.400 C 129.308 47.400,128.925 47.782,128.491 48.250 M309.200 56.500 C 309.573 56.885,309.923 57.200,309.978 57.200 C 310.033 57.200,309.773 56.885,309.400 56.500 C 309.027 56.115,308.677 55.800,308.622 55.800 C 308.567 55.800,308.827 56.115,309.200 56.500 M132.570 62.850 C 132.653 62.933,164.981 62.978,204.410 62.950 L 276.100 62.900 204.260 62.800 C 164.748 62.745,132.488 62.768,132.570 62.850 M314.299 177.200 C 314.299 237.425,314.322 262.062,314.350 231.950 C 314.378 201.837,314.378 152.562,314.350 122.450 C 314.322 92.337,314.299 116.975,314.299 177.200 M325.699 177.300 C 325.699 237.250,325.722 261.805,325.750 231.866 C 325.778 201.928,325.778 152.878,325.750 122.866 C 325.722 92.855,325.699 117.350,325.699 177.300 M124.650 74.338 C 124.843 74.388,125.158 74.388,125.350 74.338 C 125.543 74.288,125.385 74.246,125.000 74.246 C 124.615 74.246,124.458 74.288,124.650 74.338 M274.650 74.338 C 274.843 74.388,275.157 74.388,275.350 74.338 C 275.543 74.288,275.385 74.246,275.000 74.246 C 274.615 74.246,274.457 74.288,274.650 74.338 M82.789 93.950 L 82.100 94.700 82.850 94.011 C 83.263 93.632,83.600 93.294,83.600 93.261 C 83.600 93.108,83.431 93.252,82.789 93.950 M139.566 97.150 C 160.173 97.178,193.833 97.178,214.366 97.150 C 234.900 97.122,218.040 97.099,176.900 97.099 C 135.760 97.099,118.960 97.122,139.566 97.150 M74.299 222.100 C 74.299 282.490,74.322 307.165,74.350 276.934 C 74.378 246.702,74.378 197.292,74.350 167.134 C 74.322 136.975,74.299 161.710,74.299 222.100 M85.699 223.200 C 85.699 283.315,85.722 307.907,85.750 277.850 C 85.778 247.792,85.778 198.607,85.750 168.550 C 85.722 138.492,85.699 163.085,85.699 223.200 M239.650 125.738 C 239.843 125.788,240.157 125.788,240.350 125.738 C 240.543 125.688,240.385 125.646,240.000 125.646 C 239.615 125.646,239.457 125.688,239.650 125.738 M257.057 131.500 C 257.059 132.050,257.098 132.251,257.144 131.947 C 257.189 131.643,257.188 131.193,257.141 130.947 C 257.093 130.701,257.056 130.950,257.057 131.500 M222.846 131.800 C 222.846 132.185,222.888 132.343,222.938 132.150 C 222.988 131.958,222.988 131.643,222.938 131.450 C 222.888 131.258,222.846 131.415,222.846 131.800 M154.246 142.800 C 154.246 143.185,154.288 143.343,154.338 143.150 C 154.388 142.958,154.388 142.643,154.338 142.450 C 154.288 142.258,154.246 142.415,154.246 142.800 M211.399 151.950 L 205.100 158.300 211.450 152.001 C 217.351 146.147,217.890 145.600,217.749 145.600 C 217.721 145.600,214.863 148.458,211.399 151.950 M239.150 148.545 C 239.507 148.589,240.093 148.589,240.450 148.545 C 240.808 148.500,240.515 148.464,239.800 148.464 C 239.085 148.464,238.793 148.500,239.150 148.545 M113.853 171.544 C 114.157 171.589,114.607 171.588,114.853 171.541 C 115.099 171.493,114.850 171.456,114.300 171.457 C 113.750 171.459,113.549 171.498,113.853 171.544 M193.346 188.544 C 193.701 188.589,194.331 188.589,194.746 188.546 C 195.160 188.503,194.870 188.467,194.100 188.466 C 193.330 188.465,192.990 188.500,193.346 188.544 M245.647 222.750 L 245.600 228.399 177.050 228.450 L 108.500 228.501 177.056 228.550 C 232.164 228.590,245.632 228.550,245.710 228.347 C 245.763 228.208,245.781 225.621,245.750 222.597 L 245.693 217.100 245.647 222.750 M245.688 245.700 C 245.688 248.890,245.716 250.167,245.750 248.538 C 245.783 246.909,245.783 244.299,245.749 242.738 C 245.716 241.177,245.688 242.510,245.688 245.700 M136.550 262.946 C 137.018 262.989,137.782 262.989,138.250 262.946 C 138.718 262.904,138.335 262.870,137.400 262.870 C 136.465 262.870,136.083 262.904,136.550 262.946 M182.888 274.300 C 182.888 277.490,182.916 278.767,182.950 277.138 C 182.983 275.509,182.983 272.899,182.949 271.338 C 182.916 269.777,182.888 271.110,182.888 274.300 M245.688 274.300 C 245.688 277.490,245.716 278.767,245.750 277.138 C 245.783 275.509,245.783 272.899,245.749 271.338 C 245.716 269.777,245.688 271.110,245.688 274.300 M161.100 272.800 C 161.530 273.240,161.926 273.600,161.981 273.600 C 162.036 273.600,161.730 273.240,161.300 272.800 C 160.870 272.360,160.474 272.000,160.419 272.000 C 160.364 272.000,160.670 272.360,161.100 272.800 M115.172 291.452 C 115.256 291.536,118.964 291.581,123.412 291.552 L 131.500 291.500 123.260 291.400 C 118.728 291.345,115.088 291.369,115.172 291.452 M182.847 297.149 L 182.894 302.900 182.950 297.250 L 183.006 291.600 214.300 291.600 L 245.594 291.600 245.652 297.150 L 245.709 302.700 245.705 297.100 L 245.700 291.500 214.250 291.449 L 182.800 291.399 182.847 297.149 M102.870 297.000 C 102.870 297.935,102.904 298.318,102.946 297.850 C 102.989 297.382,102.989 296.618,102.946 296.150 C 102.904 295.683,102.870 296.065,102.870 297.000 M182.888 320.000 C 182.888 323.135,182.916 324.418,182.950 322.850 C 182.983 321.283,182.983 318.718,182.950 317.150 C 182.916 315.582,182.888 316.865,182.888 320.000 M245.688 320.000 C 245.688 323.135,245.716 324.418,245.750 322.850 C 245.783 321.283,245.783 318.718,245.750 317.150 C 245.716 315.582,245.688 316.865,245.688 320.000 M90.700 343.600 C 91.130 344.040,91.526 344.400,91.581 344.400 C 91.636 344.400,91.330 344.040,90.900 343.600 C 90.470 343.160,90.074 342.800,90.019 342.800 C 89.964 342.800,90.270 343.160,90.700 343.600 " stroke="none" fill="#93b4b4" fill-rule="evenodd"></path></g></svg>