<svg id="svg" version="1.1" xmlns="http://www.w3.org/2000/svg" xmlns:xlink="http://www.w3.org/1999/xlink" width="400" height="400" viewBox="0, 0, 400,400"><g id="svgg"><path id="path0" d="M53.900 40.228 C 47.470 41.042,42.287 45.693,40.551 52.207 L 40.100 53.900 40.100 109.400 L 40.100 164.900 40.529 166.505 C 42.187 172.708,46.908 177.122,53.167 178.319 C 54.373 178.550,58.585 178.600,76.718 178.600 L 98.800 178.600 98.800 189.961 L 98.800 201.321 99.316 202.356 C 100.294 204.320,101.994 205.284,104.275 205.169 C 106.851 205.039,106.393 205.511,117.740 191.291 L 127.857 178.612 146.678 178.548 C 167.862 178.477,166.244 178.594,169.700 176.892 C 173.802 174.873,176.678 171.454,178.026 166.995 C 178.461 165.553,178.480 165.170,178.551 156.150 L 178.625 146.800 173.320 146.800 L 168.016 146.800 167.958 155.550 C 167.905 163.474,167.867 164.361,167.546 164.947 C 166.986 165.973,166.007 166.986,165.119 167.462 L 164.300 167.900 144.200 168.000 L 124.100 168.100 123.000 168.641 C 121.976 169.145,121.465 169.724,115.600 177.041 L 109.300 184.900 109.200 178.300 C 109.088 170.880,109.074 170.809,107.476 169.406 C 105.877 168.002,108.014 168.111,79.900 168.000 C 51.507 167.888,53.819 168.019,52.240 166.440 C 51.773 165.973,51.272 165.180,51.023 164.515 L 50.600 163.385 50.600 109.328 C 50.600 48.962,50.465 54.291,52.039 52.503 C 52.485 51.997,53.220 51.385,53.674 51.142 L 54.500 50.700 109.300 50.700 L 164.100 50.700 165.100 51.221 C 167.835 52.648,168.000 53.352,168.000 63.573 L 168.000 72.000 173.300 72.000 L 178.600 72.000 178.600 63.318 C 178.600 54.143,178.520 53.114,177.611 50.512 C 175.686 45.007,170.441 40.890,164.482 40.207 C 162.240 39.951,55.935 39.970,53.900 40.228 M235.252 40.219 C 229.241 40.925,224.184 45.181,222.127 51.267 L 221.507 53.100 221.441 62.550 L 221.375 72.000 226.688 72.000 L 232.000 72.000 232.000 63.573 C 232.000 53.352,232.165 52.648,234.900 51.221 L 235.900 50.700 290.700 50.700 L 345.500 50.700 346.326 51.142 C 346.780 51.385,347.515 51.997,347.961 52.503 C 349.535 54.291,349.400 48.962,349.400 109.328 L 349.400 163.385 348.977 164.515 C 348.728 165.180,348.227 165.973,347.760 166.440 C 346.181 168.019,348.493 167.888,320.100 168.000 C 291.986 168.111,294.123 168.002,292.524 169.406 C 290.926 170.809,290.912 170.880,290.800 178.300 L 290.700 184.900 284.400 177.041 C 278.535 169.724,278.024 169.145,277.000 168.641 L 275.900 168.100 255.800 168.000 L 235.700 167.900 234.881 167.462 C 233.993 166.986,233.014 165.973,232.454 164.947 C 232.133 164.361,232.095 163.474,232.042 155.550 L 231.984 146.800 226.680 146.800 L 221.375 146.800 221.449 156.150 C 221.520 165.170,221.539 165.553,221.974 166.995 C 223.322 171.454,226.198 174.873,230.300 176.892 C 233.756 178.594,232.138 178.477,253.321 178.548 L 272.143 178.612 282.267 191.295 C 293.615 205.511,293.157 205.039,295.725 205.169 C 298.006 205.284,299.706 204.320,300.684 202.356 L 301.200 201.321 301.200 189.961 L 301.200 178.600 323.278 178.600 C 342.099 178.600,345.590 178.556,346.943 178.299 C 353.277 177.097,358.337 172.114,359.633 165.800 C 359.852 164.735,359.900 154.514,359.900 109.200 L 359.900 53.900 359.449 52.207 C 357.878 46.312,353.845 42.244,347.900 40.555 L 346.300 40.100 291.500 40.074 C 261.360 40.060,236.048 40.125,235.252 40.219 M104.320 67.008 C 103.671 67.110,103.104 67.229,103.060 67.273 C 103.016 67.317,103.327 69.636,103.751 72.427 L 104.522 77.500 105.311 77.471 C 107.855 77.377,112.980 77.405,113.265 77.514 C 113.503 77.606,113.603 77.535,113.609 77.271 C 113.614 77.067,113.918 74.695,114.286 72.000 C 114.654 69.305,114.919 67.062,114.877 67.017 C 114.713 66.840,105.439 66.832,104.320 67.008 M281.645 67.287 C 277.897 68.679,275.600 72.007,275.600 76.045 C 275.600 76.800,275.572 76.829,274.328 77.388 C 273.628 77.702,272.131 78.517,271.002 79.199 L 268.949 80.439 267.424 79.726 C 263.540 77.908,259.611 78.481,256.746 81.282 C 255.768 82.239,250.346 90.863,248.926 93.721 C 246.850 97.901,248.747 103.267,253.020 105.303 L 253.741 105.646 253.745 109.287 L 253.749 112.928 252.825 113.410 C 249.001 115.404,247.081 120.251,248.567 124.161 C 249.061 125.462,255.329 135.816,256.325 136.978 C 259.008 140.104,263.466 140.847,267.534 138.847 L 268.969 138.141 270.546 139.153 C 271.413 139.709,272.905 140.553,273.861 141.027 L 275.600 141.889 275.600 142.835 C 275.600 146.803,278.189 150.343,281.966 151.541 C 283.711 152.094,297.761 152.083,299.400 151.527 C 303.021 150.298,305.283 147.364,305.578 143.511 L 305.700 141.923 307.600 140.949 C 308.645 140.413,310.148 139.572,310.940 139.079 L 312.380 138.184 313.540 138.770 C 317.664 140.851,321.882 140.234,324.848 137.116 C 325.897 136.013,332.316 125.420,332.821 123.960 C 334.234 119.867,332.469 115.884,328.042 113.180 C 327.596 112.907,327.583 112.812,327.542 109.372 L 327.500 105.845 328.500 105.283 C 332.198 103.206,334.030 98.900,332.881 94.986 C 332.457 93.543,326.206 83.115,324.878 81.637 C 322.135 78.583,317.982 77.912,313.779 79.843 L 312.312 80.518 310.606 79.443 C 309.668 78.852,308.168 78.013,307.274 77.579 L 305.648 76.789 305.565 75.041 C 305.390 71.389,303.112 68.443,299.503 67.201 C 297.583 66.541,283.471 66.609,281.645 67.287 M124.589 75.156 C 123.440 77.742,122.475 79.918,122.445 79.992 C 122.415 80.066,122.865 80.344,123.445 80.610 C 124.934 81.291,126.857 82.472,128.564 83.756 C 129.804 84.688,130.069 84.814,130.293 84.579 C 131.030 83.801,136.798 76.901,136.789 76.808 C 136.731 76.250,130.276 72.048,127.783 70.945 L 126.677 70.456 124.589 75.156 M89.200 71.815 C 84.859 74.116,81.025 77.076,81.578 77.699 C 82.484 78.719,88.084 85.109,88.131 85.175 C 88.160 85.217,88.615 84.897,89.142 84.465 C 90.838 83.073,92.131 82.208,93.963 81.241 L 95.754 80.295 93.538 75.547 C 92.320 72.936,91.272 70.802,91.211 70.804 C 91.150 70.806,90.245 71.261,89.200 71.815 M295.248 78.636 C 295.676 82.517,297.278 84.459,301.900 86.700 C 303.330 87.393,305.220 88.434,306.100 89.012 C 310.023 91.589,313.094 91.984,316.442 90.340 L 317.785 89.681 319.892 93.148 C 322.374 97.230,322.213 96.622,321.015 97.390 C 317.948 99.358,316.566 102.581,317.035 106.670 C 317.164 107.796,317.183 109.385,317.084 110.800 C 316.682 116.575,317.749 119.343,321.150 121.339 C 322.203 121.957,322.358 121.443,319.884 125.512 L 317.769 128.991 316.826 128.513 C 313.331 126.742,309.998 127.041,306.352 129.453 C 304.298 130.812,302.949 131.547,300.910 132.420 C 297.534 133.864,295.200 137.134,295.200 140.418 L 295.200 141.400 290.744 141.400 L 286.289 141.400 286.060 139.726 C 285.573 136.152,283.631 133.776,279.853 132.135 C 278.632 131.604,276.662 130.538,275.476 129.766 C 271.241 127.010,268.249 126.663,264.562 128.503 C 263.865 128.851,263.578 128.911,263.443 128.735 C 263.153 128.359,259.400 122.050,259.400 121.939 C 259.400 121.883,259.786 121.612,260.257 121.336 C 261.518 120.597,262.939 118.973,263.663 117.445 L 264.300 116.100 264.251 112.123 C 264.224 109.935,264.286 107.404,264.389 106.497 C 264.833 102.594,263.394 99.321,260.385 97.390 C 259.189 96.623,259.054 97.184,261.327 93.459 C 263.820 89.373,263.468 89.666,265.014 90.388 C 268.434 91.986,271.318 91.590,275.366 88.968 C 276.397 88.300,278.289 87.259,279.570 86.655 C 284.041 84.549,286.200 81.832,286.200 78.312 C 286.200 77.140,286.001 77.187,290.787 77.246 L 295.100 77.300 295.248 78.636 M210.650 88.050 L 207.005 91.700 213.019 97.850 L 219.033 104.000 190.917 104.000 L 162.800 104.000 162.800 109.300 L 162.800 114.600 190.900 114.600 C 206.355 114.600,219.000 114.667,219.000 114.749 C 219.000 114.831,216.300 117.599,213.000 120.900 L 206.999 126.903 210.753 130.653 L 214.506 134.402 225.341 123.551 C 237.320 111.555,237.199 111.701,237.194 109.300 C 237.189 107.078,237.341 107.258,225.443 95.350 C 219.425 89.328,214.455 84.400,214.399 84.400 C 214.342 84.400,212.655 86.043,210.650 88.050 M140.600 88.823 C 138.235 90.373,136.268 91.672,136.228 91.709 C 136.189 91.746,136.485 92.317,136.886 92.978 C 137.756 94.409,139.008 97.091,139.486 98.548 C 139.676 99.124,139.910 99.645,140.008 99.705 C 140.205 99.827,149.594 97.048,149.883 96.782 C 150.351 96.352,145.582 85.968,144.932 86.002 C 144.914 86.003,142.965 87.272,140.600 88.823 M72.515 87.861 C 70.811 90.907,68.160 97.227,68.460 97.527 C 68.553 97.619,78.151 100.400,78.378 100.400 C 78.472 100.400,78.758 99.748,79.013 98.950 C 79.268 98.153,80.081 96.303,80.819 94.840 L 82.161 92.180 81.331 91.657 C 80.874 91.368,78.894 90.113,76.930 88.866 C 72.712 86.188,73.367 86.337,72.515 87.861 M287.023 91.109 C 268.942 95.031,266.704 119.656,283.797 126.612 C 299.165 132.866,314.506 116.623,307.518 101.497 C 303.997 93.877,295.084 89.360,287.023 91.109 M293.317 101.764 C 295.858 102.543,298.188 105.378,298.564 108.149 C 299.604 115.814,290.379 120.404,284.967 114.915 C 279.084 108.947,285.221 99.282,293.317 101.764 M147.000 109.109 C 144.635 109.248,142.426 109.370,142.090 109.380 L 141.481 109.400 141.242 111.950 C 141.110 113.353,140.864 115.130,140.694 115.900 C 140.524 116.670,140.335 117.531,140.275 117.813 C 140.159 118.351,149.788 121.504,150.208 121.065 C 151.068 120.164,152.423 108.768,151.662 108.829 C 151.463 108.844,149.365 108.971,147.000 109.109 M66.862 112.050 C 67.041 115.601,68.166 121.407,68.672 121.394 C 69.537 121.373,78.495 118.439,78.463 118.188 C 78.442 118.030,78.241 117.045,78.016 116.000 C 77.790 114.955,77.555 113.380,77.493 112.500 C 77.430 111.620,77.335 110.608,77.281 110.250 L 77.182 109.600 71.961 109.600 L 66.739 109.600 66.862 112.050 M135.300 128.071 C 134.750 128.846,133.425 130.391,132.356 131.507 L 130.412 133.535 133.524 137.117 C 135.235 139.088,136.808 140.878,137.018 141.095 C 137.578 141.673,141.681 137.510,144.185 133.822 C 145.253 132.249,145.388 132.482,142.250 130.480 C 140.738 129.515,138.780 128.261,137.900 127.695 L 136.300 126.664 135.300 128.071 M78.040 129.651 C 75.607 131.218,73.614 132.545,73.611 132.600 C 73.585 133.151,79.238 139.763,80.776 140.981 L 81.548 141.593 84.956 137.622 L 88.363 133.652 87.064 132.376 C 85.703 131.040,83.823 128.825,82.967 127.551 L 82.465 126.803 78.040 129.651 M95.596 139.850 C 95.276 140.537,94.298 142.675,93.424 144.600 L 91.834 148.100 92.470 148.431 C 94.132 149.295,98.711 150.679,101.825 151.259 L 103.350 151.542 103.982 146.921 C 104.330 144.380,104.664 142.023,104.723 141.685 L 104.831 141.070 103.366 140.809 C 101.610 140.496,99.371 139.840,97.616 139.124 C 96.909 138.836,96.297 138.600,96.255 138.600 C 96.213 138.600,95.917 139.162,95.596 139.850 M121.400 139.017 C 120.193 139.565,116.876 140.540,115.269 140.820 C 114.093 141.025,113.978 141.088,114.064 141.473 C 114.117 141.708,114.461 144.004,114.829 146.575 C 115.607 152.020,115.265 151.612,118.455 150.905 C 121.108 150.316,126.547 148.519,126.978 148.088 C 127.119 147.948,122.705 138.602,122.500 138.605 C 122.390 138.607,121.895 138.793,121.400 139.017 M85.780 221.796 C 71.811 224.402,62.109 235.458,61.468 249.500 C 61.053 258.589,65.584 268.419,72.577 273.600 C 74.247 274.838,74.359 274.800,69.050 274.801 C 63.703 274.802,61.757 275.031,58.651 276.026 C 49.197 279.054,42.511 286.642,40.461 296.669 C 40.160 298.141,40.121 301.314,40.057 329.150 L 39.986 360.000 45.293 360.000 L 50.600 360.000 50.600 330.037 C 50.600 309.978,50.669 299.681,50.810 298.887 C 52.132 291.425,57.837 286.131,65.343 285.401 C 67.889 285.153,119.362 285.141,121.506 285.388 C 124.307 285.710,124.621 285.893,140.397 296.399 C 154.781 305.979,155.382 306.356,156.617 306.566 C 158.194 306.834,188.869 311.200,189.178 311.200 C 189.331 311.200,189.400 312.161,189.400 314.300 L 189.400 317.400 173.993 317.400 L 158.586 317.400 142.743 309.460 C 127.460 301.801,126.854 301.517,125.600 301.443 C 123.443 301.315,121.531 302.421,120.571 304.352 L 120.100 305.300 120.047 332.650 L 119.993 360.000 125.297 360.000 L 130.600 360.000 130.600 337.602 L 130.600 315.203 143.308 321.552 L 156.015 327.900 175.958 327.900 C 202.383 327.900,199.862 329.240,199.962 315.141 C 200.029 305.476,199.970 304.877,198.796 303.395 C 197.459 301.707,198.138 301.851,177.732 298.910 L 159.273 296.248 145.186 286.874 C 131.014 277.443,129.267 276.381,126.700 275.639 C 123.963 274.848,123.321 274.800,115.390 274.800 C 111.106 274.800,107.600 274.728,107.600 274.641 C 107.600 274.554,108.072 274.127,108.650 273.692 C 118.625 266.187,122.500 252.374,118.026 240.266 C 113.264 227.378,99.160 219.300,85.780 221.796 M302.061 221.706 C 287.929 224.291,278.112 235.386,277.468 249.500 C 277.053 258.589,281.584 268.419,288.577 273.600 C 289.245 274.095,289.793 274.563,289.796 274.639 C 289.798 274.716,285.593 274.810,280.450 274.850 L 271.100 274.921 269.200 275.464 C 261.631 277.628,256.128 283.163,254.050 290.705 L 253.500 292.700 253.446 326.350 L 253.391 360.000 258.696 360.000 L 264.000 360.000 264.000 327.279 C 264.000 298.071,264.034 294.426,264.317 293.329 C 265.246 289.723,267.979 286.915,271.700 285.742 L 273.100 285.300 306.700 285.300 C 338.685 285.300,340.358 285.318,341.500 285.666 C 345.035 286.744,347.673 289.318,348.953 292.941 C 349.265 293.825,349.296 296.485,349.350 326.950 L 349.408 360.000 354.710 360.000 L 360.012 360.000 359.950 326.550 L 359.887 293.100 359.437 291.400 C 357.102 282.582,351.191 276.880,342.558 275.115 C 341.294 274.857,339.449 274.800,332.308 274.800 C 327.519 274.800,323.600 274.728,323.600 274.641 C 323.600 274.554,324.072 274.127,324.650 273.692 C 336.433 264.827,339.427 247.395,331.312 234.900 C 324.960 225.119,312.970 219.711,302.061 221.706 M95.600 232.596 C 109.454 236.479,113.966 253.644,103.802 263.800 C 91.942 275.649,72.099 267.380,72.125 250.600 C 72.144 238.239,83.811 229.291,95.600 232.596 M311.600 232.594 C 324.958 236.355,329.855 253.127,320.519 263.143 C 308.702 275.821,288.098 267.843,288.125 250.600 C 288.144 238.234,299.820 229.278,311.600 232.594 M274.800 330.700 L 274.800 360.000 280.000 360.000 L 285.200 360.000 285.200 330.700 L 285.200 301.400 280.000 301.400 L 274.800 301.400 274.800 330.700 M328.000 330.700 L 328.000 360.000 333.300 360.000 L 338.600 360.000 338.600 330.700 L 338.600 301.400 333.300 301.400 L 328.000 301.400 328.000 330.700 " stroke="none" fill="#3c747c" fill-rule="evenodd"></path><path id="path1" d="M0.000 200.000 L 0.000 400.000 200.000 400.000 L 400.000 400.000 400.000 200.000 L 400.000 0.000 200.000 0.000 L 0.000 0.000 0.000 200.000 M165.957 40.318 C 171.906 41.547,176.561 46.015,178.230 52.100 C 178.645 53.614,178.673 54.191,178.752 62.850 L 178.835 72.000 173.427 72.000 L 168.020 72.000 167.960 63.450 C 167.888 53.201,167.735 52.590,164.908 51.273 L 163.900 50.804 109.273 50.802 L 54.646 50.800 53.595 51.350 C 52.846 51.742,52.308 52.234,51.722 53.064 L 50.900 54.228 50.900 109.280 L 50.900 164.331 51.504 165.309 C 53.261 168.151,51.611 167.998,80.716 168.009 C 100.317 168.016,105.244 168.069,105.835 168.280 C 106.970 168.685,108.162 169.743,108.759 170.874 L 109.300 171.900 109.400 178.189 L 109.500 184.478 115.359 177.152 C 121.139 169.924,122.134 168.802,123.172 168.337 C 123.562 168.162,128.947 168.074,143.800 168.000 C 166.630 167.886,164.813 168.034,166.497 166.162 C 167.882 164.621,167.872 164.697,167.950 155.150 L 168.020 146.600 173.410 146.600 L 178.800 146.600 178.798 154.650 C 178.797 159.078,178.706 163.496,178.594 164.469 C 177.959 170.009,174.649 174.610,169.495 177.118 C 166.151 178.744,167.238 178.668,146.367 178.747 L 127.833 178.817 117.731 191.459 C 111.959 198.681,107.344 204.279,106.964 204.518 C 103.902 206.448,99.764 204.884,98.807 201.435 C 98.679 200.976,98.602 196.588,98.601 189.758 L 98.600 178.816 76.150 178.747 C 55.197 178.682,53.607 178.653,52.300 178.312 C 47.247 176.995,43.008 173.335,41.101 168.640 C 39.919 165.731,39.985 169.496,40.045 108.600 L 40.100 52.900 40.573 51.500 C 42.564 45.606,46.936 41.541,52.606 40.312 C 54.695 39.859,163.763 39.865,165.957 40.318 M349.000 40.762 C 354.099 42.538,357.626 46.170,359.427 51.500 L 359.900 52.900 359.955 108.600 C 360.005 158.989,359.979 164.453,359.690 165.900 C 358.340 172.654,352.654 177.794,345.645 178.597 C 344.590 178.718,335.502 178.797,322.656 178.798 L 301.413 178.800 301.356 190.150 L 301.300 201.500 300.678 202.600 C 299.158 205.286,295.669 206.192,293.108 204.565 C 292.646 204.271,288.652 199.442,282.268 191.459 L 272.160 178.817 253.630 178.747 C 232.763 178.668,233.849 178.744,230.505 177.118 C 226.113 174.981,223.037 171.294,221.751 166.627 C 221.359 165.201,221.325 164.487,221.248 155.850 L 221.166 146.600 226.573 146.600 L 231.980 146.600 232.050 155.150 C 232.128 164.697,232.118 164.621,233.503 166.162 C 235.187 168.034,233.370 167.886,256.200 168.000 C 271.053 168.074,276.438 168.162,276.828 168.337 C 277.866 168.802,278.861 169.924,284.641 177.152 L 290.500 184.478 290.600 178.189 L 290.700 171.900 291.241 170.874 C 291.838 169.743,293.030 168.685,294.165 168.280 C 294.756 168.069,299.683 168.016,319.284 168.009 C 348.389 167.998,346.739 168.151,348.496 165.309 L 349.100 164.331 349.100 109.280 L 349.100 54.228 348.278 53.064 C 347.692 52.234,347.154 51.742,346.405 51.350 L 345.354 50.800 290.727 50.802 L 236.100 50.804 235.092 51.273 C 232.265 52.590,232.112 53.201,232.040 63.450 L 231.980 72.000 226.574 72.000 L 221.168 72.000 221.248 62.850 C 221.324 54.171,221.350 53.618,221.768 52.100 C 223.428 46.076,228.057 41.588,233.912 40.329 C 235.126 40.068,242.298 40.035,291.200 40.065 L 347.100 40.100 349.000 40.762 M113.382 66.805 C 114.197 66.910,114.906 67.040,114.958 67.092 C 115.010 67.143,114.744 69.507,114.368 72.343 L 113.682 77.500 110.991 77.437 C 109.511 77.402,107.449 77.466,106.409 77.579 C 105.369 77.692,104.498 77.765,104.475 77.742 C 104.420 77.687,102.995 68.263,102.941 67.600 C 102.872 66.760,109.276 66.272,113.382 66.805 M299.259 67.002 C 303.116 68.193,305.789 71.715,305.798 75.616 L 305.800 76.732 306.847 77.216 C 307.423 77.482,308.903 78.304,310.134 79.043 L 312.374 80.386 313.837 79.718 C 317.916 77.856,321.755 78.402,324.655 81.256 C 325.975 82.555,332.260 92.829,332.941 94.800 C 334.281 98.680,332.319 103.396,328.528 105.407 L 327.700 105.846 327.718 109.345 L 327.737 112.844 328.794 113.496 C 332.783 115.956,334.464 120.704,332.706 124.544 C 331.721 126.694,325.914 136.065,324.858 137.208 C 321.981 140.322,318.139 140.967,313.935 139.040 C 312.527 138.395,312.326 138.351,311.935 138.602 C 310.332 139.631,308.184 140.840,307.092 141.328 L 305.811 141.900 305.805 142.908 C 305.784 146.841,303.131 150.464,299.437 151.605 C 297.790 152.114,284.093 152.206,282.270 151.721 C 278.582 150.739,275.996 147.623,275.550 143.624 L 275.354 141.868 273.776 141.101 C 272.908 140.679,271.469 139.867,270.577 139.297 L 268.955 138.260 267.616 138.947 C 263.570 141.023,258.760 140.178,256.117 136.927 C 255.254 135.867,249.307 126.081,248.633 124.614 C 246.844 120.719,248.578 115.830,252.603 113.423 L 253.700 112.766 253.700 109.310 L 253.700 105.855 252.532 105.177 C 248.465 102.819,246.806 97.686,248.821 93.692 C 250.343 90.674,255.702 82.161,256.694 81.183 C 259.535 78.386,263.806 77.782,267.531 79.652 L 268.914 80.346 270.976 79.086 C 272.110 78.394,273.604 77.580,274.296 77.279 L 275.554 76.731 275.644 75.015 C 275.837 71.303,278.130 68.371,281.825 67.113 C 283.911 66.402,297.047 66.319,299.259 67.002 M128.983 71.423 C 132.044 73.058,137.069 76.472,136.946 76.834 C 136.921 76.907,135.537 78.572,133.872 80.534 C 132.206 82.495,130.673 84.311,130.465 84.569 L 130.086 85.037 128.234 83.647 C 127.216 82.882,125.486 81.788,124.391 81.215 C 122.008 79.969,122.040 80.600,124.126 75.948 C 125.075 73.832,126.017 71.718,126.219 71.250 C 126.677 70.188,126.668 70.187,128.983 71.423 M93.570 75.350 C 96.201 80.946,96.077 80.255,94.588 81.006 C 92.880 81.868,90.909 83.160,89.459 84.367 L 88.218 85.400 84.759 81.481 C 82.856 79.325,81.274 77.492,81.242 77.407 C 81.034 76.853,90.186 70.600,91.205 70.600 C 91.278 70.600,92.342 72.737,93.570 75.350 M286.250 78.906 C 285.717 82.704,283.938 84.788,279.505 86.807 C 278.352 87.332,276.488 88.371,275.363 89.115 C 271.374 91.754,268.182 92.121,264.687 90.345 L 263.674 89.831 261.637 93.187 C 259.245 97.129,259.379 96.616,260.550 97.368 C 262.295 98.488,263.486 100.057,264.168 102.134 C 264.697 103.748,264.658 115.329,264.118 116.791 C 263.422 118.676,261.944 120.455,260.265 121.429 L 259.429 121.914 261.431 125.207 C 262.531 127.018,263.494 128.564,263.569 128.643 C 263.645 128.722,264.170 128.564,264.737 128.293 C 268.327 126.575,271.183 126.880,275.102 129.400 C 276.311 130.178,277.863 131.080,278.550 131.407 C 279.238 131.733,280.407 132.285,281.150 132.632 C 283.603 133.782,285.764 136.611,286.094 139.108 C 286.167 139.653,286.272 140.347,286.329 140.650 L 286.432 141.200 290.680 141.200 L 294.928 141.200 295.169 139.650 C 295.714 136.142,297.624 133.743,301.100 132.201 C 302.934 131.388,304.444 130.544,307.400 128.681 C 310.204 126.913,313.606 126.777,316.658 128.310 C 317.211 128.588,317.731 128.745,317.812 128.658 C 318.085 128.366,321.800 122.140,321.800 121.974 C 321.800 121.884,321.516 121.663,321.169 121.484 C 319.486 120.614,317.740 118.360,317.152 116.300 C 316.683 114.657,316.804 103.017,317.303 101.800 C 318.123 99.799,319.244 98.399,320.850 97.368 C 322.027 96.613,322.150 97.095,319.775 93.168 L 317.749 89.819 316.725 90.340 C 313.208 92.126,310.155 91.780,306.100 89.135 C 304.531 88.112,303.114 87.367,299.923 85.889 C 297.603 84.814,295.604 81.892,295.177 78.950 L 294.951 77.400 290.706 77.400 L 286.461 77.400 286.250 78.906 M225.432 95.150 C 237.423 107.162,237.279 106.990,237.292 109.300 C 237.305 111.643,237.509 111.400,225.405 123.499 L 214.401 134.497 210.600 130.700 L 206.799 126.903 212.848 120.852 L 218.898 114.800 190.749 114.800 L 162.600 114.800 162.600 109.400 L 162.600 104.000 190.849 104.000 L 219.098 104.000 212.949 97.849 L 206.801 91.698 210.550 87.949 C 212.612 85.887,214.344 84.200,214.400 84.200 C 214.456 84.200,219.420 89.127,225.432 95.150 M146.070 87.550 C 147.711 90.351,150.466 96.669,150.149 96.905 C 150.008 97.011,139.949 100.013,139.912 99.961 C 139.887 99.928,139.658 99.315,139.402 98.600 C 138.797 96.906,137.610 94.404,136.705 92.912 C 136.158 92.011,136.046 91.687,136.242 91.568 C 136.384 91.482,138.390 90.162,140.700 88.635 C 143.010 87.109,144.959 85.891,145.031 85.930 C 145.103 85.968,145.571 86.698,146.070 87.550 M77.600 89.166 C 79.415 90.316,81.236 91.470,81.648 91.730 L 82.395 92.202 81.798 93.172 C 80.959 94.536,79.721 97.230,79.121 99.000 C 78.684 100.288,78.552 100.493,78.183 100.448 C 77.569 100.374,68.526 97.770,68.371 97.623 C 68.016 97.284,70.381 91.445,72.130 88.339 L 73.235 86.377 73.768 86.726 C 74.060 86.918,75.785 88.016,77.600 89.166 M293.750 90.902 C 311.546 94.278,315.139 117.398,299.200 125.970 C 291.157 130.295,280.244 127.492,275.176 119.800 C 266.172 106.133,277.895 87.895,293.750 90.902 M289.026 101.616 C 284.222 102.560,281.422 108.181,283.535 112.640 C 286.866 119.672,297.136 118.221,298.453 110.532 C 299.365 105.211,294.439 100.552,289.026 101.616 M151.939 111.550 C 151.786 115.016,150.672 121.417,150.228 121.393 C 149.931 121.377,140.183 118.449,140.078 118.345 C 140.015 118.281,140.098 117.750,140.264 117.165 C 140.689 115.658,141.030 113.426,141.175 111.206 L 141.300 109.300 145.000 109.081 C 147.035 108.960,149.456 108.848,150.381 108.831 L 152.061 108.800 151.939 111.550 M77.471 111.250 C 77.601 113.099,77.955 115.372,78.421 117.349 C 78.557 117.926,78.617 118.450,78.553 118.513 C 78.368 118.698,68.543 121.609,68.442 121.509 C 67.959 121.025,66.878 114.939,66.669 111.520 L 66.539 109.400 71.940 109.400 L 77.341 109.400 77.471 111.250 M140.647 129.319 C 142.986 130.814,144.982 132.116,145.083 132.212 C 145.559 132.665,139.798 139.778,137.807 141.195 L 137.263 141.583 133.881 137.683 C 132.022 135.539,130.470 133.698,130.434 133.593 C 130.397 133.488,131.104 132.659,132.005 131.751 C 132.906 130.843,134.228 129.313,134.944 128.350 C 135.660 127.388,136.279 126.600,136.320 126.600 C 136.360 126.600,138.307 127.823,140.647 129.319 M83.524 128.150 C 84.052 128.893,85.373 130.416,86.459 131.536 C 87.882 133.002,88.388 133.651,88.268 133.854 C 88.175 134.008,86.624 135.854,84.821 137.956 L 81.542 141.777 80.376 140.763 C 77.879 138.591,73.375 132.984,73.719 132.475 C 73.909 132.194,82.185 126.800,82.426 126.800 C 82.502 126.800,82.997 127.408,83.524 128.150 M97.622 139.013 C 99.148 139.646,103.292 140.798,104.064 140.803 C 104.979 140.809,104.980 140.871,104.210 146.248 C 103.804 149.079,103.414 151.453,103.343 151.524 C 102.815 152.052,91.801 148.807,91.800 148.124 C 91.799 147.946,96.039 138.410,96.122 138.402 C 96.135 138.401,96.810 138.676,97.622 139.013 M124.915 143.118 C 126.117 145.713,127.125 147.904,127.157 147.988 C 127.370 148.560,115.972 152.039,115.484 151.551 C 115.103 151.170,113.924 141.009,114.250 140.918 C 114.388 140.880,115.670 140.570,117.100 140.229 C 118.530 139.888,120.330 139.339,121.100 139.010 C 121.870 138.680,122.552 138.408,122.615 138.405 C 122.679 138.402,123.714 140.523,124.915 143.118 M95.400 221.626 C 113.094 224.547,124.135 242.639,118.592 259.626 C 116.716 265.376,112.851 270.827,108.396 274.004 L 107.700 274.500 115.800 274.612 C 127.984 274.780,126.110 274.008,145.200 286.734 L 159.300 296.133 177.700 298.777 C 197.645 301.643,197.165 301.545,198.621 303.045 C 200.009 304.475,200.022 304.599,199.958 315.025 C 199.893 325.500,199.953 325.093,198.245 326.635 C 196.625 328.099,198.009 328.018,175.631 327.956 L 155.562 327.900 143.181 321.658 L 130.800 315.416 130.800 337.708 L 130.800 360.000 125.400 360.000 L 120.000 360.000 120.000 332.639 L 120.000 305.279 120.516 304.244 C 121.469 302.331,123.145 301.315,125.361 301.306 L 126.821 301.300 142.584 309.250 L 158.346 317.200 173.773 317.200 L 189.200 317.200 189.200 314.304 C 189.200 311.464,189.191 311.406,188.750 311.305 C 188.503 311.248,180.991 310.170,172.057 308.910 C 161.393 307.405,155.598 306.506,155.185 306.292 C 154.839 306.113,147.953 301.568,139.881 296.190 C 127.187 287.733,125.010 286.352,123.753 285.957 L 122.300 285.500 93.300 285.500 L 64.300 285.500 62.633 285.956 C 56.715 287.574,52.330 292.177,51.118 298.043 C 50.835 299.411,50.800 302.953,50.800 329.792 L 50.800 360.000 45.400 360.000 L 40.000 360.000 40.000 329.435 C 40.000 299.766,40.012 298.805,40.399 296.653 C 42.249 286.380,49.913 278.114,60.018 275.495 C 62.487 274.855,63.539 274.748,68.558 274.624 L 73.616 274.500 72.284 273.500 C 65.092 268.101,60.480 257.400,61.403 248.258 C 62.895 233.475,73.669 222.763,88.500 221.318 C 89.732 221.198,93.948 221.386,95.400 221.626 M311.700 221.690 C 336.972 226.281,344.702 258.165,324.392 274.041 L 323.700 274.581 332.000 274.591 C 341.004 274.602,342.428 274.724,345.400 275.740 C 352.434 278.144,357.228 283.308,359.474 290.900 C 359.885 292.288,359.889 292.586,359.948 326.150 L 360.008 360.000 354.604 360.000 L 349.200 360.000 349.200 327.279 C 349.200 298.071,349.166 294.426,348.883 293.329 C 347.921 289.598,345.061 286.762,341.289 285.797 C 339.465 285.331,275.196 285.160,272.687 285.615 C 269.036 286.277,265.781 289.145,264.556 292.781 L 264.111 294.100 264.050 327.050 L 263.990 360.000 258.595 360.000 L 253.200 360.000 253.202 327.850 C 253.203 307.325,253.277 295.049,253.407 293.900 C 254.450 284.693,260.501 277.708,269.570 275.242 C 271.485 274.721,271.569 274.716,280.557 274.608 L 289.615 274.500 288.283 273.500 C 283.402 269.834,279.299 263.117,277.899 256.500 C 273.665 236.489,291.584 218.035,311.700 221.690 M88.702 232.221 C 70.465 234.142,65.906 259.050,82.300 267.202 C 94.846 273.441,109.122 264.591,109.080 250.600 C 109.046 239.377,99.815 231.051,88.702 232.221 M304.700 232.209 C 294.714 233.154,287.176 242.398,288.213 252.425 C 289.473 264.605,301.602 272.223,313.100 268.058 C 324.798 263.821,328.971 249.169,321.315 239.219 C 317.516 234.282,311.153 231.598,304.700 232.209 M285.400 330.600 L 285.400 360.000 280.000 360.000 L 274.600 360.000 274.600 330.600 L 274.600 301.200 280.000 301.200 L 285.400 301.200 285.400 330.600 M338.751 330.650 L 338.801 360.000 333.401 360.000 L 328.000 360.000 328.000 330.597 L 328.000 301.193 333.350 301.247 L 338.700 301.300 338.751 330.650 " stroke="none" fill="#fbfbfb" fill-rule="evenodd"></path><path id="path2" d="M108.250 66.747 C 108.772 66.788,109.628 66.788,110.150 66.747 C 110.672 66.706,110.245 66.672,109.200 66.672 C 108.155 66.672,107.728 66.706,108.250 66.747 M287.237 66.750 C 289.073 66.783,292.133 66.783,294.037 66.750 C 295.942 66.717,294.440 66.690,290.700 66.690 C 286.960 66.690,285.402 66.717,287.237 66.750 M305.623 75.738 C 305.610 76.309,305.669 76.819,305.754 76.871 C 305.838 76.924,305.878 76.591,305.843 76.133 C 305.739 74.787,305.648 74.624,305.623 75.738 M288.439 77.349 C 289.615 77.384,291.595 77.385,292.839 77.349 C 294.083 77.314,293.120 77.285,290.700 77.285 C 288.280 77.285,287.263 77.314,288.439 77.349 M227.000 96.900 C 231.894 101.795,235.943 105.800,235.998 105.800 C 236.053 105.800,232.094 101.795,227.200 96.900 C 222.306 92.005,218.257 88.000,218.202 88.000 C 218.147 88.000,222.106 92.005,227.000 96.900 M290.154 90.745 C 290.513 90.789,291.053 90.789,291.354 90.743 C 291.654 90.697,291.360 90.661,290.700 90.662 C 290.040 90.663,289.794 90.700,290.154 90.745 M208.996 93.850 C 210.149 95.033,211.117 96.000,211.146 96.000 C 211.291 96.000,211.047 95.744,209.050 93.796 L 206.900 91.700 208.996 93.850 M333.250 97.300 C 333.253 97.740,333.294 97.896,333.341 97.648 C 333.389 97.399,333.387 97.039,333.337 96.848 C 333.287 96.656,333.248 96.860,333.250 97.300 M162.688 109.300 C 162.687 112.270,162.715 113.513,162.749 112.062 C 162.784 110.611,162.784 108.181,162.750 106.662 C 162.716 105.143,162.688 106.330,162.688 109.300 M253.646 107.600 C 253.646 107.985,253.688 108.142,253.738 107.950 C 253.788 107.758,253.788 107.442,253.738 107.250 C 253.688 107.058,253.646 107.215,253.646 107.600 M264.246 108.000 C 264.246 108.385,264.288 108.543,264.338 108.350 C 264.388 108.158,264.388 107.843,264.338 107.650 C 264.288 107.458,264.246 107.615,264.246 108.000 M317.046 108.000 C 317.046 108.385,317.088 108.543,317.138 108.350 C 317.188 108.158,317.188 107.843,317.138 107.650 C 317.088 107.458,317.046 107.615,317.046 108.000 M309.257 109.300 C 309.259 109.850,309.298 110.051,309.344 109.747 C 309.389 109.443,309.388 108.993,309.341 108.747 C 309.293 108.501,309.256 108.750,309.257 109.300 M327.650 109.300 C 327.653 109.740,327.694 109.896,327.741 109.648 C 327.789 109.399,327.787 109.039,327.737 108.848 C 327.687 108.656,327.648 108.860,327.650 109.300 M150.250 108.938 C 150.442 108.988,150.758 108.988,150.950 108.938 C 151.143 108.888,150.985 108.846,150.600 108.846 C 150.215 108.846,150.058 108.888,150.250 108.938 M146.250 109.138 C 146.442 109.188,146.758 109.188,146.950 109.138 C 147.143 109.088,146.985 109.046,146.600 109.046 C 146.215 109.046,146.058 109.088,146.250 109.138 M142.450 109.338 C 142.643 109.388,142.958 109.388,143.150 109.338 C 143.343 109.288,143.185 109.246,142.800 109.246 C 142.415 109.246,142.258 109.288,142.450 109.338 M141.254 110.800 C 141.254 111.295,141.293 111.498,141.341 111.250 C 141.389 111.003,141.389 110.597,141.341 110.350 C 141.293 110.103,141.254 110.305,141.254 110.800 M253.650 110.900 C 253.653 111.340,253.694 111.496,253.741 111.248 C 253.789 110.999,253.787 110.639,253.737 110.448 C 253.687 110.256,253.648 110.460,253.650 110.900 M272.046 110.800 C 272.046 111.185,272.088 111.343,272.138 111.150 C 272.188 110.958,272.188 110.642,272.138 110.450 C 272.088 110.258,272.046 110.415,272.046 110.800 M317.046 110.800 C 317.046 111.185,317.088 111.343,317.138 111.150 C 317.188 110.958,317.188 110.642,317.138 110.450 C 317.088 110.258,317.046 110.415,317.046 110.800 M151.857 111.300 C 151.859 111.850,151.898 112.051,151.944 111.747 C 151.989 111.443,151.988 110.993,151.941 110.747 C 151.893 110.501,151.856 110.750,151.857 111.300 M264.246 111.000 C 264.246 111.385,264.288 111.543,264.338 111.350 C 264.388 111.158,264.388 110.843,264.338 110.650 C 264.288 110.458,264.246 110.615,264.246 111.000 M264.460 113.800 C 264.460 114.405,264.497 114.653,264.543 114.350 C 264.589 114.047,264.589 113.553,264.543 113.250 C 264.497 112.947,264.460 113.195,264.460 113.800 M212.899 120.850 L 206.900 126.900 212.950 120.901 C 218.572 115.326,219.090 114.800,218.949 114.800 C 218.921 114.800,216.198 117.522,212.899 120.850 M333.250 121.300 C 333.253 121.740,333.294 121.896,333.341 121.648 C 333.389 121.399,333.387 121.039,333.337 120.848 C 333.287 120.656,333.248 120.860,333.250 121.300 M210.600 130.700 C 212.633 132.735,214.341 134.400,214.396 134.400 C 214.451 134.400,212.833 132.735,210.800 130.700 C 208.767 128.665,207.059 127.000,207.004 127.000 C 206.949 127.000,208.567 128.665,210.600 130.700 M291.650 127.938 C 291.843 127.988,292.157 127.988,292.350 127.938 C 292.543 127.888,292.385 127.846,292.000 127.846 C 291.615 127.846,291.457 127.888,291.650 127.938 M305.654 142.800 C 305.654 143.295,305.693 143.498,305.741 143.250 C 305.789 143.003,305.789 142.597,305.741 142.350 C 305.693 142.103,305.654 142.305,305.654 142.800 M170.662 146.750 C 172.181 146.784,174.611 146.784,176.062 146.749 C 177.513 146.715,176.270 146.687,173.300 146.688 C 170.330 146.688,169.143 146.716,170.662 146.750 M224.062 146.750 C 225.581 146.784,228.011 146.784,229.462 146.749 C 230.913 146.715,229.670 146.687,226.700 146.688 C 223.730 146.688,222.543 146.716,224.062 146.750 M109.289 178.800 C 109.289 182.155,109.316 183.528,109.350 181.850 C 109.383 180.173,109.383 177.428,109.350 175.750 C 109.316 174.072,109.289 175.445,109.289 178.800 M290.689 178.800 C 290.689 182.155,290.716 183.528,290.750 181.850 C 290.783 180.173,290.783 177.428,290.750 175.750 C 290.716 174.072,290.689 175.445,290.689 178.800 M98.693 189.600 C 98.693 195.705,98.719 198.202,98.750 195.150 C 98.781 192.097,98.781 187.102,98.750 184.050 C 98.719 180.998,98.693 183.495,98.693 189.600 M301.293 189.600 C 301.293 195.705,301.319 198.202,301.350 195.150 C 301.381 192.097,301.381 187.102,301.350 184.050 C 301.319 180.998,301.293 183.495,301.293 189.600 M103.752 205.341 C 104.001 205.389,104.361 205.387,104.552 205.337 C 104.744 205.287,104.540 205.248,104.100 205.250 C 103.660 205.253,103.504 205.294,103.752 205.341 M109.250 249.500 C 109.253 249.940,109.294 250.096,109.341 249.848 C 109.389 249.599,109.387 249.239,109.337 249.048 C 109.287 248.856,109.248 249.060,109.250 249.500 M325.250 249.500 C 325.253 249.940,325.294 250.096,325.341 249.848 C 325.389 249.599,325.387 249.239,325.337 249.048 C 325.287 248.856,325.248 249.060,325.250 249.500 M109.246 251.800 C 109.246 252.185,109.288 252.343,109.338 252.150 C 109.388 251.957,109.388 251.643,109.338 251.450 C 109.288 251.257,109.246 251.415,109.246 251.800 M325.246 251.800 C 325.246 252.185,325.288 252.343,325.338 252.150 C 325.388 251.957,325.388 251.643,325.338 251.450 C 325.288 251.257,325.246 251.415,325.246 251.800 M76.800 263.263 C 76.800 263.297,77.093 263.590,77.450 263.913 L 78.100 264.500 77.513 263.850 C 76.965 263.244,76.800 263.108,76.800 263.263 M292.800 263.263 C 292.800 263.297,293.093 263.590,293.450 263.913 L 294.100 264.500 293.513 263.850 C 292.965 263.244,292.800 263.108,292.800 263.263 M69.600 274.600 L 65.500 274.713 69.650 274.756 C 72.312 274.784,73.800 274.728,73.800 274.600 C 73.800 274.490,73.778 274.420,73.750 274.444 C 73.723 274.468,71.855 274.538,69.600 274.600 M281.500 274.600 L 273.300 274.707 281.550 274.753 C 286.948 274.784,289.800 274.731,289.800 274.600 C 289.800 274.490,289.778 274.421,289.750 274.447 C 289.723 274.472,286.010 274.541,281.500 274.600 M111.263 274.750 C 113.333 274.782,116.663 274.782,118.663 274.750 C 120.663 274.717,118.970 274.690,114.900 274.691 C 110.830 274.691,109.193 274.717,111.263 274.750 M327.663 274.750 C 329.953 274.782,333.643 274.782,335.863 274.750 C 338.084 274.718,336.210 274.691,331.700 274.691 C 327.190 274.691,325.374 274.718,327.663 274.750 M353.200 280.463 C 353.200 280.497,353.493 280.790,353.850 281.113 L 354.500 281.700 353.913 281.050 C 353.365 280.444,353.200 280.308,353.200 280.463 M80.050 285.350 C 87.503 285.379,99.698 285.379,107.150 285.350 C 114.603 285.321,108.505 285.297,93.600 285.297 C 78.695 285.297,72.598 285.321,80.050 285.350 M290.666 285.350 C 299.557 285.379,314.047 285.379,322.866 285.350 C 331.685 285.321,324.410 285.298,306.700 285.298 C 288.990 285.298,281.775 285.321,290.666 285.350 M40.050 299.700 C 40.053 300.140,40.094 300.296,40.141 300.048 C 40.189 299.799,40.187 299.439,40.137 299.248 C 40.087 299.056,40.048 299.260,40.050 299.700 M50.646 300.200 C 50.646 300.585,50.688 300.743,50.738 300.550 C 50.788 300.358,50.788 300.043,50.738 299.850 C 50.688 299.657,50.646 299.815,50.646 300.200 M274.697 330.700 C 274.697 346.870,274.721 353.455,274.750 345.334 C 274.779 337.213,274.779 323.983,274.750 315.934 C 274.721 307.885,274.697 314.530,274.697 330.700 M285.297 330.700 C 285.297 346.870,285.321 353.455,285.350 345.334 C 285.379 337.213,285.379 323.983,285.350 315.934 C 285.321 307.885,285.297 314.530,285.297 330.700 " stroke="none" fill="#92b4b4" fill-rule="evenodd"></path><path id="path3" d="M50.699 109.300 C 50.699 138.890,50.722 150.965,50.750 136.134 C 50.778 121.303,50.778 97.093,50.750 82.334 C 50.722 67.575,50.699 79.710,50.699 109.300 M221.291 63.900 C 221.291 68.410,221.318 70.284,221.350 68.063 C 221.382 65.843,221.382 62.153,221.350 59.863 C 221.318 57.574,221.291 59.390,221.291 63.900 M349.299 109.400 C 349.299 138.935,349.322 151.018,349.350 136.250 C 349.378 121.483,349.378 97.318,349.350 82.550 C 349.322 67.783,349.299 79.865,349.299 109.400 M178.691 64.000 C 178.691 68.455,178.718 70.278,178.750 68.050 C 178.782 65.823,178.782 62.178,178.750 59.950 C 178.718 57.723,178.691 59.545,178.691 64.000 M216.200 86.100 C 217.241 87.145,218.137 88.000,218.192 88.000 C 218.247 88.000,217.441 87.145,216.400 86.100 C 215.359 85.055,214.463 84.200,214.408 84.200 C 214.353 84.200,215.159 85.055,216.200 86.100 M264.257 109.500 C 264.259 110.050,264.298 110.251,264.344 109.947 C 264.389 109.643,264.388 109.193,264.341 108.947 C 264.293 108.701,264.256 108.950,264.257 109.500 M139.292 139.650 L 138.300 140.700 139.350 139.708 C 140.326 138.785,140.492 138.600,140.342 138.600 C 140.311 138.600,139.838 139.072,139.292 139.650 M178.691 154.700 C 178.691 159.100,178.718 160.872,178.750 158.637 C 178.782 156.402,178.782 152.802,178.750 150.637 C 178.717 148.472,178.691 150.300,178.691 154.700 M221.291 154.800 C 221.291 159.255,221.318 161.078,221.350 158.850 C 221.382 156.623,221.382 152.978,221.350 150.750 C 221.318 148.523,221.291 150.345,221.291 154.800 M305.450 221.338 C 305.643 221.388,305.957 221.388,306.150 221.338 C 306.343 221.288,306.185 221.246,305.800 221.246 C 305.415 221.246,305.257 221.288,305.450 221.338 M349.298 327.800 C 349.298 345.565,349.321 352.833,349.350 343.950 C 349.379 335.068,349.379 320.533,349.350 311.650 C 349.321 302.768,349.298 310.035,349.298 327.800 M253.298 327.900 C 253.298 345.610,253.321 352.825,253.350 343.934 C 253.379 335.043,253.379 320.553,253.350 311.734 C 253.321 302.915,253.298 310.190,253.298 327.900 M50.697 330.400 C 50.697 346.735,50.721 353.418,50.750 345.250 C 50.779 337.083,50.779 323.718,50.750 315.550 C 50.721 307.383,50.697 314.065,50.697 330.400 M338.697 330.700 C 338.697 346.870,338.721 353.455,338.750 345.334 C 338.779 337.213,338.779 323.983,338.750 315.934 C 338.721 307.885,338.697 314.530,338.697 330.700 M189.199 314.259 L 189.299 317.300 189.355 314.416 C 189.386 312.829,189.341 311.461,189.256 311.375 C 189.170 311.289,189.145 312.587,189.199 314.259 M130.697 337.700 C 130.697 350.020,130.721 355.031,130.750 348.835 C 130.779 342.639,130.779 332.559,130.750 326.435 C 130.721 320.311,130.697 325.380,130.697 337.700 " stroke="none" fill="#b7cccd" fill-rule="evenodd"></path><path id="path4" d="M82.566 50.750 C 97.342 50.778,121.462 50.778,136.166 50.750 C 150.870 50.722,138.780 50.699,109.300 50.699 C 79.820 50.699,67.790 50.722,82.566 50.750 M263.966 50.750 C 278.742 50.778,302.862 50.778,317.566 50.750 C 332.270 50.722,320.180 50.699,290.700 50.699 C 261.220 50.699,249.190 50.722,263.966 50.750 M210.498 88.050 L 206.700 91.900 210.550 88.102 C 212.668 86.013,214.400 84.281,214.400 84.252 C 214.400 84.110,214.027 84.473,210.498 88.050 M69.250 109.550 C 70.763 109.583,73.237 109.583,74.750 109.550 C 76.263 109.516,75.025 109.488,72.000 109.488 C 68.975 109.488,67.737 109.516,69.250 109.550 M176.650 114.750 C 184.432 114.779,197.167 114.779,204.950 114.750 C 212.732 114.721,206.365 114.697,190.800 114.697 C 175.235 114.697,168.867 114.721,176.650 114.750 M79.100 139.600 C 79.642 140.150,80.130 140.600,80.185 140.600 C 80.240 140.600,79.842 140.150,79.300 139.600 C 78.758 139.050,78.270 138.600,78.215 138.600 C 78.160 138.600,78.558 139.050,79.100 139.600 M286.264 140.900 C 286.304 141.286,286.454 141.300,290.603 141.306 L 294.900 141.312 290.664 141.252 C 286.851 141.198,286.418 141.158,286.325 140.846 C 286.248 140.583,286.233 140.596,286.264 140.900 M275.446 142.600 C 275.446 142.985,275.488 143.143,275.538 142.950 C 275.588 142.758,275.588 142.442,275.538 142.250 C 275.488 142.058,275.446 142.215,275.446 142.600 M66.150 178.750 C 72.117 178.779,81.882 178.779,87.850 178.750 C 93.817 178.721,88.935 178.696,77.000 178.696 C 65.065 178.696,60.182 178.721,66.150 178.750 M136.865 178.750 C 141.796 178.780,149.806 178.780,154.665 178.750 C 159.524 178.720,155.490 178.696,145.700 178.696 C 135.910 178.696,131.934 178.720,136.865 178.750 M245.465 178.750 C 250.396 178.780,258.406 178.780,263.265 178.750 C 268.124 178.720,264.090 178.696,254.300 178.696 C 244.510 178.696,240.534 178.720,245.465 178.750 M312.150 178.750 C 318.118 178.779,327.882 178.779,333.850 178.750 C 339.817 178.721,334.935 178.696,323.000 178.696 C 311.065 178.696,306.183 178.721,312.150 178.750 M69.589 230.150 L 68.900 230.900 69.650 230.211 C 70.348 229.569,70.492 229.400,70.339 229.400 C 70.306 229.400,69.968 229.738,69.589 230.150 M285.589 230.150 L 284.900 230.900 285.650 230.211 C 286.063 229.832,286.400 229.494,286.400 229.461 C 286.400 229.308,286.231 229.452,285.589 230.150 M61.262 250.500 C 61.263 251.160,61.300 251.406,61.345 251.046 C 61.389 250.687,61.389 250.147,61.343 249.846 C 61.297 249.546,61.261 249.840,61.262 250.500 M277.262 250.500 C 277.263 251.160,277.300 251.406,277.345 251.046 C 277.389 250.687,277.389 250.147,277.343 249.846 C 277.297 249.546,277.261 249.840,277.262 250.500 M70.600 272.100 C 70.973 272.485,71.323 272.800,71.378 272.800 C 71.433 272.800,71.173 272.485,70.800 272.100 C 70.427 271.715,70.077 271.400,70.022 271.400 C 69.967 271.400,70.227 271.715,70.600 272.100 M286.600 272.100 C 286.973 272.485,287.323 272.800,287.378 272.800 C 287.433 272.800,287.173 272.485,286.800 272.100 C 286.427 271.715,286.077 271.400,286.022 271.400 C 285.967 271.400,286.227 271.715,286.600 272.100 M277.250 301.350 C 278.762 301.383,281.238 301.383,282.750 301.350 C 284.262 301.316,283.025 301.288,280.000 301.288 C 276.975 301.288,275.738 301.316,277.250 301.350 M330.662 301.350 C 332.181 301.384,334.611 301.384,336.062 301.349 C 337.513 301.315,336.270 301.287,333.300 301.288 C 330.330 301.288,329.143 301.316,330.662 301.350 M166.265 317.350 C 170.535 317.380,177.465 317.380,181.665 317.350 C 185.864 317.320,182.370 317.295,173.900 317.295 C 165.430 317.295,161.994 317.320,166.265 317.350 " stroke="none" fill="#ccdcdc" fill-rule="evenodd"></path></g></svg>