<svg id="svg" version="1.1" xmlns="http://www.w3.org/2000/svg" xmlns:xlink="http://www.w3.org/1999/xlink" width="400" height="400" viewBox="0, 0, 400,400"><g id="svgg"><path id="path0" d="M187.117 42.008 C 180.263 43.084,179.223 43.711,163.100 56.485 C 156.720 61.540,141.330 73.729,128.900 83.571 C 116.470 93.413,105.651 101.994,104.858 102.639 L 103.417 103.812 100.658 102.725 C 99.141 102.127,88.585 97.930,77.200 93.398 C 52.220 83.455,54.678 84.241,53.054 85.667 C 51.705 86.852,51.800 83.807,51.800 125.900 C 51.800 167.655,51.724 164.996,52.942 166.020 C 53.897 166.824,114.626 192.801,115.543 192.798 C 116.587 192.794,116.974 192.547,124.870 186.824 C 128.703 184.046,131.868 181.802,131.902 181.837 C 131.937 181.871,131.796 182.710,131.589 183.700 C 129.536 193.522,131.423 204.276,136.690 212.771 C 138.849 216.252,140.263 217.884,147.049 224.721 L 153.819 231.542 151.759 231.661 C 145.486 232.027,139.314 235.801,136.428 241.036 C 135.791 242.192,136.006 242.182,133.640 241.173 C 129.148 239.257,127.443 238.901,123.480 239.054 C 115.627 239.355,108.686 244.434,106.289 251.634 C 105.904 252.789,105.681 253.197,105.478 253.119 C 99.558 250.847,90.224 253.609,85.673 258.979 C 83.899 261.073,81.800 264.928,81.800 266.094 C 81.800 266.335,81.472 266.363,79.836 266.264 C 60.639 265.094,51.979 290.692,67.964 301.351 C 69.918 302.653,197.943 357.739,201.500 358.808 C 209.091 361.088,217.943 359.667,224.200 355.164 C 225.025 354.570,231.595 349.413,238.800 343.703 C 246.005 337.994,253.115 332.368,254.600 331.201 C 256.085 330.034,266.011 322.175,276.658 313.737 C 287.304 305.298,296.180 298.291,296.382 298.165 C 296.685 297.976,297.465 298.219,300.825 299.550 C 303.066 300.438,313.745 304.682,324.556 308.982 C 337.278 314.042,344.459 316.800,344.912 316.800 C 345.953 316.800,346.876 316.336,347.524 315.487 L 348.100 314.731 348.152 276.049 C 348.209 233.151,348.311 236.540,346.922 235.522 C 345.457 234.449,285.547 209.000,284.486 209.000 C 283.110 209.000,287.519 205.902,237.400 242.081 L 222.700 252.693 220.100 252.848 C 218.670 252.933,217.374 252.980,217.220 252.951 C 217.065 252.923,224.672 245.115,234.123 235.600 C 253.933 215.656,254.260 215.280,257.316 208.900 C 263.164 196.688,262.330 181.960,255.145 170.572 L 254.054 168.843 255.077 168.372 C 258.172 166.945,261.252 164.228,263.248 161.164 C 264.126 159.816,264.300 159.648,264.674 159.793 C 264.908 159.884,265.820 160.276,266.700 160.664 C 277.840 165.580,289.818 161.003,293.619 150.378 C 293.969 149.400,294.327 148.600,294.414 148.600 C 294.502 148.600,295.232 148.743,296.037 148.918 C 304.924 150.851,314.756 145.436,317.750 136.959 L 318.300 135.401 320.958 135.401 C 341.145 135.397,348.004 108.197,330.100 99.150 C 328.867 98.527,202.026 44.142,200.224 43.464 C 196.572 42.089,190.732 41.441,187.117 42.008 M194.578 48.633 C 197.143 49.126,190.185 46.193,267.178 79.234 C 329.280 105.885,328.621 105.589,330.554 107.698 C 338.559 116.434,330.870 130.728,319.247 128.719 C 317.179 128.362,315.435 127.631,266.741 106.719 C 244.193 97.035,241.679 96.000,240.719 96.000 C 239.487 96.000,239.978 95.703,233.617 100.289 L 229.100 103.545 215.600 103.804 C 199.672 104.108,198.358 104.006,194.360 102.140 C 190.833 100.495,190.137 98.660,191.520 94.655 C 192.428 92.026,192.369 91.169,191.200 90.000 C 189.441 88.241,186.892 88.860,185.777 91.318 C 181.800 100.089,185.736 107.153,196.002 109.671 C 200.057 110.665,201.239 110.699,218.714 110.317 C 236.064 109.937,235.816 109.929,238.629 110.988 C 250.660 115.518,250.734 135.369,238.738 140.008 C 236.324 140.942,235.627 140.986,216.800 141.407 C 157.125 142.743,156.269 142.766,155.574 143.061 C 153.194 144.075,152.931 147.454,155.126 148.819 C 155.897 149.298,155.919 149.300,160.750 149.231 C 163.418 149.192,165.600 149.206,165.600 149.261 C 165.600 149.825,160.468 152.947,158.400 153.640 C 150.499 156.288,143.485 161.358,138.644 167.923 L 137.300 169.745 126.219 177.723 C 120.124 182.110,115.039 185.674,114.919 185.642 C 114.291 185.475,58.743 161.610,58.549 161.424 C 58.467 161.344,58.422 145.927,58.449 127.163 L 58.500 93.047 63.500 95.033 C 66.250 96.125,76.321 100.130,85.879 103.932 C 105.714 111.822,104.212 111.392,106.342 109.788 C 106.979 109.308,117.670 100.861,130.100 91.016 C 181.925 49.972,179.776 51.653,181.649 50.686 C 185.939 48.470,190.207 47.792,194.578 48.633 M276.732 118.136 C 311.784 133.169,312.024 133.276,311.907 133.786 C 310.532 139.786,302.627 144.176,296.523 142.329 C 295.519 142.026,254.440 124.507,254.223 124.290 C 254.181 124.247,254.068 123.332,253.972 122.256 C 253.284 114.546,248.392 107.907,241.250 104.994 C 240.343 104.624,239.600 104.261,239.600 104.188 C 239.600 104.031,241.022 103.030,241.269 103.012 C 241.362 103.005,257.321 109.811,276.732 118.136 M271.000 138.681 L 287.900 145.954 287.851 146.717 C 287.630 150.191,283.107 154.673,278.678 155.806 C 274.663 156.833,273.971 156.635,258.961 150.183 C 251.998 147.189,245.985 144.607,245.600 144.445 L 244.900 144.151 245.394 143.826 C 248.844 141.551,252.014 137.152,253.231 132.950 C 253.478 132.097,253.775 131.402,253.890 131.404 C 254.006 131.407,261.705 134.681,271.000 138.681 M246.843 152.131 C 259.622 157.600,258.138 156.866,257.784 157.543 C 256.775 159.475,253.596 162.008,251.154 162.827 L 249.531 163.371 248.316 162.266 C 240.402 155.068,229.530 151.106,219.343 151.706 L 216.986 151.845 212.883 150.073 L 208.781 148.300 210.240 148.168 C 211.043 148.096,217.010 147.931,223.500 147.802 C 229.990 147.673,235.337 147.529,235.383 147.483 C 235.555 147.312,236.032 147.505,246.843 152.131 M199.591 151.525 L 206.415 154.451 203.753 155.775 C 201.315 156.988,199.059 158.380,196.848 160.037 L 195.996 160.675 195.448 160.238 C 190.127 155.991,183.115 153.041,175.948 152.032 L 173.576 151.698 175.567 150.254 L 177.558 148.809 181.229 148.750 C 183.248 148.717,186.670 148.670,188.834 148.645 L 192.768 148.600 199.591 151.525 M173.796 158.407 C 180.603 159.009,186.808 161.668,192.571 166.453 C 195.556 168.931,196.478 168.979,198.945 166.789 C 210.527 156.508,227.927 155.483,240.400 164.347 C 256.271 175.626,259.353 197.881,247.123 212.900 C 246.407 213.780,237.153 223.207,226.560 233.850 L 207.300 253.200 196.229 253.428 L 185.159 253.656 178.465 246.978 C 146.826 215.415,143.355 211.691,140.773 206.546 C 136.997 199.021,136.327 189.386,139.011 181.200 C 143.794 166.614,158.399 157.044,173.796 158.407 M313.302 228.082 L 341.500 240.164 341.551 274.404 C 341.599 306.963,341.584 308.637,341.251 308.511 C 341.058 308.439,331.000 304.447,318.900 299.642 C 295.294 290.266,295.795 290.437,294.470 291.299 C 293.917 291.658,275.165 306.486,239.200 335.003 C 229.575 342.634,221.143 349.269,220.462 349.746 C 215.498 353.226,208.826 354.289,203.279 352.485 C 201.883 352.031,75.493 297.934,73.052 296.746 C 61.231 290.992,65.583 272.943,78.800 272.907 C 82.034 272.898,77.750 271.191,120.800 289.645 C 141.315 298.440,158.383 305.682,158.728 305.740 C 159.843 305.927,160.756 305.417,165.824 301.783 L 170.805 298.211 183.552 297.889 C 197.279 297.543,198.672 297.575,201.947 298.315 C 208.425 299.779,210.355 302.467,208.405 307.310 C 207.202 310.300,208.347 312.600,211.040 312.600 C 212.815 312.600,213.662 311.874,214.574 309.571 C 218.540 299.551,212.327 292.345,198.745 291.214 C 197.211 291.086,191.747 291.134,181.500 291.366 C 165.325 291.732,164.504 291.712,162.097 290.907 C 149.463 286.684,148.841 266.706,161.188 261.689 C 163.578 260.718,164.690 260.651,185.900 260.195 C 196.900 259.958,214.503 259.564,225.017 259.319 L 244.134 258.874 244.873 258.417 C 246.861 257.188,246.886 254.373,244.921 252.912 C 244.394 252.521,244.115 252.501,239.383 252.514 C 236.642 252.521,234.404 252.476,234.409 252.414 C 234.414 252.351,235.201 251.747,236.159 251.072 C 237.116 250.397,248.470 242.229,261.390 232.922 C 274.309 223.615,284.930 216.000,284.991 216.000 C 285.053 216.000,297.793 221.437,313.302 228.082 M155.779 238.435 C 156.372 238.548,158.454 239.329,160.406 240.170 L 163.954 241.700 169.898 247.750 C 173.168 251.078,175.811 253.806,175.771 253.813 C 175.732 253.821,173.050 253.905,169.811 254.000 L 163.922 254.173 153.034 249.492 C 140.569 244.134,141.885 244.803,142.284 244.032 C 144.423 239.894,150.403 237.414,155.779 238.435 M127.657 245.877 C 128.183 246.035,134.560 248.715,141.827 251.831 L 155.040 257.497 154.172 258.199 C 150.186 261.417,146.400 267.217,146.400 270.105 C 146.400 270.327,146.294 270.402,146.092 270.325 C 145.923 270.260,138.177 266.947,128.878 262.962 L 111.971 255.718 112.103 255.009 C 113.284 248.686,121.319 243.969,127.657 245.877 M103.400 259.372 C 104.115 259.564,113.993 263.709,125.350 268.582 L 146.000 277.443 146.003 278.772 C 146.017 286.189,151.656 294.055,158.926 296.798 L 160.637 297.444 159.715 298.099 L 158.794 298.754 151.947 295.838 C 105.115 275.890,88.100 268.442,88.140 267.906 C 88.210 266.953,89.573 264.525,90.800 263.164 C 93.899 259.731,99.009 258.193,103.400 259.372 " stroke="none" fill="#3c747c" fill-rule="evenodd"></path><path id="path1" d="M0.000 200.000 L 0.000 400.000 200.000 400.000 L 400.000 400.000 400.000 200.000 L 400.000 0.000 200.000 0.000 L 0.000 0.000 0.000 200.000 M195.803 42.112 C 196.692 42.281,198.023 42.604,198.760 42.830 C 200.115 43.245,327.879 97.924,330.100 99.040 C 347.887 107.972,341.392 135.364,321.459 135.482 L 318.418 135.500 317.900 136.918 C 314.548 146.106,304.594 151.159,294.592 148.750 C 294.478 148.723,294.090 149.475,293.730 150.422 C 289.929 160.428,278.390 165.507,268.500 161.530 C 267.840 161.264,266.628 160.756,265.806 160.400 C 264.099 159.661,264.436 159.498,262.941 161.790 C 261.287 164.329,258.810 166.508,255.769 168.100 L 254.239 168.901 255.235 170.501 C 264.387 185.198,263.070 204.308,251.995 217.500 C 251.256 218.380,243.109 226.690,233.891 235.966 L 217.131 252.832 219.817 252.766 L 222.504 252.700 230.802 246.714 C 287.382 205.895,283.262 208.800,284.576 208.800 C 285.230 208.800,345.705 234.544,346.946 235.351 C 348.316 236.241,348.200 232.489,348.200 275.800 C 348.200 319.590,348.352 315.379,346.731 316.381 C 345.058 317.415,347.645 318.351,303.700 300.805 C 300.070 299.356,296.965 298.160,296.800 298.147 C 296.635 298.135,286.915 305.718,275.200 314.999 C 263.485 324.280,252.235 333.190,250.200 334.800 C 248.165 336.410,241.685 341.542,235.800 346.204 C 223.454 355.985,223.299 356.098,220.527 357.406 C 214.269 360.357,207.323 360.825,200.931 358.724 C 199.167 358.145,71.621 303.533,69.480 302.441 C 62.130 298.691,57.897 289.117,59.984 280.963 C 62.326 271.809,69.708 266.148,79.259 266.180 C 81.317 266.187,81.631 266.144,81.728 265.844 C 84.778 256.410,95.208 250.319,104.263 252.684 C 105.013 252.880,105.653 253.009,105.686 252.970 C 105.719 252.932,105.938 252.315,106.173 251.600 C 108.489 244.546,115.657 239.248,123.400 238.866 C 127.028 238.687,129.437 239.225,134.132 241.262 L 135.765 241.970 136.532 240.652 C 139.387 235.749,145.125 232.215,151.353 231.525 L 153.415 231.297 146.641 224.394 C 138.508 216.107,136.912 214.067,134.404 208.746 C 130.759 201.013,129.615 190.411,131.620 182.930 C 131.733 182.506,131.792 182.126,131.751 182.084 C 131.710 182.043,128.457 184.340,124.523 187.189 C 117.102 192.562,116.261 193.073,115.156 192.875 C 114.207 192.705,53.824 166.826,53.050 166.257 C 51.697 165.263,51.800 168.598,51.800 125.840 L 51.800 87.059 52.255 86.384 C 52.943 85.363,53.905 84.800,54.960 84.800 C 55.681 84.800,60.621 86.693,79.566 94.226 C 97.713 101.443,103.346 103.605,103.592 103.451 C 103.890 103.265,128.660 83.665,160.900 58.103 C 176.306 45.888,175.974 46.141,178.239 44.916 C 183.606 42.014,189.948 41.002,195.803 42.112 M188.000 48.597 C 185.203 49.047,181.563 50.572,179.288 52.249 C 178.108 53.120,169.756 59.721,137.200 85.517 C 102.283 113.184,105.513 110.695,104.266 110.896 C 103.380 111.038,100.740 110.021,69.100 97.352 C 63.600 95.150,58.942 93.304,58.750 93.251 C 58.418 93.158,58.400 94.873,58.400 127.242 L 58.400 161.331 68.450 165.644 C 73.978 168.016,86.723 173.485,96.773 177.799 L 115.047 185.641 115.573 185.260 C 115.863 185.051,120.870 181.447,126.700 177.252 C 137.097 169.770,137.322 169.594,138.433 168.062 C 143.348 161.285,150.577 156.076,158.765 153.409 C 160.328 152.900,165.400 149.782,165.400 149.330 C 165.400 149.305,163.409 149.322,160.977 149.367 C 155.983 149.460,155.355 149.358,154.427 148.300 C 152.444 146.042,153.792 142.943,156.873 142.678 C 157.438 142.629,168.205 142.363,180.800 142.087 C 240.734 140.770,236.481 140.956,239.500 139.522 C 245.103 136.861,247.536 132.346,247.354 124.942 C 247.201 118.677,245.134 114.754,240.553 112.036 C 237.218 110.057,236.417 110.005,216.282 110.481 C 199.795 110.871,197.307 110.676,192.320 108.597 C 184.936 105.518,182.280 98.950,185.490 91.702 C 187.096 88.076,191.283 87.941,192.176 91.486 C 192.406 92.400,192.355 92.647,191.417 95.200 C 190.062 98.888,191.578 101.285,196.200 102.760 C 199.883 103.935,201.326 104.006,215.000 103.689 C 221.655 103.535,227.560 103.407,228.122 103.405 C 229.126 103.400,229.232 103.337,234.022 99.877 C 239.373 96.013,239.899 95.713,241.094 95.851 C 241.547 95.903,253.378 100.871,268.100 107.191 C 322.508 130.547,318.528 128.958,322.100 128.743 C 334.379 128.002,338.131 110.685,327.201 105.197 C 326.072 104.630,251.414 72.538,211.523 55.472 C 194.904 48.362,192.975 47.798,188.000 48.597 M240.550 103.551 C 239.558 104.216,239.544 104.196,241.519 104.988 C 248.620 107.836,253.364 114.513,254.158 122.775 L 254.300 124.251 274.449 132.898 C 285.530 137.654,294.980 141.685,295.449 141.857 C 301.354 144.022,308.192 141.362,310.965 135.821 C 311.424 134.904,311.800 133.956,311.800 133.714 C 311.800 133.321,308.169 131.720,276.850 118.306 C 257.627 110.073,241.765 103.272,241.600 103.193 C 241.417 103.105,241.007 103.245,240.550 103.551 M253.308 133.129 C 252.054 137.151,249.227 141.176,246.057 143.452 C 245.194 144.072,245.189 144.083,245.642 144.314 C 247.726 145.381,271.603 155.453,272.606 155.689 C 278.986 157.193,285.401 153.714,287.528 147.597 C 287.803 146.807,287.999 146.135,287.964 146.103 C 287.911 146.055,256.556 132.572,254.479 131.704 L 253.836 131.435 253.308 133.129 M223.500 147.919 C 217.560 148.062,211.872 148.207,210.860 148.240 L 209.021 148.300 212.888 149.965 L 216.755 151.630 221.427 151.683 C 231.930 151.801,240.634 155.154,248.014 161.927 C 249.610 163.391,249.472 163.370,251.800 162.490 C 254.714 161.387,258.716 157.391,257.473 156.824 C 250.181 153.502,235.863 147.605,235.148 147.629 C 234.682 147.646,229.440 147.776,223.500 147.919 M185.000 148.810 C 181.865 148.884,178.886 148.957,178.381 148.973 C 177.595 148.996,177.217 149.177,175.781 150.214 C 173.801 151.644,173.799 151.656,175.525 151.852 C 182.076 152.600,189.502 155.574,194.545 159.471 L 195.991 160.588 197.564 159.403 C 199.535 157.918,201.736 156.604,204.263 155.404 L 206.226 154.472 199.361 151.536 C 193.578 149.063,192.354 148.606,191.598 148.638 C 191.104 148.659,188.135 148.736,185.000 148.810 M166.800 158.592 C 141.932 161.812,129.327 189.478,143.157 210.483 C 144.777 212.944,145.230 213.415,167.425 235.737 L 185.160 253.574 188.430 253.480 C 190.228 253.428,195.224 253.303,199.532 253.203 L 207.363 253.020 224.137 236.160 C 246.571 213.610,247.015 213.149,248.770 210.520 C 259.275 194.788,255.096 174.146,239.300 163.746 C 227.095 155.710,209.971 156.970,199.229 166.694 C 196.566 169.105,195.530 169.091,192.600 166.606 C 185.303 160.418,175.711 157.439,166.800 158.592 M270.100 226.746 C 261.960 232.618,250.845 240.628,245.400 244.546 C 239.955 248.465,235.275 251.847,235.000 252.063 C 234.501 252.454,234.505 252.455,239.039 252.325 C 242.967 252.212,243.687 252.238,244.390 252.519 C 246.546 253.382,247.173 256.013,245.654 257.818 C 244.572 259.104,249.961 258.883,182.800 260.402 C 162.816 260.854,163.266 260.816,160.238 262.310 C 155.181 264.806,152.787 268.885,152.642 275.253 C 152.484 282.211,154.330 286.293,159.000 289.310 C 162.588 291.628,163.188 291.684,180.200 291.285 C 196.034 290.915,199.478 290.962,202.667 291.593 C 213.758 293.785,218.245 300.695,214.541 309.877 C 213.665 312.049,212.875 312.700,211.116 312.700 C 208.293 312.700,207.068 310.360,208.291 307.303 C 210.357 302.139,207.899 299.327,200.229 298.082 C 196.638 297.499,171.197 298.035,170.266 298.713 C 161.190 305.323,159.885 306.115,158.560 305.811 C 158.197 305.728,141.205 298.502,120.800 289.753 C 77.200 271.058,80.536 272.304,76.366 273.163 C 64.990 275.507,62.536 291.115,72.706 296.433 C 74.108 297.166,198.822 350.676,202.003 351.909 C 206.789 353.765,212.575 353.610,217.133 351.504 C 219.953 350.201,215.097 353.976,273.977 307.310 C 295.639 290.142,294.835 290.734,296.300 290.858 C 297.112 290.926,325.263 301.921,340.350 308.063 L 341.600 308.572 341.598 274.436 L 341.596 240.300 313.573 228.300 C 298.160 221.700,285.404 216.248,285.225 216.185 C 285.007 216.108,280.023 219.589,270.100 226.746 M150.500 238.496 C 147.202 239.222,144.192 241.227,142.574 243.775 L 142.018 244.650 153.059 249.378 L 164.100 254.106 167.300 253.973 C 169.060 253.900,171.714 253.831,173.199 253.820 L 175.898 253.800 169.846 247.750 L 163.794 241.700 160.147 240.165 C 155.402 238.167,153.493 237.837,150.500 238.496 M122.200 245.738 C 117.733 246.486,113.619 250.163,112.326 254.563 L 112.014 255.626 112.657 255.897 C 113.011 256.046,120.672 259.328,129.683 263.191 C 138.694 267.053,146.124 270.143,146.194 270.057 C 146.264 269.971,146.528 269.225,146.781 268.400 C 147.848 264.923,150.444 261.107,153.245 258.900 C 154.083 258.240,154.775 257.655,154.783 257.600 C 154.812 257.406,128.681 246.304,127.400 245.966 C 126.191 245.647,123.459 245.527,122.200 245.738 M97.600 259.378 C 93.194 260.346,89.800 263.348,88.298 267.605 L 88.042 268.332 123.391 283.488 L 158.741 298.645 159.575 298.093 C 160.033 297.790,160.384 297.519,160.354 297.491 C 160.324 297.463,159.548 297.151,158.630 296.798 C 151.714 294.138,146.455 286.871,145.875 279.173 L 145.744 277.445 124.922 268.530 C 113.470 263.626,103.695 259.526,103.200 259.419 C 101.298 259.006,99.360 258.992,97.600 259.378 " stroke="none" fill="#fbfbfb" fill-rule="evenodd"></path><path id="path2" d="M191.050 48.338 C 191.243 48.388,191.558 48.388,191.750 48.338 C 191.942 48.288,191.785 48.246,191.400 48.246 C 191.015 48.246,190.858 48.288,191.050 48.338 M227.554 103.545 C 227.913 103.589,228.453 103.589,228.754 103.543 C 229.054 103.497,228.760 103.461,228.100 103.462 C 227.440 103.463,227.194 103.500,227.554 103.545 M218.350 103.745 C 218.707 103.789,219.293 103.789,219.650 103.745 C 220.007 103.700,219.715 103.664,219.000 103.664 C 218.285 103.664,217.993 103.700,218.350 103.745 M209.150 103.945 C 209.507 103.989,210.093 103.989,210.450 103.945 C 210.808 103.900,210.515 103.864,209.800 103.864 C 209.085 103.864,208.793 103.900,209.150 103.945 M247.792 109.250 C 248.620 110.133,248.800 110.292,248.800 110.142 C 248.800 110.110,248.373 109.682,247.850 109.192 L 246.900 108.300 247.792 109.250 M228.950 110.145 C 229.308 110.189,229.893 110.189,230.250 110.145 C 230.607 110.100,230.315 110.064,229.600 110.064 C 228.885 110.064,228.593 110.100,228.950 110.145 M219.950 110.345 C 220.308 110.389,220.893 110.389,221.250 110.345 C 221.607 110.300,221.315 110.264,220.600 110.264 C 219.885 110.264,219.593 110.300,219.950 110.345 M210.950 110.545 C 211.308 110.589,211.893 110.589,212.250 110.545 C 212.607 110.500,212.315 110.464,211.600 110.464 C 210.885 110.464,210.593 110.500,210.950 110.545 M340.457 116.500 C 340.459 117.050,340.498 117.251,340.544 116.947 C 340.589 116.643,340.588 116.193,340.541 115.947 C 340.493 115.701,340.456 115.950,340.457 116.500 M247.450 123.900 C 247.453 124.340,247.494 124.496,247.541 124.248 C 247.589 123.999,247.587 123.639,247.537 123.448 C 247.487 123.256,247.448 123.460,247.450 123.900 M320.850 128.943 C 321.153 128.989,321.648 128.989,321.950 128.943 C 322.253 128.897,322.005 128.860,321.400 128.860 C 320.795 128.860,320.548 128.897,320.850 128.943 M320.755 135.547 C 321.226 135.589,321.946 135.588,322.355 135.545 C 322.765 135.502,322.380 135.468,321.500 135.469 C 320.620 135.469,320.285 135.504,320.755 135.547 M227.950 141.145 C 228.308 141.189,228.893 141.189,229.250 141.145 C 229.607 141.100,229.315 141.064,228.600 141.064 C 227.885 141.064,227.593 141.100,227.950 141.145 M219.150 141.345 C 219.507 141.389,220.093 141.389,220.450 141.345 C 220.808 141.300,220.515 141.264,219.800 141.264 C 219.085 141.264,218.793 141.300,219.150 141.345 M210.554 141.545 C 210.913 141.589,211.453 141.589,211.754 141.543 C 212.054 141.497,211.760 141.461,211.100 141.462 C 210.440 141.463,210.194 141.500,210.554 141.545 M202.053 141.744 C 202.357 141.789,202.807 141.788,203.053 141.741 C 203.299 141.693,203.050 141.656,202.500 141.657 C 201.950 141.659,201.749 141.698,202.053 141.744 M193.150 141.945 C 193.508 141.989,194.093 141.989,194.450 141.945 C 194.808 141.900,194.515 141.864,193.800 141.864 C 193.085 141.864,192.793 141.900,193.150 141.945 M184.354 142.145 C 184.713 142.189,185.253 142.189,185.554 142.143 C 185.854 142.097,185.560 142.061,184.900 142.062 C 184.240 142.063,183.994 142.100,184.354 142.145 M175.354 142.345 C 175.713 142.389,176.253 142.389,176.554 142.343 C 176.854 142.297,176.560 142.261,175.900 142.262 C 175.240 142.263,174.994 142.300,175.354 142.345 M166.350 142.545 C 166.708 142.589,167.293 142.589,167.650 142.545 C 168.008 142.500,167.715 142.464,167.000 142.464 C 166.285 142.464,165.993 142.500,166.350 142.545 M157.554 142.745 C 157.913 142.789,158.453 142.789,158.754 142.743 C 159.054 142.697,158.760 142.661,158.100 142.662 C 157.440 142.663,157.194 142.700,157.554 142.745 M298.850 142.738 C 299.043 142.788,299.358 142.788,299.550 142.738 C 299.743 142.688,299.585 142.646,299.200 142.646 C 298.815 142.646,298.657 142.688,298.850 142.738 M229.750 147.745 C 230.107 147.789,230.693 147.789,231.050 147.745 C 231.407 147.700,231.115 147.664,230.400 147.664 C 229.685 147.664,229.393 147.700,229.750 147.745 M220.550 147.945 C 220.907 147.989,221.493 147.989,221.850 147.945 C 222.207 147.900,221.915 147.864,221.200 147.864 C 220.485 147.864,220.193 147.900,220.550 147.945 M211.350 148.145 C 211.707 148.189,212.293 148.189,212.650 148.145 C 213.007 148.100,212.715 148.064,212.000 148.064 C 211.285 148.064,210.993 148.100,211.350 148.145 M185.346 148.744 C 185.701 148.789,186.331 148.789,186.746 148.746 C 187.160 148.703,186.870 148.667,186.100 148.666 C 185.330 148.665,184.990 148.700,185.346 148.744 M159.554 149.345 C 159.913 149.389,160.453 149.389,160.754 149.343 C 161.054 149.297,160.760 149.261,160.100 149.262 C 159.440 149.263,159.194 149.300,159.554 149.345 M169.650 158.338 C 169.843 158.388,170.158 158.388,170.350 158.338 C 170.543 158.288,170.385 158.246,170.000 158.246 C 169.615 158.246,169.458 158.288,169.650 158.338 M171.150 158.341 C 171.398 158.389,171.803 158.389,172.050 158.341 C 172.298 158.293,172.095 158.254,171.600 158.254 C 171.105 158.254,170.903 158.293,171.150 158.341 M220.250 158.338 C 220.443 158.388,220.757 158.388,220.950 158.338 C 221.143 158.288,220.985 158.246,220.600 158.246 C 220.215 158.246,220.058 158.288,220.250 158.338 M221.750 158.341 C 221.998 158.389,222.403 158.389,222.650 158.341 C 222.898 158.293,222.695 158.254,222.200 158.254 C 221.705 158.254,221.503 158.293,221.750 158.341 M284.250 208.938 C 284.443 208.988,284.757 208.988,284.950 208.938 C 285.143 208.888,284.985 208.846,284.600 208.846 C 284.215 208.846,284.058 208.888,284.250 208.938 M163.300 231.800 C 166.048 234.550,168.342 236.800,168.397 236.800 C 168.452 236.800,166.248 234.550,163.500 231.800 C 160.752 229.050,158.458 226.800,158.403 226.800 C 158.348 226.800,160.552 229.050,163.300 231.800 M226.298 234.050 L 221.700 238.700 226.350 234.102 C 228.907 231.573,231.000 229.480,231.000 229.452 C 231.000 229.310,230.571 229.729,226.298 234.050 M227.498 242.250 L 223.100 246.700 227.550 242.302 C 231.685 238.215,232.090 237.800,231.948 237.800 C 231.920 237.800,229.917 239.803,227.498 242.250 M123.746 238.944 C 124.101 238.989,124.731 238.989,125.146 238.946 C 125.560 238.903,125.270 238.867,124.500 238.866 C 123.730 238.865,123.390 238.900,123.746 238.944 M165.000 242.900 C 165.709 243.615,166.333 244.200,166.388 244.200 C 166.443 244.200,165.909 243.615,165.200 242.900 C 164.491 242.185,163.867 241.600,163.812 241.600 C 163.757 241.600,164.291 242.185,165.000 242.900 M124.650 245.538 C 124.843 245.588,125.158 245.588,125.350 245.538 C 125.543 245.488,125.385 245.446,125.000 245.446 C 124.615 245.446,124.458 245.488,124.650 245.538 M234.400 252.445 C 234.400 252.530,234.918 252.590,235.550 252.577 C 236.771 252.552,236.651 252.464,235.250 252.355 C 234.782 252.319,234.400 252.359,234.400 252.445 M217.450 252.943 C 217.753 252.989,218.248 252.989,218.550 252.943 C 218.853 252.897,218.605 252.860,218.000 252.860 C 217.395 252.860,217.148 252.897,217.450 252.943 M199.750 253.345 C 200.108 253.389,200.692 253.389,201.050 253.345 C 201.408 253.300,201.115 253.264,200.400 253.264 C 199.685 253.264,199.393 253.300,199.750 253.345 M190.554 253.545 C 190.913 253.589,191.453 253.589,191.754 253.543 C 192.054 253.497,191.760 253.461,191.100 253.462 C 190.440 253.463,190.194 253.500,190.554 253.545 M172.554 253.945 C 172.913 253.989,173.453 253.989,173.754 253.943 C 174.054 253.897,173.760 253.861,173.100 253.862 C 172.440 253.863,172.194 253.900,172.554 253.945 M235.154 259.145 C 235.513 259.189,236.053 259.189,236.354 259.143 C 236.654 259.097,236.360 259.061,235.700 259.062 C 235.040 259.063,234.794 259.100,235.154 259.145 M226.754 259.345 C 227.113 259.389,227.653 259.389,227.954 259.343 C 228.254 259.297,227.960 259.261,227.300 259.262 C 226.640 259.263,226.394 259.300,226.754 259.345 M218.250 259.543 C 218.553 259.589,219.048 259.589,219.350 259.543 C 219.653 259.497,219.405 259.460,218.800 259.460 C 218.195 259.460,217.947 259.497,218.250 259.543 M209.754 259.745 C 210.113 259.789,210.653 259.789,210.954 259.743 C 211.254 259.697,210.960 259.661,210.300 259.662 C 209.640 259.663,209.394 259.700,209.754 259.745 M199.554 259.945 C 199.913 259.989,200.453 259.989,200.754 259.943 C 201.054 259.897,200.760 259.861,200.100 259.862 C 199.440 259.863,199.194 259.900,199.554 259.945 M190.754 260.145 C 191.113 260.189,191.653 260.189,191.954 260.143 C 192.254 260.097,191.960 260.061,191.300 260.062 C 190.640 260.063,190.394 260.100,190.754 260.145 M181.954 260.345 C 182.313 260.389,182.853 260.389,183.154 260.343 C 183.454 260.297,183.160 260.261,182.500 260.262 C 181.840 260.263,181.594 260.300,181.954 260.345 M173.154 260.545 C 173.513 260.589,174.053 260.589,174.354 260.543 C 174.654 260.497,174.360 260.461,173.700 260.462 C 173.040 260.463,172.794 260.500,173.154 260.545 M152.460 277.200 C 152.460 277.805,152.497 278.053,152.543 277.750 C 152.589 277.447,152.589 276.953,152.543 276.650 C 152.497 276.348,152.460 276.595,152.460 277.200 M145.846 278.000 C 145.846 278.385,145.888 278.543,145.938 278.350 C 145.988 278.157,145.988 277.843,145.938 277.650 C 145.888 277.457,145.846 277.615,145.846 278.000 M59.446 285.200 C 59.446 285.585,59.488 285.743,59.538 285.550 C 59.588 285.358,59.588 285.043,59.538 284.850 C 59.488 284.657,59.446 284.815,59.446 285.200 M192.354 291.145 C 192.713 291.189,193.253 291.189,193.554 291.143 C 193.854 291.097,193.560 291.061,192.900 291.062 C 192.240 291.063,191.994 291.100,192.354 291.145 M197.650 291.138 C 197.843 291.188,198.158 291.188,198.350 291.138 C 198.543 291.088,198.385 291.046,198.000 291.046 C 197.615 291.046,197.458 291.088,197.650 291.138 M183.354 291.345 C 183.713 291.389,184.253 291.389,184.554 291.343 C 184.854 291.297,184.560 291.261,183.900 291.262 C 183.240 291.263,182.994 291.300,183.354 291.345 M174.354 291.545 C 174.713 291.589,175.253 291.589,175.554 291.543 C 175.854 291.497,175.560 291.461,174.900 291.462 C 174.240 291.463,173.994 291.500,174.354 291.545 M192.354 297.745 C 192.713 297.789,193.253 297.789,193.554 297.743 C 193.854 297.697,193.560 297.661,192.900 297.662 C 192.240 297.663,191.994 297.700,192.354 297.745 M183.954 297.945 C 184.313 297.989,184.853 297.989,185.154 297.943 C 185.454 297.897,185.160 297.861,184.500 297.862 C 183.840 297.863,183.594 297.900,183.954 297.945 M175.354 298.145 C 175.713 298.189,176.253 298.189,176.554 298.143 C 176.854 298.097,176.560 298.061,175.900 298.062 C 175.240 298.063,174.994 298.100,175.354 298.145 M210.752 312.741 C 211.001 312.789,211.361 312.787,211.552 312.737 C 211.744 312.687,211.540 312.648,211.100 312.650 C 210.660 312.653,210.504 312.694,210.752 312.741 M209.552 353.341 C 209.801 353.389,210.161 353.387,210.352 353.337 C 210.544 353.287,210.340 353.248,209.900 353.250 C 209.460 353.253,209.304 353.294,209.552 353.341 " stroke="none" fill="#93b4b4" fill-rule="evenodd"></path><path id="path3" d="M189.450 41.738 C 189.643 41.788,189.958 41.788,190.150 41.738 C 190.343 41.688,190.185 41.646,189.800 41.646 C 189.415 41.646,189.258 41.688,189.450 41.738 M190.846 97.800 C 190.846 98.185,190.888 98.343,190.938 98.150 C 190.988 97.958,190.988 97.642,190.938 97.450 C 190.888 97.258,190.846 97.415,190.846 97.800 M224.554 103.545 C 224.913 103.589,225.453 103.589,225.754 103.543 C 226.054 103.497,225.760 103.461,225.100 103.462 C 224.440 103.463,224.194 103.500,224.554 103.545 M215.354 103.745 C 215.713 103.789,216.253 103.789,216.554 103.743 C 216.854 103.697,216.560 103.661,215.900 103.662 C 215.240 103.663,214.994 103.700,215.354 103.745 M206.154 103.945 C 206.513 103.989,207.053 103.989,207.354 103.943 C 207.654 103.897,207.360 103.861,206.700 103.862 C 206.040 103.863,205.794 103.900,206.154 103.945 M329.400 106.663 C 329.400 106.697,329.693 106.990,330.050 107.313 L 330.700 107.900 330.113 107.250 C 329.565 106.644,329.400 106.508,329.400 106.663 M232.250 110.146 C 232.663 110.189,233.338 110.189,233.750 110.146 C 234.163 110.103,233.825 110.067,233.000 110.067 C 232.175 110.067,231.838 110.103,232.250 110.146 M223.050 110.343 C 223.353 110.389,223.847 110.389,224.150 110.343 C 224.453 110.297,224.205 110.260,223.600 110.260 C 222.995 110.260,222.748 110.297,223.050 110.343 M214.050 110.543 C 214.353 110.589,214.847 110.589,215.150 110.543 C 215.453 110.497,215.205 110.460,214.600 110.460 C 213.995 110.460,213.748 110.497,214.050 110.543 M205.050 110.743 C 205.353 110.789,205.847 110.789,206.150 110.743 C 206.453 110.697,206.205 110.660,205.600 110.660 C 204.995 110.660,204.748 110.697,205.050 110.743 M247.462 126.500 C 247.463 127.160,247.500 127.406,247.545 127.046 C 247.589 126.687,247.589 126.147,247.543 125.846 C 247.497 125.546,247.461 125.840,247.462 126.500 M334.789 129.950 L 334.100 130.700 334.850 130.011 C 335.548 129.369,335.692 129.200,335.539 129.200 C 335.506 129.200,335.168 129.537,334.789 129.950 M233.752 140.941 C 234.001 140.989,234.361 140.987,234.552 140.937 C 234.744 140.887,234.540 140.848,234.100 140.850 C 233.660 140.853,233.504 140.894,233.752 140.941 M225.050 141.143 C 225.353 141.189,225.847 141.189,226.150 141.143 C 226.453 141.097,226.205 141.060,225.600 141.060 C 224.995 141.060,224.748 141.097,225.050 141.143 M216.250 141.343 C 216.553 141.389,217.048 141.389,217.350 141.343 C 217.653 141.297,217.405 141.260,216.800 141.260 C 216.195 141.260,215.947 141.297,216.250 141.343 M207.650 141.543 C 207.953 141.589,208.447 141.589,208.750 141.543 C 209.053 141.497,208.805 141.460,208.200 141.460 C 207.595 141.460,207.347 141.497,207.650 141.543 M199.154 141.745 C 199.513 141.789,200.053 141.789,200.354 141.743 C 200.654 141.697,200.360 141.661,199.700 141.662 C 199.040 141.663,198.794 141.700,199.154 141.745 M190.250 141.943 C 190.553 141.989,191.048 141.989,191.350 141.943 C 191.653 141.897,191.405 141.860,190.800 141.860 C 190.195 141.860,189.947 141.897,190.250 141.943 M181.354 142.145 C 181.713 142.189,182.253 142.189,182.554 142.143 C 182.854 142.097,182.560 142.061,181.900 142.062 C 181.240 142.063,180.994 142.100,181.354 142.145 M172.450 142.343 C 172.753 142.389,173.248 142.389,173.550 142.343 C 173.853 142.297,173.605 142.260,173.000 142.260 C 172.395 142.260,172.148 142.297,172.450 142.343 M163.450 142.543 C 163.753 142.589,164.248 142.589,164.550 142.543 C 164.853 142.497,164.605 142.460,164.000 142.460 C 163.395 142.460,163.148 142.497,163.450 142.543 M313.491 143.650 L 312.700 144.500 313.550 143.709 C 314.340 142.974,314.492 142.800,314.341 142.800 C 314.308 142.800,313.925 143.183,313.491 143.650 M232.853 147.744 C 233.157 147.789,233.607 147.788,233.853 147.741 C 234.099 147.693,233.850 147.656,233.300 147.657 C 232.750 147.659,232.549 147.698,232.853 147.744 M223.650 147.943 C 223.953 147.989,224.447 147.989,224.750 147.943 C 225.053 147.897,224.805 147.860,224.200 147.860 C 223.595 147.860,223.347 147.897,223.650 147.943 M214.450 148.143 C 214.753 148.189,215.248 148.189,215.550 148.143 C 215.853 148.097,215.605 148.060,215.000 148.060 C 214.395 148.060,214.148 148.097,214.450 148.143 M188.750 148.745 C 189.108 148.789,189.692 148.789,190.050 148.745 C 190.408 148.700,190.115 148.664,189.400 148.664 C 188.685 148.664,188.393 148.700,188.750 148.745 M178.750 148.945 C 179.108 148.989,179.692 148.989,180.050 148.945 C 180.408 148.900,180.115 148.864,179.400 148.864 C 178.685 148.864,178.393 148.900,178.750 148.945 M162.450 149.343 C 162.753 149.389,163.248 149.389,163.550 149.343 C 163.853 149.297,163.605 149.260,163.000 149.260 C 162.395 149.260,162.148 149.297,162.450 149.343 M275.250 156.143 C 275.553 156.189,276.048 156.189,276.350 156.143 C 276.653 156.097,276.405 156.060,275.800 156.060 C 275.195 156.060,274.947 156.097,275.250 156.143 M142.487 163.250 L 141.900 163.900 142.550 163.313 C 142.907 162.990,143.200 162.697,143.200 162.663 C 143.200 162.508,143.035 162.644,142.487 163.250 M274.952 162.941 C 275.201 162.989,275.561 162.987,275.752 162.937 C 275.944 162.887,275.740 162.848,275.300 162.850 C 274.860 162.853,274.704 162.894,274.952 162.941 M260.491 164.650 L 259.700 165.500 260.550 164.709 C 261.340 163.974,261.492 163.800,261.341 163.800 C 261.308 163.800,260.925 164.183,260.491 164.650 M130.654 190.200 C 130.654 190.695,130.693 190.898,130.741 190.650 C 130.789 190.403,130.789 189.998,130.741 189.750 C 130.693 189.503,130.654 189.705,130.654 190.200 M261.250 193.100 C 261.253 193.540,261.294 193.696,261.341 193.448 C 261.389 193.199,261.387 192.839,261.337 192.648 C 261.287 192.456,261.248 192.660,261.250 193.100 M130.646 193.400 C 130.646 193.785,130.688 193.942,130.738 193.750 C 130.788 193.558,130.788 193.243,130.738 193.050 C 130.688 192.858,130.646 193.015,130.646 193.400 M147.500 215.800 C 148.485 216.790,149.337 217.600,149.392 217.600 C 149.447 217.600,148.685 216.790,147.700 215.800 C 146.715 214.810,145.863 214.000,145.808 214.000 C 145.753 214.000,146.515 214.810,147.500 215.800 M243.297 216.850 L 241.100 219.100 243.350 216.903 C 245.440 214.863,245.691 214.600,245.547 214.600 C 245.517 214.600,244.505 215.613,243.297 216.850 M151.500 229.400 C 152.596 230.500,153.537 231.400,153.592 231.400 C 153.647 231.400,152.796 230.500,151.700 229.400 C 150.604 228.300,149.663 227.400,149.608 227.400 C 149.553 227.400,150.404 228.300,151.500 229.400 M237.998 231.750 L 233.900 235.900 238.050 231.802 C 241.906 227.994,242.290 227.600,242.148 227.600 C 242.120 227.600,240.252 229.468,237.998 231.750 M151.650 231.538 C 151.843 231.588,152.157 231.588,152.350 231.538 C 152.542 231.488,152.385 231.446,152.000 231.446 C 151.615 231.446,151.458 231.488,151.650 231.538 M174.800 243.300 C 177.273 245.775,179.342 247.800,179.397 247.800 C 179.452 247.800,177.473 245.775,175.000 243.300 C 172.527 240.825,170.458 238.800,170.403 238.800 C 170.348 238.800,172.327 240.825,174.800 243.300 M215.498 244.850 L 211.100 249.300 215.550 244.902 C 219.685 240.815,220.090 240.400,219.948 240.400 C 219.920 240.400,217.917 242.403,215.498 244.850 M240.850 252.343 C 241.153 252.389,241.648 252.389,241.950 252.343 C 242.253 252.297,242.005 252.260,241.400 252.260 C 240.795 252.260,240.548 252.297,240.850 252.343 M205.250 253.143 C 205.553 253.189,206.048 253.189,206.350 253.143 C 206.653 253.097,206.405 253.060,205.800 253.060 C 205.195 253.060,204.947 253.097,205.250 253.143 M196.754 253.345 C 197.113 253.389,197.653 253.389,197.954 253.343 C 198.254 253.297,197.960 253.261,197.300 253.262 C 196.640 253.263,196.394 253.300,196.754 253.345 M187.450 253.543 C 187.753 253.589,188.248 253.589,188.550 253.543 C 188.853 253.497,188.605 253.460,188.000 253.460 C 187.395 253.460,187.148 253.497,187.450 253.543 M170.053 253.944 C 170.357 253.989,170.807 253.988,171.053 253.941 C 171.299 253.893,171.050 253.856,170.500 253.857 C 169.950 253.859,169.749 253.898,170.053 253.944 M237.850 259.143 C 238.153 259.189,238.648 259.189,238.950 259.143 C 239.253 259.097,239.005 259.060,238.400 259.060 C 237.795 259.060,237.548 259.097,237.850 259.143 M229.450 259.343 C 229.753 259.389,230.248 259.389,230.550 259.343 C 230.853 259.297,230.605 259.260,230.000 259.260 C 229.395 259.260,229.148 259.297,229.450 259.343 M221.050 259.543 C 221.353 259.589,221.847 259.589,222.150 259.543 C 222.453 259.497,222.205 259.460,221.600 259.460 C 220.995 259.460,220.748 259.497,221.050 259.543 M212.650 259.743 C 212.953 259.789,213.447 259.789,213.750 259.743 C 214.053 259.697,213.805 259.660,213.200 259.660 C 212.595 259.660,212.347 259.697,212.650 259.743 M202.352 259.941 C 202.601 259.989,202.961 259.987,203.152 259.937 C 203.344 259.887,203.140 259.848,202.700 259.850 C 202.260 259.853,202.104 259.894,202.352 259.941 M204.250 259.943 C 204.553 259.989,205.048 259.989,205.350 259.943 C 205.653 259.897,205.405 259.860,204.800 259.860 C 204.195 259.860,203.947 259.897,204.250 259.943 M193.650 260.143 C 193.953 260.189,194.447 260.189,194.750 260.143 C 195.053 260.097,194.805 260.060,194.200 260.060 C 193.595 260.060,193.347 260.097,193.650 260.143 M184.850 260.343 C 185.153 260.389,185.648 260.389,185.950 260.343 C 186.253 260.297,186.005 260.260,185.400 260.260 C 184.795 260.260,184.548 260.297,184.850 260.343 M176.050 260.543 C 176.353 260.589,176.847 260.589,177.150 260.543 C 177.453 260.497,177.205 260.460,176.600 260.460 C 175.995 260.460,175.748 260.497,176.050 260.543 M167.250 260.743 C 167.553 260.789,168.048 260.789,168.350 260.743 C 168.653 260.697,168.405 260.660,167.800 260.660 C 167.195 260.660,166.947 260.697,167.250 260.743 M152.446 274.800 C 152.446 275.185,152.488 275.343,152.538 275.150 C 152.588 274.957,152.588 274.643,152.538 274.450 C 152.488 274.257,152.446 274.415,152.446 274.800 M189.354 291.145 C 189.713 291.189,190.253 291.189,190.554 291.143 C 190.854 291.097,190.560 291.061,189.900 291.062 C 189.240 291.063,188.994 291.100,189.354 291.145 M180.354 291.345 C 180.713 291.389,181.253 291.389,181.554 291.343 C 181.854 291.297,181.560 291.261,180.900 291.262 C 180.240 291.263,179.994 291.300,180.354 291.345 M171.354 291.545 C 171.713 291.589,172.253 291.589,172.554 291.543 C 172.854 291.497,172.560 291.461,171.900 291.462 C 171.240 291.463,170.994 291.500,171.354 291.545 M195.450 297.746 C 195.863 297.789,196.538 297.789,196.950 297.746 C 197.363 297.703,197.025 297.667,196.200 297.667 C 195.375 297.667,195.038 297.703,195.450 297.746 M186.650 297.943 C 186.953 297.989,187.447 297.989,187.750 297.943 C 188.053 297.897,187.805 297.860,187.200 297.860 C 186.595 297.860,186.347 297.897,186.650 297.943 M178.250 298.143 C 178.553 298.189,179.048 298.189,179.350 298.143 C 179.653 298.097,179.405 298.060,178.800 298.060 C 178.195 298.060,177.947 298.097,178.250 298.143 M64.200 298.263 C 64.200 298.297,64.492 298.590,64.850 298.913 L 65.500 299.500 64.913 298.850 C 64.365 298.244,64.200 298.108,64.200 298.263 M344.450 316.938 C 344.643 316.988,344.957 316.988,345.150 316.938 C 345.343 316.888,345.185 316.846,344.800 316.846 C 344.415 316.846,344.257 316.888,344.450 316.938 " stroke="none" fill="#b7cccd" fill-rule="evenodd"></path><path id="path4" d="M203.050 110.743 C 203.353 110.789,203.847 110.789,204.150 110.743 C 204.453 110.697,204.205 110.660,203.600 110.660 C 202.995 110.660,202.748 110.697,203.050 110.743 M232.892 236.850 L 231.900 237.900 232.950 236.908 C 233.528 236.362,234.000 235.889,234.000 235.858 C 234.000 235.708,233.815 235.874,232.892 236.850 M169.300 237.800 C 169.842 238.350,170.330 238.800,170.385 238.800 C 170.440 238.800,170.042 238.350,169.500 237.800 C 168.958 237.250,168.470 236.800,168.415 236.800 C 168.360 236.800,168.758 237.250,169.300 237.800 M220.800 239.500 C 220.314 239.995,219.962 240.400,220.017 240.400 C 220.072 240.400,220.514 239.995,221.000 239.500 C 221.486 239.005,221.838 238.600,221.783 238.600 C 221.728 238.600,221.286 239.005,220.800 239.500 M100.250 252.338 C 100.442 252.388,100.758 252.388,100.950 252.338 C 101.142 252.288,100.985 252.246,100.600 252.246 C 100.215 252.246,100.058 252.288,100.250 252.338 M207.950 353.341 C 208.197 353.389,208.603 353.389,208.850 353.341 C 209.097 353.293,208.895 353.254,208.400 353.254 C 207.905 353.254,207.703 353.293,207.950 353.341 " stroke="none" fill="#a0bcbc" fill-rule="evenodd"></path></g></svg>