<svg id="svg" version="1.1" xmlns="http://www.w3.org/2000/svg" xmlns:xlink="http://www.w3.org/1999/xlink" width="400" height="400" viewBox="0, 0, 400,400"><g id="svgg"><path id="path0" d="M209.800 67.723 C 197.445 68.783,187.299 78.063,184.215 91.123 L 183.973 92.145 181.837 92.915 C 176.188 94.950,168.877 99.266,163.676 103.635 C 161.712 105.285,162.194 105.320,159.834 103.350 C 136.438 83.818,107.244 84.989,91.406 106.095 C 75.252 127.621,77.200 157.153,96.114 177.500 C 103.877 185.851,111.129 193.591,122.815 205.999 L 135.531 219.500 135.984 221.000 C 138.265 228.538,143.696 233.623,151.938 235.935 L 153.900 236.486 174.100 236.598 C 196.207 236.721,195.305 236.670,196.909 237.893 C 199.601 239.947,198.025 243.963,194.075 245.115 C 192.381 245.609,140.326 245.429,138.205 244.922 C 134.255 243.978,138.838 246.540,89.633 217.762 C 75.900 209.730,75.378 209.448,72.532 208.501 C 55.857 202.951,39.525 216.480,42.783 233.143 C 43.847 238.588,46.350 242.975,51.090 247.704 L 53.900 250.507 81.400 268.741 C 96.525 278.770,110.295 287.885,112.000 288.997 C 119.584 293.943,126.581 296.635,135.961 298.216 C 143.673 299.516,141.268 299.464,200.400 299.602 C 257.348 299.734,255.003 299.696,261.400 300.606 C 273.217 302.289,285.977 306.763,301.500 314.667 L 307.100 317.518 307.237 319.109 C 307.827 325.940,312.100 330.920,318.372 332.089 C 320.850 332.550,346.338 332.551,348.828 332.090 C 353.939 331.143,358.161 327.171,359.551 322.000 C 360.093 319.981,360.091 240.405,359.548 238.400 C 358.219 233.493,354.529 229.835,349.647 228.586 C 347.610 228.065,320.116 227.992,317.713 228.501 C 314.562 229.168,310.947 231.705,309.266 234.428 C 308.445 235.759,308.502 235.754,306.846 234.636 C 306.216 234.210,296.205 227.760,284.600 220.302 C 272.995 212.844,261.835 205.644,259.800 204.301 C 244.245 194.038,234.833 191.026,218.250 191.004 C 216.572 191.002,215.200 190.953,215.200 190.895 C 215.200 190.838,218.315 187.485,222.122 183.445 C 231.905 173.065,233.509 171.082,236.386 165.819 C 237.631 163.542,239.600 159.245,239.600 158.807 C 239.600 158.711,240.072 158.477,240.650 158.288 C 243.872 157.232,248.809 153.925,251.333 151.132 C 251.865 150.543,257.863 144.162,264.662 136.952 C 271.461 129.741,277.516 123.225,278.119 122.471 C 295.972 100.119,281.113 65.224,254.833 67.790 C 248.126 68.444,241.351 71.136,235.804 75.350 L 234.507 76.334 233.052 75.258 C 226.062 70.088,216.886 67.115,209.800 67.723 M213.754 80.206 C 218.948 80.857,224.133 83.531,228.912 88.022 C 233.161 92.014,235.764 92.010,240.069 88.003 C 253.766 75.255,268.878 78.151,272.931 94.300 C 275.117 103.011,272.818 110.321,265.400 118.243 C 241.009 144.292,240.182 145.128,237.549 146.370 C 234.692 147.718,232.056 147.160,228.713 144.500 C 227.165 143.268,200.900 115.391,199.690 113.697 C 193.982 105.697,194.122 94.132,200.025 86.167 C 203.528 81.439,208.024 79.488,213.754 80.206 M130.700 102.400 C 139.902 104.357,147.603 108.613,155.972 116.367 C 160.939 120.968,162.919 120.977,167.758 116.423 C 172.902 111.583,176.631 108.878,181.559 106.416 C 183.304 105.543,183.600 105.526,183.600 106.298 C 183.600 110.314,187.960 119.344,191.989 123.673 C 192.820 124.566,196.161 128.132,199.414 131.598 C 202.667 135.064,208.322 141.095,211.981 145.000 C 219.742 153.282,221.813 155.099,225.752 157.080 L 226.804 157.609 226.395 158.410 C 224.745 161.643,222.033 165.480,219.474 168.200 C 218.594 169.135,213.471 174.580,208.090 180.300 L 198.306 190.700 176.903 190.814 C 156.191 190.924,155.439 190.941,153.600 191.344 C 147.179 192.751,142.265 196.042,139.035 201.100 C 137.713 203.172,137.458 203.521,137.359 203.400 C 137.247 203.263,125.126 190.384,120.700 185.700 C 100.725 164.558,99.867 163.538,96.984 157.500 C 89.013 140.804,92.939 119.804,106.212 108.134 C 112.513 102.594,121.606 100.465,130.700 102.400 M223.000 203.408 C 235.475 204.193,239.614 205.799,255.044 215.844 C 256.443 216.755,268.750 224.685,282.394 233.467 L 307.200 249.434 307.200 276.617 C 307.200 291.568,307.132 303.799,307.050 303.798 C 306.968 303.798,305.505 303.114,303.800 302.279 C 288.191 294.636,275.430 290.380,262.864 288.624 C 254.901 287.511,256.407 287.538,203.500 287.577 C 139.636 287.625,138.168 287.547,127.913 283.587 C 122.767 281.599,123.745 282.207,95.500 263.429 C 83.840 255.677,71.420 247.427,67.900 245.096 C 58.767 239.048,55.942 235.999,54.896 231.063 C 53.111 222.638,62.241 216.890,70.667 221.134 C 71.949 221.779,94.820 235.072,116.899 248.004 C 130.873 256.189,133.111 257.061,141.497 257.596 C 147.127 257.955,192.929 257.864,195.071 257.489 C 214.470 254.096,216.087 229.321,197.200 224.882 C 195.838 224.562,193.838 224.518,175.500 224.412 L 155.300 224.296 153.765 223.716 C 144.135 220.081,145.599 205.727,155.826 203.508 C 157.439 203.158,217.602 203.069,223.000 203.408 M347.200 240.800 C 347.597 241.197,347.600 241.467,347.600 280.300 C 347.600 319.133,347.597 319.403,347.200 319.800 C 346.808 320.192,346.533 320.200,333.563 320.200 L 320.326 320.200 319.863 319.765 L 319.400 319.330 319.400 280.328 L 319.400 241.326 319.835 240.863 L 320.270 240.400 333.535 240.400 C 346.533 240.400,346.808 240.408,347.200 240.800 " stroke="none" fill="#3c747c" fill-rule="evenodd"></path><path id="path1" d="M0.000 200.000 L 0.000 400.000 200.000 400.000 L 400.000 400.000 400.000 200.000 L 400.000 0.000 200.000 0.000 L 0.000 0.000 0.000 200.000 M216.500 67.992 C 222.732 69.011,227.600 71.202,234.173 75.946 C 234.462 76.154,234.737 76.025,236.007 75.080 C 247.555 66.489,262.058 65.183,271.900 71.847 C 286.513 81.742,290.519 103.899,280.488 119.352 C 278.574 122.301,272.068 129.458,255.721 146.600 C 254.830 147.536,253.201 149.246,252.101 150.400 C 248.347 154.344,243.957 157.418,240.674 158.401 C 239.871 158.642,239.826 158.702,239.001 160.674 C 237.294 164.754,234.763 169.138,232.252 172.363 C 230.384 174.762,229.395 175.856,221.638 184.100 L 215.428 190.700 218.664 190.839 C 237.259 191.635,243.882 193.784,259.772 204.175 C 262.262 205.804,273.255 212.897,284.200 219.937 C 295.145 226.978,305.086 233.376,306.291 234.155 L 308.482 235.572 309.070 234.536 C 310.424 232.149,313.590 229.704,316.700 228.645 L 318.300 228.100 333.500 228.100 C 350.548 228.100,349.442 228.012,352.600 229.612 C 356.175 231.422,358.910 234.922,359.700 238.700 C 360.141 240.806,360.141 319.594,359.700 321.700 C 358.674 326.603,354.648 330.735,349.649 332.013 C 347.318 332.609,319.885 332.610,317.555 332.014 C 311.604 330.492,307.200 325.028,307.200 319.165 C 307.200 317.491,307.902 317.988,299.800 313.933 C 285.837 306.946,274.510 302.923,263.700 301.112 C 256.074 299.835,260.539 299.930,201.600 299.789 C 148.600 299.662,146.661 299.637,140.700 298.999 C 130.651 297.924,121.223 294.913,114.215 290.542 C 111.274 288.707,54.633 251.100,53.800 250.428 C 35.579 235.749,39.975 210.851,61.400 207.382 C 68.760 206.191,71.903 207.275,87.425 216.359 C 135.576 244.540,134.283 243.809,137.386 244.580 C 140.417 245.333,144.184 245.425,169.500 245.361 L 193.500 245.300 194.688 244.821 C 197.966 243.501,199.177 240.264,197.129 238.298 C 195.612 236.843,196.911 236.929,174.600 236.795 C 152.665 236.663,153.757 236.722,150.046 235.485 C 143.133 233.181,137.674 227.588,135.854 220.943 L 135.485 219.595 122.054 205.332 C 91.051 172.409,90.533 171.819,87.110 165.531 C 70.348 134.742,87.123 93.855,118.226 89.692 C 131.932 87.857,147.642 93.052,160.302 103.604 L 161.904 104.939 164.502 102.854 C 169.619 98.748,176.803 94.581,181.853 92.792 C 183.784 92.108,183.808 92.091,184.018 91.300 C 187.533 78.042,196.481 69.462,208.600 67.726 C 210.203 67.496,214.313 67.635,216.500 67.992 M255.700 80.125 C 249.854 81.013,244.700 83.670,239.828 88.306 C 235.805 92.135,233.308 92.085,228.891 88.088 C 216.260 76.657,203.136 77.697,197.594 90.568 C 193.793 99.392,195.444 109.257,201.877 116.164 C 202.562 116.899,203.342 117.738,203.611 118.029 C 211.505 126.568,228.109 143.932,229.049 144.629 C 231.370 146.352,232.654 146.875,234.602 146.888 C 237.949 146.911,239.607 145.636,248.232 136.407 C 251.569 132.836,257.377 126.646,261.138 122.652 C 268.531 114.800,269.544 113.589,270.878 111.000 C 278.197 96.804,269.003 78.103,255.700 80.125 M120.900 101.925 C 98.700 104.335,85.926 134.086,97.059 157.452 C 100.076 163.785,98.799 162.314,130.485 195.945 L 137.470 203.359 138.585 201.541 C 141.327 197.073,146.670 193.015,151.500 191.732 C 155.005 190.802,155.046 190.800,177.176 190.800 L 198.100 190.800 209.351 178.832 C 222.607 164.730,222.913 164.370,225.571 159.690 C 226.819 157.494,226.821 157.718,225.550 157.077 C 221.849 155.210,219.687 153.323,212.578 145.749 C 209.145 142.092,205.649 138.380,204.808 137.500 C 201.089 133.607,191.224 123.006,190.476 122.099 C 187.448 118.427,184.660 112.379,183.681 107.362 L 183.342 105.625 181.521 106.539 C 176.548 109.037,172.397 112.090,167.400 116.925 C 164.873 119.370,164.217 119.700,161.900 119.699 C 159.548 119.697,159.028 119.416,155.957 116.484 C 145.347 106.354,131.826 100.739,120.900 101.925 M154.989 203.865 C 146.108 206.518,144.577 219.407,152.701 223.126 C 155.343 224.336,154.100 224.269,176.200 224.395 C 199.378 224.529,197.637 224.392,201.700 226.391 C 216.257 233.549,212.261 254.136,195.661 257.500 C 193.224 257.993,139.540 257.838,137.000 257.329 C 130.719 256.072,129.569 255.533,115.068 247.048 C 64.445 217.428,68.537 219.610,64.100 219.863 C 55.720 220.339,52.198 228.385,57.112 235.828 C 59.543 239.511,58.838 239.001,90.200 259.818 C 125.835 283.473,124.446 282.639,131.622 284.706 C 140.844 287.362,138.015 287.252,200.900 287.407 C 248.266 287.523,255.269 287.578,257.900 287.858 C 273.143 289.475,285.681 293.380,303.751 302.136 L 307.001 303.712 306.951 276.533 L 306.900 249.355 286.400 236.169 C 275.125 228.917,262.398 220.714,258.117 217.942 C 247.360 210.974,245.439 209.780,242.800 208.425 C 238.150 206.038,234.043 204.786,228.200 203.974 L 224.900 203.516 190.700 203.465 L 156.500 203.414 154.989 203.865 M319.914 240.914 C 319.528 241.300,319.423 318.895,319.807 319.613 C 320.009 319.990,320.372 320.000,333.496 320.000 L 346.977 320.000 347.289 319.555 C 347.568 319.157,347.600 315.103,347.600 280.300 C 347.600 245.497,347.568 241.443,347.289 241.045 L 346.977 240.600 333.603 240.600 C 321.711 240.600,320.194 240.635,319.914 240.914 " stroke="none" fill="#fbfbfb" fill-rule="evenodd"></path><path id="path2" d="M92.846 137.800 C 92.846 138.185,92.888 138.343,92.938 138.150 C 92.988 137.958,92.988 137.643,92.938 137.450 C 92.888 137.258,92.846 137.415,92.846 137.800 M215.954 190.945 C 216.313 190.989,216.853 190.989,217.154 190.943 C 217.454 190.897,217.160 190.861,216.500 190.862 C 215.840 190.863,215.594 190.900,215.954 190.945 M326.950 228.150 C 330.608 228.180,336.593 228.180,340.250 228.150 C 343.908 228.119,340.915 228.094,333.600 228.094 C 326.285 228.094,323.293 228.119,326.950 228.150 M54.646 228.800 C 54.646 229.185,54.688 229.343,54.738 229.150 C 54.788 228.957,54.788 228.643,54.738 228.450 C 54.688 228.257,54.646 228.415,54.646 228.800 M42.246 229.000 C 42.246 229.385,42.288 229.543,42.338 229.350 C 42.388 229.157,42.388 228.843,42.338 228.650 C 42.288 228.457,42.246 228.615,42.246 229.000 M319.487 271.000 C 319.487 273.805,319.515 274.953,319.549 273.550 C 319.584 272.147,319.584 269.853,319.549 268.450 C 319.515 267.048,319.487 268.195,319.487 271.000 M174.066 287.550 C 185.157 287.579,203.247 287.579,214.266 287.550 C 225.285 287.521,216.210 287.498,194.100 287.498 C 171.990 287.498,162.975 287.521,174.066 287.550 " stroke="none" fill="#9dbcbc" fill-rule="evenodd"></path><path id="path3" d="M276.000 75.300 C 276.373 75.685,276.723 76.000,276.778 76.000 C 276.833 76.000,276.573 75.685,276.200 75.300 C 275.827 74.915,275.477 74.600,275.422 74.600 C 275.367 74.600,275.627 74.915,276.000 75.300 M267.100 84.000 C 267.530 84.440,267.926 84.800,267.981 84.800 C 268.036 84.800,267.730 84.440,267.300 84.000 C 266.870 83.560,266.474 83.200,266.419 83.200 C 266.364 83.200,266.670 83.560,267.100 84.000 M202.000 116.463 C 202.000 116.497,202.293 116.790,202.650 117.113 L 203.300 117.700 202.713 117.050 C 202.165 116.444,202.000 116.308,202.000 116.463 M264.487 119.050 L 263.900 119.700 264.550 119.113 C 265.156 118.565,265.292 118.400,265.137 118.400 C 265.103 118.400,264.810 118.692,264.487 119.050 M205.600 120.263 C 205.600 120.297,205.893 120.590,206.250 120.913 L 206.900 121.500 206.313 120.850 C 205.765 120.244,205.600 120.108,205.600 120.263 M208.800 123.663 C 208.800 123.697,209.093 123.990,209.450 124.313 L 210.100 124.900 209.513 124.250 C 208.965 123.644,208.800 123.508,208.800 123.663 M212.000 127.063 C 212.000 127.097,212.293 127.390,212.650 127.713 L 213.300 128.300 212.713 127.650 C 212.165 127.044,212.000 126.908,212.000 127.063 M269.887 131.450 L 269.300 132.100 269.950 131.513 C 270.556 130.965,270.692 130.800,270.537 130.800 C 270.503 130.800,270.210 131.093,269.887 131.450 M266.687 134.850 L 266.100 135.500 266.750 134.913 C 267.356 134.365,267.492 134.200,267.337 134.200 C 267.303 134.200,267.010 134.493,266.687 134.850 M249.087 135.450 L 248.500 136.100 249.150 135.513 C 249.756 134.965,249.892 134.800,249.737 134.800 C 249.703 134.800,249.410 135.093,249.087 135.450 M80.477 138.800 C 80.477 140.175,80.509 140.738,80.548 140.050 C 80.587 139.363,80.587 138.238,80.548 137.550 C 80.509 136.863,80.477 137.425,80.477 138.800 M253.287 149.050 L 252.700 149.700 253.350 149.113 C 253.956 148.565,254.092 148.400,253.937 148.400 C 253.903 148.400,253.610 148.692,253.287 149.050 M109.400 173.663 C 109.400 173.697,109.692 173.990,110.050 174.313 L 110.700 174.900 110.113 174.250 C 109.565 173.644,109.400 173.508,109.400 173.663 M209.487 178.650 L 208.900 179.300 209.550 178.713 C 210.156 178.165,210.292 178.000,210.137 178.000 C 210.103 178.000,209.810 178.293,209.487 178.650 M226.287 179.050 L 225.700 179.700 226.350 179.113 C 226.956 178.565,227.092 178.400,226.937 178.400 C 226.903 178.400,226.610 178.692,226.287 179.050 M203.087 185.450 L 202.500 186.100 203.150 185.513 C 203.508 185.190,203.800 184.897,203.800 184.863 C 203.800 184.708,203.635 184.844,203.087 185.450 M125.200 190.463 C 125.200 190.497,125.493 190.790,125.850 191.113 L 126.500 191.700 125.913 191.050 C 125.365 190.444,125.200 190.308,125.200 190.463 M218.053 190.944 C 218.357 190.989,218.807 190.988,219.053 190.941 C 219.299 190.893,219.050 190.856,218.500 190.857 C 217.950 190.859,217.749 190.898,218.053 190.944 M111.000 193.663 C 111.000 193.697,111.293 193.990,111.650 194.313 L 112.300 194.900 111.713 194.250 C 111.165 193.644,111.000 193.508,111.000 193.663 M135.000 200.863 C 135.000 200.897,135.292 201.190,135.650 201.513 L 136.300 202.100 135.713 201.450 C 135.165 200.844,135.000 200.708,135.000 200.863 M172.950 203.350 C 181.338 203.379,195.063 203.379,203.450 203.350 C 211.838 203.321,204.975 203.297,188.200 203.297 C 171.425 203.297,164.563 203.321,172.950 203.350 M127.200 210.863 C 127.200 210.897,127.493 211.190,127.850 211.513 L 128.500 212.100 127.913 211.450 C 127.365 210.844,127.200 210.708,127.200 210.863 M42.246 227.800 C 42.246 228.185,42.288 228.343,42.338 228.150 C 42.388 227.957,42.388 227.643,42.338 227.450 C 42.288 227.257,42.246 227.415,42.246 227.800 M205.992 229.450 C 206.820 230.333,207.000 230.492,207.000 230.342 C 207.000 230.310,206.572 229.882,206.050 229.392 L 205.100 228.500 205.992 229.450 M141.100 230.000 C 141.753 230.660,142.332 231.200,142.387 231.200 C 142.442 231.200,141.953 230.660,141.300 230.000 C 140.647 229.340,140.068 228.800,140.013 228.800 C 139.958 228.800,140.447 229.340,141.100 230.000 M210.654 240.400 C 210.654 240.895,210.693 241.097,210.741 240.850 C 210.789 240.603,210.789 240.197,210.741 239.950 C 210.693 239.703,210.654 239.905,210.654 240.400 M327.050 240.550 C 330.653 240.580,336.548 240.580,340.150 240.550 C 343.753 240.519,340.805 240.494,333.600 240.494 C 326.395 240.494,323.447 240.519,327.050 240.550 M319.473 243.500 C 319.474 244.600,319.507 245.024,319.548 244.443 C 319.588 243.862,319.588 242.962,319.547 242.443 C 319.506 241.924,319.473 242.400,319.473 243.500 M142.650 245.338 C 142.843 245.388,143.157 245.388,143.350 245.338 C 143.542 245.288,143.385 245.246,143.000 245.246 C 142.615 245.246,142.458 245.288,142.650 245.338 M51.700 248.600 C 52.130 249.040,52.526 249.400,52.581 249.400 C 52.636 249.400,52.330 249.040,51.900 248.600 C 51.470 248.160,51.074 247.800,51.019 247.800 C 50.964 247.800,51.270 248.160,51.700 248.600 M319.496 297.500 C 319.496 309.380,319.521 314.211,319.550 308.235 C 319.579 302.259,319.579 292.539,319.550 286.635 C 319.521 280.731,319.496 285.620,319.496 297.500 M149.352 287.341 C 149.601 287.389,149.961 287.387,150.152 287.337 C 150.344 287.287,150.140 287.248,149.700 287.250 C 149.260 287.253,149.104 287.294,149.352 287.341 M251.152 287.541 C 251.401 287.589,251.761 287.587,251.952 287.537 C 252.144 287.487,251.940 287.448,251.500 287.450 C 251.060 287.453,250.904 287.494,251.152 287.541 M152.350 299.747 C 152.928 299.788,153.873 299.788,154.450 299.747 C 155.028 299.707,154.555 299.674,153.400 299.674 C 152.245 299.674,151.773 299.707,152.350 299.747 M241.050 299.749 C 242.453 299.784,244.748 299.784,246.150 299.749 C 247.553 299.715,246.405 299.687,243.600 299.687 C 240.795 299.687,239.648 299.715,241.050 299.749 M327.050 320.150 C 330.653 320.180,336.548 320.180,340.150 320.150 C 343.753 320.119,340.805 320.094,333.600 320.094 C 326.395 320.094,323.447 320.119,327.050 320.150 M355.691 328.650 L 354.900 329.500 355.750 328.709 C 356.540 327.974,356.692 327.800,356.541 327.800 C 356.508 327.800,356.125 328.183,355.691 328.650 " stroke="none" fill="#b7cccd" fill-rule="evenodd"></path><path id="path4" d="M210.450 80.138 C 210.643 80.188,210.957 80.188,211.150 80.138 C 211.343 80.088,211.185 80.046,210.800 80.046 C 210.415 80.046,210.257 80.088,210.450 80.138 M211.850 80.138 C 212.043 80.188,212.357 80.188,212.550 80.138 C 212.743 80.088,212.585 80.046,212.200 80.046 C 211.815 80.046,211.657 80.088,211.850 80.138 M195.469 100.100 C 195.469 100.980,195.504 101.315,195.547 100.845 C 195.589 100.374,195.588 99.654,195.545 99.245 C 195.502 98.835,195.468 99.220,195.469 100.100 M166.994 117.150 L 165.700 118.500 167.050 117.206 C 167.793 116.494,168.400 115.886,168.400 115.856 C 168.400 115.709,168.196 115.896,166.994 117.150 M156.800 117.300 C 157.397 117.905,157.931 118.400,157.986 118.400 C 158.041 118.400,157.597 117.905,157.000 117.300 C 156.403 116.695,155.869 116.200,155.814 116.200 C 155.759 116.200,156.203 116.695,156.800 117.300 M92.846 140.800 C 92.846 141.185,92.888 141.343,92.938 141.150 C 92.988 140.958,92.988 140.643,92.938 140.450 C 92.888 140.258,92.846 140.415,92.846 140.800 M215.601 190.299 C 215.343 190.574,215.170 190.832,215.216 190.873 C 215.262 190.914,215.509 190.689,215.765 190.374 C 216.338 189.668,216.237 189.622,215.601 190.299 M219.750 203.341 C 219.998 203.389,220.403 203.389,220.650 203.341 C 220.898 203.293,220.695 203.254,220.200 203.254 C 219.705 203.254,219.503 203.293,219.750 203.341 M48.487 213.850 L 47.900 214.500 48.550 213.913 C 48.907 213.590,49.200 213.297,49.200 213.263 C 49.200 213.108,49.035 213.244,48.487 213.850 M64.453 219.744 C 64.757 219.789,65.207 219.788,65.453 219.741 C 65.699 219.693,65.450 219.656,64.900 219.657 C 64.350 219.659,64.149 219.698,64.453 219.744 M165.765 236.750 C 170.861 236.780,179.141 236.780,184.165 236.750 C 189.189 236.720,185.020 236.696,174.900 236.696 C 164.780 236.696,160.669 236.720,165.765 236.750 M319.493 255.800 C 319.493 261.465,319.519 263.782,319.550 260.950 C 319.581 258.118,319.581 253.482,319.550 250.650 C 319.519 247.818,319.493 250.135,319.493 255.800 M307.097 276.600 C 307.097 291.615,307.121 297.757,307.150 290.250 C 307.179 282.743,307.179 270.457,307.150 262.950 C 307.121 255.443,307.097 261.585,307.097 276.600 M142.352 257.741 C 142.601 257.789,142.961 257.787,143.152 257.737 C 143.344 257.687,143.140 257.648,142.700 257.650 C 142.260 257.653,142.104 257.694,142.352 257.741 M147.552 287.341 C 147.801 287.389,148.161 287.387,148.352 287.337 C 148.544 287.287,148.340 287.248,147.900 287.250 C 147.460 287.253,147.304 287.294,147.552 287.341 M152.952 287.541 C 153.201 287.589,153.561 287.587,153.752 287.537 C 153.944 287.487,153.740 287.448,153.300 287.450 C 152.860 287.453,152.704 287.494,152.952 287.541 M235.050 287.547 C 235.572 287.588,236.428 287.588,236.950 287.547 C 237.472 287.506,237.045 287.472,236.000 287.472 C 234.955 287.472,234.528 287.506,235.050 287.547 M249.352 287.541 C 249.601 287.589,249.961 287.587,250.152 287.537 C 250.344 287.487,250.140 287.448,249.700 287.450 C 249.260 287.453,249.104 287.494,249.352 287.541 M176.350 299.750 C 187.598 299.779,206.003 299.779,217.250 299.750 C 228.498 299.721,219.295 299.698,196.800 299.698 C 174.305 299.698,165.103 299.721,176.350 299.750 M249.650 299.738 C 249.843 299.788,250.157 299.788,250.350 299.738 C 250.543 299.688,250.385 299.646,250.000 299.646 C 249.615 299.646,249.457 299.688,249.650 299.738 M253.850 299.938 C 254.043 299.988,254.357 299.988,254.550 299.938 C 254.743 299.888,254.585 299.846,254.200 299.846 C 253.815 299.846,253.657 299.888,253.850 299.938 " stroke="none" fill="#93b4b4" fill-rule="evenodd"></path></g></svg>